<svg width="139" height="40" viewBox="0 0 139 40" fill="none" xmlns="http://www.w3.org/2000/svg">
<path d="M67.519 15.5462C70.4374 12.4768 75.3666 12.3168 78.3635 13.9485C79.2164 14.4135 80.0115 14.9658 80.6112 15.7254C80.9917 16.2051 81.1635 16.0896 81.5455 15.7387C84.6667 12.881 88.3211 12.1762 92.2478 13.5369C95.3854 14.6252 96.761 17.2386 97.2614 20.3806C97.3766 21.2105 97.4262 22.0482 97.4095 22.8859C97.4095 28.1631 97.3962 33.4402 97.4199 38.7174C97.4199 39.2756 97.2822 39.4103 96.7328 39.3985C94.8346 39.3615 92.9349 39.3585 91.0366 39.3985C90.3881 39.4118 90.1704 39.2771 90.1764 38.5693C90.2119 33.7615 90.1956 28.9538 90.1941 24.1445C90.2106 23.553 90.161 22.9615 90.0461 22.381C89.6433 20.6042 88.5654 19.5292 87.0373 19.3871C85.0947 19.205 83.4837 20.1067 82.7804 21.7724C82.5802 22.249 82.4795 22.7615 82.4842 23.2783C82.4946 28.4074 82.4842 33.5365 82.502 38.6656C82.502 39.2238 82.3909 39.4059 81.7913 39.3985C79.819 39.357 77.8438 39.3644 75.8685 39.3985C75.3444 39.4074 75.2185 39.2504 75.22 38.7411C75.2407 33.9585 75.2333 29.1744 75.2289 24.3903C75.2515 23.7249 75.2043 23.0589 75.0882 22.4032C74.7773 20.9107 74.0414 19.7558 72.4763 19.4419C70.8476 19.122 69.3861 19.544 68.3304 20.9225C67.7912 21.6025 67.5031 22.4476 67.5145 23.3153C67.5338 28.4444 67.5145 33.5735 67.5367 38.7026C67.5367 39.2401 67.4316 39.4088 66.8601 39.397C64.8878 39.357 62.9141 39.3659 60.9374 39.397C60.4606 39.397 60.3125 39.286 60.3125 38.7899C60.3293 30.5544 60.3293 22.3183 60.3125 14.0818C60.3125 13.5917 60.4606 13.4659 60.9374 13.4733C62.9348 13.4999 64.9352 13.5029 66.9297 13.4733C67.4375 13.4644 67.5649 13.6317 67.5219 14.0966C67.4894 14.5319 67.519 14.9761 67.519 15.5462Z" fill="white"/>
<path d="M18.9327 14.6205C19.0112 13.4937 19.0112 13.4937 20.1424 13.4937C21.9192 13.4937 23.696 13.507 25.4729 13.4848C25.9245 13.4848 26.114 13.5574 26.114 14.0771C26.0962 22.3363 26.0962 30.5956 26.114 38.8548C26.114 39.416 25.9023 39.4886 25.4255 39.4826C23.5761 39.459 21.7238 39.4308 19.8774 39.493C19.1148 39.5197 18.8409 39.3005 18.9712 38.5617C18.9757 38.4418 18.9648 38.3218 18.9386 38.2048C11.7395 41.56 5.16828 38.2048 2.40533 34.2158C-0.970627 29.3444 -0.787022 22.5732 2.91912 17.9639C6.224 13.8491 12.5776 11.5096 18.9327 14.6205ZM12.9907 20.2338C9.56442 20.2086 6.86366 22.899 6.85033 26.3579C6.837 29.8375 9.48446 32.5456 12.9137 32.5605C16.2689 32.5753 18.9238 29.916 18.9564 26.506C18.9904 22.9819 16.3992 20.259 12.9907 20.2338Z" fill="white"/>
<path d="M47.6244 37.0382C46.3108 38.3887 44.6325 39.3276 42.7944 39.7404C39.0927 40.5903 35.2429 39.311 33.2647 36.5407C32.142 34.9555 31.5453 33.0579 31.559 31.1155C31.5072 25.3956 31.5382 19.6742 31.5234 13.9544C31.5234 13.5546 31.6463 13.4628 32.0269 13.4657C34.0732 13.4835 36.121 13.4998 38.1673 13.4583C38.7936 13.445 38.7477 13.7678 38.7462 14.1853C38.7403 19.0222 38.7403 23.8552 38.7462 28.6842C38.7306 29.2015 38.7644 29.7191 38.8469 30.23C39.3103 32.5784 40.9702 33.7481 43.4207 33.4875C45.8357 33.2373 47.5444 31.4916 47.5444 29.272C47.5444 24.2377 47.5548 19.2122 47.5311 14.1809C47.5311 13.599 47.6792 13.4406 48.2596 13.4539C50.2067 13.4909 52.1567 13.4865 54.1053 13.4539C54.6265 13.445 54.816 13.5353 54.8146 14.1217C54.7928 22.3335 54.7928 30.5449 54.8146 38.7558C54.8146 39.2163 54.7287 39.388 54.2223 39.3791C52.2248 39.3481 50.2244 39.351 48.2285 39.3791C47.7428 39.3791 47.5829 39.2533 47.6214 38.7676C47.6569 38.2701 47.6244 37.7534 47.6244 37.0382Z" fill="white"/>
<path d="M109.869 15.8228C113.291 12.3817 118.278 12.3358 121.419 13.9097C124.005 15.2083 125.314 17.4189 125.829 20.1819C125.963 20.9593 126.024 21.7475 126.012 22.5362C126.012 27.911 126.001 33.2859 126.022 38.6608C126.022 39.216 125.915 39.41 125.313 39.4011C123.366 39.3582 121.416 39.3656 119.468 39.4011C118.947 39.41 118.82 39.2664 118.821 38.7511C118.842 33.8945 118.835 29.0363 118.833 24.1797C118.833 23.312 118.749 22.4562 118.389 21.6552C117.523 19.7614 115.368 18.9677 113.11 19.6192C111.473 20.0931 109.804 21.864 109.853 24.0257C109.954 28.9046 109.875 33.7879 109.897 38.6697C109.897 39.2279 109.786 39.4174 109.187 39.41C107.214 39.3671 105.241 39.3789 103.264 39.41C102.8 39.41 102.694 39.2826 102.695 38.834C102.709 30.5748 102.709 22.3151 102.695 14.0548C102.695 13.5884 102.835 13.4818 103.28 13.4877C105.303 13.5114 107.325 13.5084 109.351 13.4877C109.763 13.4877 109.918 13.5929 109.891 14.0193C109.843 14.5612 109.869 15.1239 109.869 15.8228Z" fill="white"/>
<path d="M131.3 26.3771C131.3 22.36 131.322 18.3414 131.279 14.3229C131.271 13.5825 131.49 13.4463 132.168 13.4656C134.016 13.5159 135.87 13.507 137.715 13.4656C138.307 13.4522 138.505 13.5692 138.504 14.2059C138.479 22.3664 138.479 30.526 138.504 38.6845C138.504 39.2161 138.406 39.4026 137.824 39.3908C135.902 39.3483 133.977 39.3483 132.049 39.3908C131.457 39.4026 131.268 39.2857 131.274 38.6504C131.317 34.5593 131.3 30.4667 131.3 26.3771Z" fill="white"/>
<path d="M131.016 3.90777C131.031 1.70008 132.816 -0.0248996 135.061 0.000271997C136.115 0.0175509 137.12 0.452979 137.853 1.21077C138.586 1.96857 138.989 2.98662 138.971 4.04102C138.954 5.09542 138.519 6.09977 137.761 6.83313C137.003 7.56649 135.985 7.9688 134.931 7.95152C132.69 7.91154 131.001 6.16729 131.016 3.90777Z" fill="white"/>
</svg>
