<svg width="255" height="44" viewBox="0 0 255 44" fill="none" xmlns="http://www.w3.org/2000/svg">
<path d="M115.298 18.7947C115.289 23.6442 115.279 28.493 115.27 33.3413C115.27 34.7596 115.259 34.7704 113.817 34.7704C112.776 34.7704 111.734 34.7561 110.693 34.7704C110.027 34.7811 109.727 34.5185 109.727 33.82C109.738 26.0242 109.738 18.2296 109.727 10.4362C109.727 9.70202 110.012 9.43227 110.734 9.45013C112.102 9.48229 113.473 9.48943 114.843 9.45013C115.557 9.42691 115.986 9.69129 116.354 10.2951C118.153 13.2391 119.986 16.1634 121.811 19.0913C122.426 20.0756 122.439 20.0738 123.053 19.0913C124.861 16.1866 126.687 13.2927 128.455 10.3648C128.864 9.69132 129.329 9.41794 130.107 9.45188C131.358 9.50547 132.608 9.45194 133.859 9.46801C135.043 9.46801 135.072 9.49832 135.074 10.6577C135.074 15.0891 135.074 19.5218 135.074 23.9556C135.074 27.1979 135.05 30.442 135.09 33.6843C135.09 34.5061 134.813 34.8115 134.018 34.7865C132.917 34.7508 131.815 34.7418 130.717 34.7865C129.838 34.8258 129.52 34.5185 129.529 33.6075C129.566 28.9968 129.545 24.3861 129.545 19.7737V18.6751C129.009 18.918 128.887 19.3056 128.682 19.6147C126.826 22.4169 124.976 25.2233 123.13 28.0339C122.372 29.1808 122.356 29.1701 121.617 28.0554C119.561 24.9589 117.5 21.8625 115.432 18.7661L115.364 18.7322L115.298 18.7947Z" fill="#F3F3F3"/>
<path d="M140.4 22.0851C140.4 18.3075 140.4 14.5292 140.4 10.7504C140.4 9.49996 140.43 9.47139 141.623 9.46961C145.225 9.46961 148.825 9.46961 152.424 9.46961C154.127 9.44786 155.811 9.84018 157.329 10.6129C161.343 12.6922 161.438 18.5963 158.156 20.9168C157.347 21.4867 157.363 21.5456 158.251 21.9708C160.977 23.2748 162.101 25.4632 161.863 28.4215C161.636 31.2368 160.053 32.9785 157.494 33.9503C155.911 34.5505 154.26 34.7327 152.585 34.7363C148.955 34.7446 145.322 34.7446 141.688 34.7363C140.437 34.7363 140.401 34.6791 140.391 33.4144C140.391 33.3536 140.391 33.2947 140.391 33.2357C140.395 29.5165 140.398 25.7996 140.4 22.0851ZM149.807 29.847C150.7 29.847 151.593 29.847 152.486 29.847C153.232 29.8582 153.972 29.7303 154.671 29.47C155.782 29.0288 156.327 28.2321 156.32 27.0745C156.32 25.958 155.784 25.1827 154.712 24.7379C154.105 24.4876 153.456 24.3554 152.799 24.3484C150.746 24.3217 148.69 24.336 146.645 24.3163C146.089 24.3163 145.814 24.5289 145.818 25.0988C145.818 26.4064 145.828 27.714 145.818 29.0288C145.818 29.6398 146.089 29.8756 146.688 29.863C147.726 29.8273 148.765 29.8434 149.807 29.8434V29.847ZM149.071 19.6646V19.5842C150.078 19.5842 151.086 19.6003 152.093 19.5753C152.419 19.5503 152.739 19.4799 153.045 19.3662C154.423 18.9232 155.052 17.971 154.884 16.6116C154.746 15.4969 153.931 14.718 152.561 14.5001C150.557 14.1803 148.533 14.384 146.518 14.3554C146.045 14.3554 145.818 14.6252 145.818 15.0878C145.818 16.3633 145.818 17.6388 145.818 18.9143C145.818 19.4234 146.048 19.6753 146.575 19.6682C147.408 19.6521 148.24 19.6628 149.071 19.6628V19.6646Z" fill="#F3F3F3"/>
<path d="M237.956 19.1663V22.9927C237.956 26.5333 237.929 30.0739 237.974 33.6146C237.986 34.5328 237.65 34.8239 236.78 34.7882C235.651 34.74 234.519 34.7614 233.386 34.7775C232.707 34.7882 232.436 34.497 232.438 33.8092C232.449 26.0146 232.449 18.22 232.438 10.4254C232.438 9.67515 232.757 9.43579 233.463 9.45723C234.503 9.48938 235.548 9.50903 236.587 9.45723C237.366 9.41257 237.838 9.73415 238.295 10.3344C241.682 14.8218 245.085 19.2979 248.504 23.7626C248.715 24.0395 248.944 24.2986 249.219 24.6558C249.446 24.2182 249.376 23.8627 249.376 23.525C249.376 19.2377 249.376 14.9533 249.376 10.6719C249.376 9.509 249.405 9.48583 250.587 9.47869C251.659 9.47869 252.731 9.51797 253.803 9.46438C254.658 9.42151 254.932 9.74307 254.928 10.5952C254.898 15.9794 254.914 21.3653 254.914 26.7494C254.914 29.0717 254.882 31.394 254.93 33.7164C254.946 34.5595 254.614 34.7882 253.833 34.8061C250.235 34.8775 250.237 34.89 248.061 32.03C244.943 27.9356 241.824 23.8418 238.702 19.7486C238.524 19.5217 238.336 19.3091 238.152 19.0894L237.956 19.1663Z" fill="#F3F3F3"/>
<path d="M166.481 22.0391C166.481 18.2627 166.481 14.4856 166.481 10.708C166.481 9.50218 166.519 9.46824 167.746 9.45752C171.257 9.45752 174.77 9.45752 178.286 9.45752C180.22 9.45752 182.087 9.79155 183.777 10.7723C188.861 13.7145 188.918 21.7854 183.886 24.8847C183.614 25.0668 183.327 25.2247 183.027 25.3564C182.377 25.6118 182.337 25.9637 182.72 26.5104C183.947 28.2664 185.146 30.0403 186.355 31.807C186.875 32.568 187.386 33.3362 187.913 34.0936C188.213 34.5224 188.127 34.7635 187.593 34.7617C185.806 34.7617 184.02 34.7313 182.234 34.717C181.739 34.717 181.519 34.3598 181.282 34.0025C179.827 31.8267 178.354 29.6633 176.926 27.4679C176.542 26.8784 176.103 26.6014 175.394 26.6425C174.593 26.689 173.786 26.6747 172.986 26.6425C172.303 26.6193 172.03 26.8945 172.039 27.5894C172.067 29.5812 172.017 31.5748 172.06 33.5666C172.078 34.3973 171.821 34.7688 170.949 34.7331C169.82 34.6849 168.688 34.6938 167.555 34.7331C166.746 34.7581 166.463 34.4295 166.469 33.6256C166.497 29.767 166.483 25.9048 166.481 22.0391ZM172.05 18.0322C172.05 18.9825 172.058 19.9347 172.05 20.8904C172.05 21.3924 172.228 21.6889 172.764 21.6889C174.756 21.6889 176.755 21.8354 178.738 21.6067C180.615 21.3888 181.821 20.0419 181.862 18.2894C181.916 16.0439 180.637 14.7023 178.123 14.5505C176.374 14.4451 174.615 14.5237 172.859 14.4916C172.226 14.4809 172.025 14.7702 172.039 15.3579C172.066 16.2458 172.05 17.139 172.05 18.0322Z" fill="#F3F3F3"/>
<path d="M21.7738 43.9543H20.3447C18.9155 43.9543 18.9048 43.9544 18.9995 42.4931C19.24 38.4197 20.4768 34.4676 22.6014 30.9838C24.7259 27.5 27.6732 24.5911 31.1845 22.5124C32.0777 21.9764 32.0777 21.9336 31.1845 21.3816C23.8912 16.8489 19.8367 10.3077 19.0209 1.75806C18.8548 0.00204027 18.8655 0.000281846 20.5948 0.000281846C21.6666 0.000281846 22.7384 0.014573 23.8103 0.000281846C24.389 -0.0086501 24.6302 0.193226 24.6927 0.818462C25.5091 8.84649 29.4874 14.604 37.0081 17.7623C38.9731 18.5876 41.056 18.936 43.1658 19.1235C43.7142 19.1718 43.9804 19.3325 43.9732 19.9131C43.9536 21.2815 43.95 22.6499 43.9732 24.0218C43.9857 24.6435 43.716 24.8221 43.1229 24.8614C33.4764 25.517 26.438 31.9409 24.9017 41.4624C24.8553 41.7536 24.7892 42.0447 24.7231 42.3323C24.6088 42.8182 24.9017 43.4453 24.4909 43.7811C24.0139 44.1705 23.344 43.9115 22.7581 43.9597C22.4294 43.9723 22.1007 43.9543 21.7738 43.9543Z" fill="#F3F3F3"/>
<path d="M103.005 34.8454C102.232 34.8454 101.456 34.815 100.683 34.8454C100.051 34.8793 99.7093 34.6452 99.5003 34.0361C98.9644 32.4891 98.3499 30.9724 97.8265 29.4236C97.5835 28.7091 97.2191 28.5429 96.4938 28.6984C94.5449 29.1164 92.5852 29.4808 90.622 29.8256C88.6301 30.1739 87.2921 31.1993 86.6311 33.1786C85.9809 35.1258 86.2739 34.8096 84.2749 34.8364C83.1441 34.8507 82.0133 34.8364 80.8808 34.8364C79.6106 34.8364 79.5874 34.8024 80.0769 33.5859C82.3218 28.0136 84.5691 22.4418 86.8187 16.8707C87.7119 14.6645 88.6212 12.4672 89.4787 10.2467C89.7377 9.57327 90.0807 9.25885 90.8435 9.28743C92.3583 9.34281 93.8803 9.32142 95.3952 9.29641C95.974 9.2857 96.3241 9.46074 96.5492 10.0306C99.7147 17.9896 102.893 25.9438 106.083 33.8932C106.376 34.622 106.16 34.8704 105.411 34.8418C104.613 34.8221 103.807 34.8454 103.005 34.8454ZM93.1318 16.7028L92.8603 16.7277C91.8492 19.4145 90.8369 22.1012 89.8234 24.7879C89.5465 25.5311 90.0824 25.4328 90.4897 25.3578C91.9778 25.088 93.4569 24.7629 94.9557 24.5164C95.7453 24.386 95.8489 24.0251 95.5917 23.3445C95.1004 22.0726 94.6502 20.7847 94.1769 19.5056C93.8321 18.5695 93.4802 17.6371 93.1318 16.7028Z" fill="#F3F3F3"/>
<path d="M216.166 9.31229C217.006 9.41232 218.208 8.92462 219.024 9.52128C219.801 10.0858 219.903 11.2969 220.275 12.2312C223.133 19.3541 225.98 26.4807 228.815 33.6108C229.294 34.8112 229.273 34.8434 227.983 34.8452C226.497 34.8452 225.007 34.8201 223.517 34.8576C222.872 34.8719 222.55 34.62 222.345 34.0252C221.809 32.4799 221.202 30.9597 220.669 29.4127C220.444 28.7536 220.117 28.5428 219.419 28.6982C217.381 29.1287 215.33 29.4931 213.284 29.8825C211.443 30.2398 210.19 31.2134 209.547 33.0462C208.797 35.1899 209.226 34.8183 206.937 34.8505C205.807 34.8666 204.676 34.8612 203.543 34.8505C202.552 34.8398 202.471 34.7379 202.85 33.8162C205.283 27.7746 207.72 21.7342 210.16 15.695C210.875 13.9087 211.643 12.1223 212.304 10.3091C212.59 9.5356 213.018 9.23725 213.824 9.30513C214.544 9.3623 215.262 9.31229 216.166 9.31229ZM216.014 16.7205L215.73 16.6954C214.69 19.4626 213.645 22.2332 212.62 24.9986C212.475 25.3862 212.756 25.4648 213.068 25.4058C214.761 25.0879 216.451 24.7651 218.14 24.4376C218.52 24.3626 218.715 24.1286 218.569 23.7231C217.721 21.3889 216.869 19.0564 216.014 16.7258V16.7205Z" fill="#F3F3F3"/>
<path d="M53.9766 22.1553C53.9766 14.2595 60.2289 8.48762 68.1337 9.02711C71.1991 9.23612 73.9555 10.1204 76.3261 12.1318C76.9763 12.6838 77.1317 13.1126 76.4636 13.7789C75.6932 14.5651 74.9691 15.3954 74.295 16.2656C73.8108 16.8765 73.4321 16.9801 72.798 16.4156C71.623 15.3469 70.1737 14.6263 68.6124 14.3345C64.1679 13.5395 60.2718 16.5603 59.8824 21.1049C59.7555 22.5768 59.8824 24.0202 60.4629 25.3922C62.1957 29.5205 66.6706 31.1873 70.7097 29.2151C71.5958 28.7872 72.4149 28.2323 73.1409 27.568C73.6304 27.1161 73.9788 27.1858 74.4057 27.6485C75.1524 28.4577 75.9188 29.2562 76.728 29.9993C77.2639 30.4906 77.18 30.8318 76.7066 31.3141C73.6912 34.3832 69.9683 35.4943 65.7953 35.1298C58.8337 34.5278 53.9801 29.1365 53.9766 22.1553Z" fill="#F3F3F3"/>
<path d="M0.00719697 21.9599C0.00719697 21.4847 0.00719697 21.0078 0.00719697 20.5308C0.00719697 19.1195 0.00720262 19.1017 1.52027 18.9748C3.95792 18.7689 6.33183 18.0886 8.50863 16.9723C11.4387 15.4771 13.9364 13.2555 15.7632 10.5199C15.9204 10.2876 15.999 9.87504 16.3455 9.92506C16.6153 9.96258 16.6367 10.3412 16.7349 10.5824C17.2905 11.9651 17.8872 13.3335 18.7 14.5786C19.2073 15.3539 19.0715 15.8666 18.4677 16.5097C16.7177 18.4207 14.703 20.0714 12.4851 21.4115C11.6205 21.9224 11.6205 21.9563 12.4726 22.4655C14.8002 23.857 16.8974 25.6017 18.6893 27.6371C19.1519 28.1587 19.1412 28.5713 18.7911 29.1341C18.0019 30.4299 17.3259 31.7915 16.7707 33.2035C16.6635 33.4679 16.6474 33.877 16.3276 33.9181C16.0079 33.9591 15.8971 33.5608 15.7381 33.3268C12.8799 29.1841 9.02667 26.4848 4.12661 25.3094C3.08719 25.0489 2.02314 24.8992 0.952204 24.8628C0.189416 24.8449 -0.0320962 24.5163 0.00363161 23.825C0.0340002 23.2104 0.00898336 22.5851 0.00719697 21.9599Z" fill="#F3F3F3"/>
<path d="M198.632 22.1692C198.632 25.9468 198.632 29.7244 198.632 33.502C198.632 34.6471 198.552 34.7256 197.424 34.7364C196.353 34.7453 195.281 34.6953 194.209 34.7507C193.316 34.7971 192.976 34.4702 193.001 33.5735C193.046 31.9389 193.012 30.3025 193.012 28.6662C193.012 22.7485 193.012 16.8296 193.012 10.9095C193.012 9.48041 193.03 9.46793 194.454 9.46436C195.375 9.46436 196.297 9.46436 197.219 9.46436C198.623 9.46436 198.628 9.46434 198.628 10.8381C198.633 14.6145 198.634 18.3916 198.632 22.1692Z" fill="#F3F3F3"/>
<path d="M115.297 18.7945L115.35 18.7427L115.418 18.7766C115.379 18.787 115.338 18.7931 115.297 18.7945Z" fill="#F3F3F3"/>
</svg>
