<svg width="40" height="60" viewBox="0 0 100 100" fill="none" xmlns="http://www.w3.org/2000/svg">
<circle cx="50" cy="50" r="46" stroke="#EFEFEF" stroke-width="8"/>
<mask id="path-2-inside-1_1_22385" fill="white">
<path d="M10.251 80.3318C15.4152 87.0994 22.2219 92.4364 30.0261 95.8371C37.8302 99.2379 46.3735 100.59 54.8463 99.7646C63.3192 98.9395 71.441 95.9647 78.4424 91.1221C85.4438 86.2795 91.0929 79.7295 94.8543 72.0927C98.6158 64.4559 100.365 55.9851 99.9366 47.483C99.5081 38.9808 96.9158 30.7289 92.4055 23.509C87.8952 16.2891 81.6161 10.3403 74.1633 6.22631C66.7104 2.1123 58.3306 -0.0307043 49.8177 0.0003323L49.8455 7.62814C57.0597 7.60184 64.1611 9.41791 70.477 12.9043C76.7929 16.3907 82.114 21.4319 85.9362 27.5504C89.7585 33.6688 91.9552 40.6619 92.3184 47.8669C92.6816 55.072 91.1991 62.2505 88.0115 68.7223C84.8239 75.1941 80.0366 80.7448 74.1033 84.8486C68.1701 88.9524 61.2872 91.4734 54.107 92.1726C46.9267 92.8719 39.6868 91.7263 33.0732 88.8443C26.4596 85.9624 20.6914 81.4396 16.315 75.7044L10.251 80.3318Z"/>
</mask>
<path d="M10.251 80.3318C15.4152 87.0994 22.2219 92.4364 30.0261 95.8371C37.8302 99.2379 46.3735 100.59 54.8463 99.7646C63.3192 98.9395 71.441 95.9647 78.4424 91.1221C85.4438 86.2795 91.0929 79.7295 94.8543 72.0927C98.6158 64.4559 100.365 55.9851 99.9366 47.483C99.5081 38.9808 96.9158 30.7289 92.4055 23.509C87.8952 16.2891 81.6161 10.3403 74.1633 6.22631C66.7104 2.1123 58.3306 -0.0307043 49.8177 0.0003323L49.8455 7.62814C57.0597 7.60184 64.1611 9.41791 70.477 12.9043C76.7929 16.3907 82.114 21.4319 85.9362 27.5504C89.7585 33.6688 91.9552 40.6619 92.3184 47.8669C92.6816 55.072 91.1991 62.2505 88.0115 68.7223C84.8239 75.1941 80.0366 80.7448 74.1033 84.8486C68.1701 88.9524 61.2872 91.4734 54.107 92.1726C46.9267 92.8719 39.6868 91.7263 33.0732 88.8443C26.4596 85.9624 20.6914 81.4396 16.315 75.7044L10.251 80.3318Z" stroke="#A3DC2F" stroke-width="12" stroke-linejoin="bevel" mask="url(#path-2-inside-1_1_22385)"/>
<path d="M38.4105 55.1591C37.5961 55.1591 36.8764 55.0189 36.2514 54.7386C35.6302 54.4583 35.1435 54.072 34.7912 53.5795C34.4389 53.0871 34.2647 52.5265 34.2685 51.8977C34.2647 51.4053 34.3651 50.9527 34.5696 50.5398C34.7779 50.1231 35.0601 49.7765 35.4162 49.5C35.7723 49.2197 36.17 49.0417 36.6094 48.9659V48.8977C36.0298 48.7576 35.5658 48.447 35.2173 47.9659C34.8688 47.4848 34.6965 46.9318 34.7003 46.3068C34.6965 45.7121 34.8537 45.1818 35.1719 44.7159C35.4938 44.2462 35.9351 43.8769 36.4957 43.608C37.0563 43.339 37.6946 43.2045 38.4105 43.2045C39.1188 43.2045 39.7514 43.3409 40.3082 43.6136C40.8688 43.8826 41.3101 44.2519 41.6321 44.7216C41.9541 45.1875 42.117 45.7159 42.1207 46.3068C42.117 46.9318 41.9389 47.4848 41.5866 47.9659C41.2344 48.447 40.776 48.7576 40.2116 48.8977V48.9659C40.6473 49.0417 41.0393 49.2197 41.3878 49.5C41.7401 49.7765 42.0204 50.1231 42.2287 50.5398C42.4408 50.9527 42.5488 51.4053 42.5526 51.8977C42.5488 52.5265 42.3707 53.0871 42.0185 53.5795C41.6662 54.072 41.1776 54.4583 40.5526 54.7386C39.9313 55.0189 39.2173 55.1591 38.4105 55.1591ZM38.4105 53.7216C38.8916 53.7216 39.3082 53.642 39.6605 53.483C40.0128 53.3201 40.2855 53.0947 40.4787 52.8068C40.6719 52.5152 40.7704 52.1742 40.7741 51.7841C40.7704 51.3788 40.6643 51.0208 40.456 50.7102C40.2514 50.3996 39.973 50.1553 39.6207 49.9773C39.2685 49.7992 38.8651 49.7102 38.4105 49.7102C37.9522 49.7102 37.545 49.7992 37.1889 49.9773C36.8329 50.1553 36.5526 50.3996 36.348 50.7102C36.1435 51.0208 36.0431 51.3788 36.0469 51.7841C36.0431 52.1742 36.1359 52.5152 36.3253 52.8068C36.5185 53.0947 36.7931 53.3201 37.1491 53.483C37.5052 53.642 37.9257 53.7216 38.4105 53.7216ZM38.4105 48.3068C38.7969 48.3068 39.1397 48.2292 39.4389 48.0739C39.7382 47.9186 39.973 47.7027 40.1435 47.4261C40.3177 47.1496 40.4067 46.8258 40.4105 46.4545C40.4067 46.0909 40.3196 45.7727 40.1491 45.5C39.9825 45.2273 39.7495 45.017 39.4503 44.8693C39.151 44.7178 38.8045 44.642 38.4105 44.642C38.009 44.642 37.6567 44.7178 37.3537 44.8693C37.0545 45.017 36.8215 45.2273 36.6548 45.5C36.4882 45.7727 36.4067 46.0909 36.4105 46.4545C36.4067 46.8258 36.4901 47.1496 36.6605 47.4261C36.831 47.7027 37.0658 47.9186 37.3651 48.0739C37.6681 48.2292 38.0166 48.3068 38.4105 48.3068ZM48.429 55.1591C47.7169 55.1591 47.0767 55.0227 46.5085 54.75C45.9441 54.4735 45.4934 54.0947 45.1562 53.6136C44.8191 53.1326 44.6392 52.5833 44.6165 51.9659H46.321C46.3627 52.4659 46.5843 52.8769 46.9858 53.1989C47.3873 53.5208 47.8684 53.6818 48.429 53.6818C48.8759 53.6818 49.2718 53.5795 49.6165 53.375C49.965 53.1667 50.2377 52.8807 50.4347 52.517C50.6354 52.1534 50.7358 51.7386 50.7358 51.2727C50.7358 50.7992 50.6335 50.3769 50.429 50.0057C50.2244 49.6345 49.9422 49.3428 49.5824 49.1307C49.2263 48.9186 48.8172 48.8106 48.3551 48.8068C48.0028 48.8068 47.6487 48.8674 47.2926 48.9886C46.9366 49.1098 46.6487 49.2689 46.429 49.4659L44.821 49.2273L45.4744 43.3636H51.8722V44.8693H46.9347L46.5653 48.125H46.6335C46.8608 47.9053 47.1619 47.7216 47.5369 47.5739C47.9157 47.4261 48.321 47.3523 48.7528 47.3523C49.4612 47.3523 50.0919 47.5208 50.6449 47.858C51.2017 48.1951 51.6392 48.6553 51.9574 49.2386C52.2794 49.8182 52.4384 50.4848 52.4347 51.2386C52.4384 51.9924 52.268 52.6648 51.9233 53.2557C51.5824 53.8466 51.1089 54.3125 50.5028 54.6534C49.9006 54.9905 49.2093 55.1591 48.429 55.1591ZM60.5838 52.8182V52.2045C60.5838 51.7652 60.6747 51.3636 60.8565 51C61.0421 50.6326 61.3111 50.339 61.6634 50.1193C62.0194 49.8958 62.4493 49.7841 62.9531 49.7841C63.4683 49.7841 63.9001 49.8939 64.2486 50.1136C64.5971 50.3333 64.8603 50.6269 65.0384 50.9943C65.2202 51.3617 65.3111 51.7652 65.3111 52.2045V52.8182C65.3111 53.2576 65.2202 53.661 65.0384 54.0284C64.8565 54.392 64.5895 54.6856 64.2372 54.9091C63.8887 55.1288 63.4607 55.2386 62.9531 55.2386C62.4418 55.2386 62.0099 55.1288 61.6577 54.9091C61.3054 54.6856 61.0384 54.392 60.8565 54.0284C60.6747 53.661 60.5838 53.2576 60.5838 52.8182ZM61.9077 52.2045V52.8182C61.9077 53.1439 61.9853 53.4394 62.1406 53.7045C62.2959 53.9697 62.5668 54.1023 62.9531 54.1023C63.3357 54.1023 63.6027 53.9697 63.7543 53.7045C63.9058 53.4394 63.9815 53.1439 63.9815 52.8182V52.2045C63.9815 51.8788 63.9077 51.5833 63.7599 51.3182C63.616 51.053 63.3471 50.9205 62.9531 50.9205C62.5743 50.9205 62.3054 51.053 62.1463 51.3182C61.9872 51.5833 61.9077 51.8788 61.9077 52.2045ZM54.7315 46.1591V45.5455C54.7315 45.1061 54.8224 44.7027 55.0043 44.3352C55.1899 43.9678 55.4588 43.6742 55.8111 43.4545C56.1671 43.2348 56.5971 43.125 57.1009 43.125C57.616 43.125 58.0478 43.2348 58.3963 43.4545C58.7448 43.6742 59.008 43.9678 59.1861 44.3352C59.3641 44.7027 59.4531 45.1061 59.4531 45.5455V46.1591C59.4531 46.5985 59.3622 47.0019 59.1804 47.3693C59.0024 47.733 58.7372 48.0265 58.3849 48.25C58.0365 48.4697 57.6084 48.5795 57.1009 48.5795C56.5857 48.5795 56.152 48.4697 55.7997 48.25C55.4512 48.0265 55.1861 47.733 55.0043 47.3693C54.8224 47.0019 54.7315 46.5985 54.7315 46.1591ZM56.0611 45.5455V46.1591C56.0611 46.4848 56.1368 46.7803 56.2884 47.0455C56.4437 47.3106 56.7145 47.4432 57.1009 47.4432C57.4796 47.4432 57.7448 47.3106 57.8963 47.0455C58.0516 46.7803 58.1293 46.4848 58.1293 46.1591V45.5455C58.1293 45.2197 58.0554 44.9242 57.9077 44.6591C57.7599 44.3939 57.491 44.2614 57.1009 44.2614C56.7221 44.2614 56.4531 44.3939 56.294 44.6591C56.1387 44.9242 56.0611 45.2197 56.0611 45.5455ZM55.2713 55L63.2713 43.3636H64.6293L56.6293 55H55.2713Z" fill="black"/>
</svg>
