<svg width="246" height="44" viewBox="0 0 246 44" fill="none" xmlns="http://www.w3.org/2000/svg">
<path d="M127.96 33.8593H119.548V32.3617C119.548 28.5137 119.562 24.6599 119.548 20.8148C119.537 20.0582 119.46 19.3041 119.316 18.5612C119.031 16.9895 118.215 15.8057 116.521 15.5661C114.781 15.3208 113.098 15.8514 112.413 17.4402C111.628 19.2488 111.156 21.1781 111.019 23.1452C110.805 26.6453 110.959 30.1682 110.959 33.808H102.509C102.509 32.8552 102.509 31.9167 102.509 30.9782C102.487 27.1787 102.529 23.3763 102.413 19.5682C102.335 17.0352 101.086 15.5747 99.1007 15.4919C97.4149 15.4263 95.9259 16.0938 95.2356 17.657C94.5931 19.0193 94.2064 20.488 94.0946 21.99C93.9406 25.8751 94.0432 29.7745 94.0432 33.7937H85.6797V9.11376H93.1647V13.1929L93.4499 13.4296C95.4182 10.1606 98.3334 8.61457 101.99 8.46338C105.719 8.3122 108.645 9.67568 110.394 13.2242C113.409 8.77429 117.571 7.88715 122.374 8.79139C124.973 9.28203 126.545 10.9393 127.323 13.3554C127.685 14.3871 127.891 15.4666 127.937 16.5588C127.991 22.2809 127.96 27.9831 127.96 33.8593Z" fill="#EFEFEF"/>
<path d="M141.988 43.9998H133.57V9.03087C135.941 9.03087 138.294 9.00232 140.642 9.07649C140.878 9.07649 141.255 9.70974 141.286 10.072C141.375 11.0961 141.318 12.1344 141.463 13.2555C142.961 10.905 145.04 9.54719 147.656 8.83407C152.174 7.62175 156.542 9.19345 159.109 13.0757C162.603 18.3586 161.941 26.7678 158.048 31.1863C154.431 35.2968 145.782 36.0356 141.988 30.7499V43.9998ZM152.907 21.5049C152.505 20.1385 152.311 18.738 151.701 17.5542C149.924 14.0856 145.092 13.9999 143.081 17.3459C141.506 19.9702 141.537 22.6915 142.955 25.3329C143.859 27.0216 145.331 28.0315 147.339 28.0115C149.256 27.9915 150.782 27.1415 151.618 25.4442C152.217 24.2519 152.474 22.8827 152.907 21.5049Z" fill="#EFEFEF"/>
<path d="M29.0105 1.71444L28.3259 8.42919C26.4005 7.8159 24.6177 7.07144 22.7521 6.69491C19.1893 5.97608 15.735 6.30123 12.7969 8.72586C9.37386 11.5498 8.1159 16.7386 9.68193 21.2113C10.3881 23.2232 11.7127 24.9601 13.466 26.1734C15.2193 27.3867 17.3116 28.0142 19.4432 27.9661C21.8279 27.9347 24.2098 27.3442 26.5888 26.9677C27.2786 26.8208 27.9603 26.6379 28.6312 26.42C28.7709 28.5223 28.9392 30.4934 28.9963 32.4673C28.9963 32.7525 28.5484 33.2774 28.2232 33.3602C21.9163 34.9861 15.638 35.1458 9.53931 32.5044C3.66314 29.9714 0.616655 25.3218 0.0889402 19.0434C-0.307559 14.3168 0.573868 9.87257 3.70022 6.09015C6.51565 2.6814 10.2867 1.08119 14.5198 0.3595C19.3862 -0.45917 24.1384 0.174087 29.0105 1.71444Z" fill="#EFEFEF"/>
<path d="M67.4051 34.5843C62.2277 34.3276 58.1658 33.2779 55.1136 29.8207C50.0846 24.1156 50.8548 11.4818 62.3846 8.9488C66.7176 7.99606 71.0049 8.22997 74.9556 10.4492C79.7678 13.1534 81.5164 17.5805 81.1171 22.8206C80.6892 28.3117 77.5229 31.8916 72.357 33.5974C70.5428 34.1993 68.5803 34.3618 67.4051 34.5843ZM60.7616 21.1775C61.0668 22.6038 61.2094 23.8817 61.6173 25.0712C62.4331 27.3789 64.3643 28.6283 66.7518 28.5969C67.8519 28.5895 68.9226 28.2417 69.817 27.6012C70.7113 26.9607 71.3854 26.0589 71.7466 25.0199C72.6675 22.5947 72.5999 19.905 71.5583 17.5292C70.7026 15.5067 69.011 14.4227 66.883 14.3514C64.6638 14.2773 62.7355 15.1217 61.8341 17.3381C61.3549 18.5903 61.1295 19.9567 60.773 21.189L60.7616 21.1775Z" fill="#EFEFEF"/>
<path d="M201.647 34.6041C195.887 34.3189 191.64 33.252 188.574 29.4696C183.984 23.8074 184.76 11.8554 195.468 9.13696C200.568 7.84192 205.48 8.19277 209.905 11.2678C213.824 13.9891 215.182 18.0111 214.857 22.5837C214.503 27.5299 212.118 31.2639 207.395 33.0952C205.221 33.9367 202.859 34.296 201.647 34.6041ZM194.564 21.1032C194.849 22.481 194.96 23.719 195.331 24.8771C196.093 27.2703 198.035 28.6168 200.466 28.6082C201.592 28.6191 202.693 28.2731 203.611 27.6198C204.529 26.9664 205.216 26.0393 205.575 24.9712C206.391 22.6669 206.367 20.1481 205.506 17.8599C204.685 15.6635 202.965 14.4369 200.628 14.3484C198.346 14.2572 196.429 15.3839 195.548 17.5347C195.072 18.6957 194.866 19.9708 194.564 21.1032Z" fill="#EFEFEF"/>
<path d="M227.82 33.848H219.402C219.37 33.3574 219.311 32.8611 219.308 32.3619C219.308 25.0908 219.339 17.8141 219.273 10.5516C219.273 9.24228 219.701 8.93421 220.908 8.98556C222.888 9.07398 224.876 9.01118 227.001 9.01118V13.25C228.373 11.3874 229.982 10.0011 232.07 9.20521C239.141 6.50958 245 10.1836 245.739 17.7627C245.776 18.1393 245.773 18.5215 245.773 18.9037C245.773 23.8386 245.773 28.7762 245.773 33.8195H237.33C237.33 33.249 237.33 32.7042 237.33 32.1536C237.256 27.9747 237.301 23.7929 237.045 19.6254C236.893 17.0267 235.536 15.6832 233.527 15.4607C232.428 15.342 231.322 15.6107 230.4 16.2205C229.477 16.8304 228.797 17.743 228.476 18.801C228.08 20.0161 227.864 21.2829 227.837 22.5606C227.768 26.2717 227.82 29.9772 227.82 33.848Z" fill="#EFEFEF"/>
<path d="M163.56 14.8816C163.56 13.0275 163.509 11.4186 163.609 9.81838C163.629 9.53313 164.253 9.07674 164.624 9.04822C165.891 8.95123 167.166 9.0111 168.618 9.0111C168.618 7.46219 168.675 6.05025 168.595 4.64681C168.543 3.7169 168.88 3.31753 169.761 3.06651C172.115 2.39047 174.44 1.61169 176.97 0.812988V8.95406H182.96V14.8816C181.48 14.8816 179.979 14.9329 178.487 14.8645C177.418 14.816 176.961 15.087 177.001 16.2907C177.095 19.0405 177.001 21.7989 177.058 24.563C177.115 28.257 178.502 29.3838 182.193 28.8133C182.421 28.7762 182.652 28.7562 183.131 28.6963V34.0761C179.777 34.6466 176.239 35.026 172.796 33.7709C169.756 32.6613 168.729 30.0627 168.635 27.0875C168.523 23.5304 168.549 19.9562 168.612 16.402C168.635 15.1868 168.204 14.8074 167.052 14.8873C165.959 14.9415 164.869 14.8816 163.56 14.8816Z" fill="#EFEFEF"/>
<path d="M41.3473 33.8594C40.8168 33.8936 40.4916 33.9335 40.1692 33.9335C37.8016 33.9335 35.4312 33.9335 32.9609 33.9335V9.03397C35.2971 9.03397 37.6533 9.00827 40.0038 9.08244C40.2206 9.08244 40.56 9.74997 40.5914 10.1265C40.6741 11.1334 40.6199 12.1518 40.7797 13.2471C43.0389 9.09388 46.4134 7.75318 51.0173 8.80575C50.8861 11.0649 50.7549 13.3099 50.618 15.6689C49.9847 15.6261 49.477 15.6176 48.9664 15.552C44.9729 15.0414 41.9692 17.1779 41.5898 21.1999C41.2703 24.5887 41.4072 28.0203 41.3473 31.4347C41.3359 32.1935 41.3473 32.9494 41.3473 33.8594Z" fill="#EFEFEF"/>
</svg>
