<svg width="774" height="300" viewBox="0 0 774 329" fill="none" xmlns="http://www.w3.org/2000/svg">
<path d="M1 44.593C1 44.593 24.6236 167.892 92.9125 131.32C107.914 123.037 119.627 110.189 126.205 94.8004C140.16 63.0904 177.793 -6.30143 237.072 1.62605C313.602 11.8789 379.528 146.858 379.528 146.858C379.528 146.858 411.448 263.497 496.493 195.955C496.493 195.955 545.444 142.788 579.451 163.241C613.458 183.694 634.774 130.527 634.774 130.527C634.774 130.527 687.9 -31.0881 773 42.5318" stroke="#A3DC2F" stroke-width="2" stroke-miterlimit="10"/>
<path d="M773 42.2884C687.9 -30.9 634.774 129.768 634.774 129.768C634.774 129.768 613.513 182.623 579.451 162.29C545.389 141.957 496.493 194.813 496.493 194.813C411.448 261.959 379.528 146.003 379.528 146.003C379.528 146.003 313.602 11.8152 237.072 1.62238C177.793 -6.25864 140.16 62.7266 126.205 94.2507C119.627 109.55 107.914 122.322 92.9125 130.556C24.6236 166.914 1 44.3375 1 44.3375V329H773V42.2884Z" fill="url(#paint0_linear_1_22328)"/>
<path d="M339.436 72C339.436 75.9001 336.395 79 332.718 79C329.041 79 326 75.9001 326 72C326 68.0999 329.041 65 332.718 65C336.395 65 339.436 68.0999 339.436 72Z" fill="white" stroke="#A3DC2F" stroke-width="2"/>
<defs>
<linearGradient id="paint0_linear_1_22328" x1="387" y1="-130" x2="387" y2="238.405" gradientUnits="userSpaceOnUse">
<stop stop-color="#A3DC2F" stop-opacity="0.4"/>
<stop offset="1" stop-color="#A3DC2F" stop-opacity="0"/>
</linearGradient>
</defs>
</svg>
