<svg width="27" height="230" viewBox="0 0 27 230" fill="none" xmlns="http://www.w3.org/2000/svg">
<path d="M2.88636 8.09943C2.58807 8.0947 2.28977 8.03788 1.99148 7.92898C1.69318 7.82008 1.42093 7.6366 1.17472 7.37855C0.928504 7.11813 0.730824 6.76657 0.581676 6.32386C0.432528 5.87879 0.357955 5.32008 0.357955 4.64773C0.357955 4.00379 0.418324 3.43324 0.539062 2.93608C0.659801 2.43655 0.834991 2.01634 1.06463 1.67543C1.29427 1.33215 1.57126 1.07173 1.8956 0.894176C2.2223 0.716619 2.59044 0.627841 3 0.627841C3.4072 0.627841 3.76941 0.709517 4.08665 0.872869C4.40625 1.03385 4.66667 1.25876 4.8679 1.54759C5.06913 1.83641 5.19934 2.16903 5.25852 2.54545H4.39205C4.31155 2.21875 4.1553 1.94768 3.9233 1.73224C3.69129 1.51681 3.38352 1.40909 3 1.40909C2.43655 1.40909 1.99266 1.65412 1.66832 2.14418C1.34635 2.63423 1.18419 3.32197 1.18182 4.20739H1.23864C1.37121 4.00616 1.52865 3.83452 1.71094 3.69247C1.8956 3.54806 2.0992 3.43679 2.32173 3.35866C2.54427 3.28054 2.77983 3.24148 3.02841 3.24148C3.44508 3.24148 3.82623 3.34564 4.17188 3.55398C4.51752 3.75994 4.79451 4.04522 5.00284 4.4098C5.21117 4.77202 5.31534 5.1875 5.31534 5.65625C5.31534 6.10606 5.21473 6.51799 5.01349 6.89205C4.81226 7.26373 4.52936 7.55966 4.16477 7.77983C3.80256 7.99763 3.37642 8.10417 2.88636 8.09943ZM2.88636 7.31818C3.18466 7.31818 3.45218 7.24361 3.68892 7.09446C3.92803 6.94531 4.11624 6.74527 4.25355 6.49432C4.39323 6.24337 4.46307 5.96402 4.46307 5.65625C4.46307 5.35559 4.3956 5.08215 4.26065 4.83594C4.12808 4.58736 3.9446 4.38968 3.71023 4.2429C3.47822 4.09612 3.21307 4.02273 2.91477 4.02273C2.68987 4.02273 2.48035 4.06771 2.28622 4.15767C2.09209 4.24527 1.92164 4.366 1.77486 4.51989C1.63045 4.67377 1.51681 4.85014 1.43395 5.04901C1.35109 5.2455 1.30966 5.45265 1.30966 5.67045C1.30966 5.95928 1.37713 6.22917 1.51207 6.48011C1.64938 6.73106 1.83641 6.93348 2.07315 7.08736C2.31226 7.24124 2.58333 7.31818 2.88636 7.31818ZM7.63423 7.00568L7.57741 7.3892C7.53717 7.65909 7.47562 7.94792 7.39276 8.25568C7.31226 8.56345 7.22822 8.85346 7.14062 9.12571C7.05303 9.39796 6.98082 9.61458 6.92401 9.77557H6.2848C6.31558 9.62405 6.35582 9.42401 6.40554 9.17543C6.45526 8.92685 6.50497 8.64867 6.55469 8.34091C6.60677 8.03551 6.64938 7.72301 6.68253 7.40341L6.72514 7.00568H7.63423ZM11.291 8.09943C10.756 8.09943 10.3002 7.95384 9.92383 7.66264C9.54741 7.36908 9.25977 6.94413 9.0609 6.38778C8.86204 5.82907 8.76261 5.15436 8.76261 4.36364C8.76261 3.57765 8.86204 2.90649 9.0609 2.35014C9.26213 1.79143 9.55096 1.36529 9.92738 1.07173C10.3062 0.775805 10.7607 0.627841 11.291 0.627841C11.8213 0.627841 12.2747 0.775805 12.6511 1.07173C13.0299 1.36529 13.3187 1.79143 13.5176 2.35014C13.7188 2.90649 13.8194 3.57765 13.8194 4.36364C13.8194 5.15436 13.72 5.82907 13.5211 6.38778C13.3223 6.94413 13.0346 7.36908 12.6582 7.66264C12.2818 7.95384 11.8261 8.09943 11.291 8.09943ZM11.291 7.31818C11.8213 7.31818 12.2333 7.0625 12.5268 6.55114C12.8204 6.03977 12.9672 5.31061 12.9672 4.36364C12.9672 3.7339 12.8997 3.19768 12.7647 2.75497C12.6322 2.31226 12.4404 1.97491 12.1895 1.7429C11.9409 1.51089 11.6414 1.39489 11.291 1.39489C10.7654 1.39489 10.3547 1.65412 10.0588 2.17259C9.76284 2.68868 9.61488 3.41903 9.61488 4.36364C9.61488 4.99337 9.68117 5.52841 9.81374 5.96875C9.94632 6.40909 10.1369 6.74408 10.3855 6.97372C10.6364 7.20336 10.9383 7.31818 11.291 7.31818ZM17.541 8.09943C17.006 8.09943 16.5502 7.95384 16.1738 7.66264C15.7974 7.36908 15.5098 6.94413 15.3109 6.38778C15.112 5.82907 15.0126 5.15436 15.0126 4.36364C15.0126 3.57765 15.112 2.90649 15.3109 2.35014C15.5121 1.79143 15.801 1.36529 16.1774 1.07173C16.5562 0.775805 17.0107 0.627841 17.541 0.627841C18.0713 0.627841 18.5247 0.775805 18.9011 1.07173C19.2799 1.36529 19.5687 1.79143 19.7676 2.35014C19.9688 2.90649 20.0694 3.57765 20.0694 4.36364C20.0694 5.15436 19.97 5.82907 19.7711 6.38778C19.5723 6.94413 19.2846 7.36908 18.9082 7.66264C18.5318 7.95384 18.0761 8.09943 17.541 8.09943ZM17.541 7.31818C18.0713 7.31818 18.4833 7.0625 18.7768 6.55114C19.0704 6.03977 19.2172 5.31061 19.2172 4.36364C19.2172 3.7339 19.1497 3.19768 19.0147 2.75497C18.8822 2.31226 18.6904 1.97491 18.4395 1.7429C18.1909 1.51089 17.8914 1.39489 17.541 1.39489C17.0154 1.39489 16.6047 1.65412 16.3088 2.17259C16.0128 2.68868 15.8649 3.41903 15.8649 4.36364C15.8649 4.99337 15.9312 5.52841 16.0637 5.96875C16.1963 6.40909 16.3869 6.74408 16.6355 6.97372C16.8864 7.20336 17.1883 7.31818 17.541 7.31818ZM23.791 8.09943C23.256 8.09943 22.8002 7.95384 22.4238 7.66264C22.0474 7.36908 21.7598 6.94413 21.5609 6.38778C21.362 5.82907 21.2626 5.15436 21.2626 4.36364C21.2626 3.57765 21.362 2.90649 21.5609 2.35014C21.7621 1.79143 22.051 1.36529 22.4274 1.07173C22.8062 0.775805 23.2607 0.627841 23.791 0.627841C24.3213 0.627841 24.7747 0.775805 25.1511 1.07173C25.5299 1.36529 25.8187 1.79143 26.0176 2.35014C26.2188 2.90649 26.3194 3.57765 26.3194 4.36364C26.3194 5.15436 26.22 5.82907 26.0211 6.38778C25.8223 6.94413 25.5346 7.36908 25.1582 7.66264C24.7818 7.95384 24.3261 8.09943 23.791 8.09943ZM23.791 7.31818C24.3213 7.31818 24.7333 7.0625 25.0268 6.55114C25.3204 6.03977 25.4672 5.31061 25.4672 4.36364C25.4672 3.7339 25.3997 3.19768 25.2647 2.75497C25.1322 2.31226 24.9404 1.97491 24.6895 1.7429C24.4409 1.51089 24.1414 1.39489 23.791 1.39489C23.2654 1.39489 22.8547 1.65412 22.5588 2.17259C22.2628 2.68868 22.1149 3.41903 22.1149 4.36364C22.1149 4.99337 22.1812 5.52841 22.3137 5.96875C22.4463 6.40909 22.6369 6.74408 22.8855 6.97372C23.1364 7.20336 23.4383 7.31818 23.791 7.31818ZM2.74432 52.0994C2.32765 52.0994 1.95241 52.0166 1.61861 51.8509C1.2848 51.6851 1.01728 51.4579 0.816051 51.169C0.61482 50.8802 0.504735 50.5511 0.485795 50.1818H1.33807C1.37121 50.5109 1.52036 50.7831 1.78551 50.9986C2.05303 51.2116 2.37263 51.3182 2.74432 51.3182C3.04261 51.3182 3.30777 51.2483 3.53977 51.1087C3.77415 50.969 3.95762 50.7772 4.0902 50.5334C4.22514 50.2872 4.29261 50.009 4.29261 49.6989C4.29261 49.3816 4.22277 49.0987 4.0831 48.8501C3.94579 48.5992 3.75639 48.4015 3.51491 48.2571C3.27344 48.1127 2.99763 48.0393 2.6875 48.0369C2.46496 48.0346 2.23651 48.0689 2.00213 48.1399C1.76776 48.2086 1.57481 48.2973 1.4233 48.4062L0.599432 48.3068L1.03977 44.7273H4.81818V45.5085H1.77841L1.52273 47.6534H1.56534C1.71449 47.535 1.90152 47.4368 2.12642 47.3587C2.35133 47.2805 2.5857 47.2415 2.82955 47.2415C3.27462 47.2415 3.67116 47.348 4.01918 47.5611C4.36955 47.7718 4.64418 48.0606 4.84304 48.4276C5.04427 48.7945 5.14489 49.2135 5.14489 49.6847C5.14489 50.1487 5.04072 50.563 4.83239 50.9276C4.62642 51.2898 4.34233 51.5762 3.98011 51.7869C3.6179 51.9953 3.20597 52.0994 2.74432 52.0994ZM7.54634 51.0057L7.48952 51.3892C7.44928 51.6591 7.38772 51.9479 7.30487 52.2557C7.22437 52.5634 7.14033 52.8535 7.05273 53.1257C6.96514 53.398 6.89293 53.6146 6.83612 53.7756H6.19691C6.22769 53.6241 6.26793 53.424 6.31765 53.1754C6.36737 52.9268 6.41708 52.6487 6.4668 52.3409C6.51888 52.0355 6.56149 51.723 6.59464 51.4034L6.63725 51.0057H7.54634ZM11.2031 52.0994C10.6681 52.0994 10.2124 51.9538 9.83594 51.6626C9.45952 51.3691 9.17188 50.9441 8.97301 50.3878C8.77415 49.8291 8.67472 49.1544 8.67472 48.3636C8.67472 47.5777 8.77415 46.9065 8.97301 46.3501C9.17424 45.7914 9.46307 45.3653 9.83949 45.0717C10.2183 44.7758 10.6728 44.6278 11.2031 44.6278C11.7334 44.6278 12.1868 44.7758 12.5632 45.0717C12.942 45.3653 13.2308 45.7914 13.4297 46.3501C13.6309 46.9065 13.7315 47.5777 13.7315 48.3636C13.7315 49.1544 13.6321 49.8291 13.4332 50.3878C13.2344 50.9441 12.9467 51.3691 12.5703 51.6626C12.1939 51.9538 11.7382 52.0994 11.2031 52.0994ZM11.2031 51.3182C11.7334 51.3182 12.1454 51.0625 12.4389 50.5511C12.7325 50.0398 12.8793 49.3106 12.8793 48.3636C12.8793 47.7339 12.8118 47.1977 12.6768 46.755C12.5443 46.3123 12.3525 45.9749 12.1016 45.7429C11.853 45.5109 11.5535 45.3949 11.2031 45.3949C10.6776 45.3949 10.2668 45.6541 9.97088 46.1726C9.67495 46.6887 9.52699 47.419 9.52699 48.3636C9.52699 48.9934 9.59328 49.5284 9.72585 49.9688C9.85843 50.4091 10.049 50.7441 10.2976 50.9737C10.5485 51.2034 10.8504 51.3182 11.2031 51.3182ZM17.4531 52.0994C16.9181 52.0994 16.4624 51.9538 16.0859 51.6626C15.7095 51.3691 15.4219 50.9441 15.223 50.3878C15.0241 49.8291 14.9247 49.1544 14.9247 48.3636C14.9247 47.5777 15.0241 46.9065 15.223 46.3501C15.4242 45.7914 15.7131 45.3653 16.0895 45.0717C16.4683 44.7758 16.9228 44.6278 17.4531 44.6278C17.9834 44.6278 18.4368 44.7758 18.8132 45.0717C19.192 45.3653 19.4808 45.7914 19.6797 46.3501C19.8809 46.9065 19.9815 47.5777 19.9815 48.3636C19.9815 49.1544 19.8821 49.8291 19.6832 50.3878C19.4844 50.9441 19.1967 51.3691 18.8203 51.6626C18.4439 51.9538 17.9882 52.0994 17.4531 52.0994ZM17.4531 51.3182C17.9834 51.3182 18.3954 51.0625 18.6889 50.5511C18.9825 50.0398 19.1293 49.3106 19.1293 48.3636C19.1293 47.7339 19.0618 47.1977 18.9268 46.755C18.7943 46.3123 18.6025 45.9749 18.3516 45.7429C18.103 45.5109 17.8035 45.3949 17.4531 45.3949C16.9276 45.3949 16.5168 45.6541 16.2209 46.1726C15.925 46.6887 15.777 47.419 15.777 48.3636C15.777 48.9934 15.8433 49.5284 15.9759 49.9688C16.1084 50.4091 16.299 50.7441 16.5476 50.9737C16.7985 51.2034 17.1004 51.3182 17.4531 51.3182ZM23.7031 52.0994C23.1681 52.0994 22.7124 51.9538 22.3359 51.6626C21.9595 51.3691 21.6719 50.9441 21.473 50.3878C21.2741 49.8291 21.1747 49.1544 21.1747 48.3636C21.1747 47.5777 21.2741 46.9065 21.473 46.3501C21.6742 45.7914 21.9631 45.3653 22.3395 45.0717C22.7183 44.7758 23.1728 44.6278 23.7031 44.6278C24.2334 44.6278 24.6868 44.7758 25.0632 45.0717C25.442 45.3653 25.7308 45.7914 25.9297 46.3501C26.1309 46.9065 26.2315 47.5777 26.2315 48.3636C26.2315 49.1544 26.1321 49.8291 25.9332 50.3878C25.7344 50.9441 25.4467 51.3691 25.0703 51.6626C24.6939 51.9538 24.2382 52.0994 23.7031 52.0994ZM23.7031 51.3182C24.2334 51.3182 24.6454 51.0625 24.9389 50.5511C25.2325 50.0398 25.3793 49.3106 25.3793 48.3636C25.3793 47.7339 25.3118 47.1977 25.1768 46.755C25.0443 46.3123 24.8525 45.9749 24.6016 45.7429C24.353 45.5109 24.0535 45.3949 23.7031 45.3949C23.1776 45.3949 22.7668 45.6541 22.4709 46.1726C22.175 46.6887 22.027 47.419 22.027 48.3636C22.027 48.9934 22.0933 49.5284 22.2259 49.9688C22.3584 50.4091 22.549 50.7441 22.7976 50.9737C23.0485 51.2034 23.3504 51.3182 23.7031 51.3182ZM0.301136 94.5085V93.7841L3.49716 88.7273H4.02273V89.8494H3.66761L1.25284 93.6705V93.7273H5.55682V94.5085H0.301136ZM3.72443 96V94.2884V93.951V88.7273H4.5625V96H3.72443ZM7.81001 95.0057L7.7532 95.3892C7.71295 95.6591 7.6514 95.9479 7.56854 96.2557C7.48804 96.5634 7.404 96.8535 7.31641 97.1257C7.22881 97.398 7.15661 97.6146 7.09979 97.7756H6.46058C6.49136 97.6241 6.53161 97.424 6.58132 97.1754C6.63104 96.9268 6.68075 96.6487 6.73047 96.3409C6.78255 96.0355 6.82517 95.723 6.85831 95.4034L6.90092 95.0057H7.81001ZM11.4668 96.0994C10.9318 96.0994 10.476 95.9538 10.0996 95.6626C9.72319 95.3691 9.43555 94.9441 9.23668 94.3878C9.03782 93.8291 8.93839 93.1544 8.93839 92.3636C8.93839 91.5777 9.03782 90.9065 9.23668 90.3501C9.43791 89.7914 9.72674 89.3653 10.1032 89.0717C10.4819 88.7758 10.9365 88.6278 11.4668 88.6278C11.9971 88.6278 12.4505 88.7758 12.8269 89.0717C13.2057 89.3653 13.4945 89.7914 13.6934 90.3501C13.8946 90.9065 13.9952 91.5777 13.9952 92.3636C13.9952 93.1544 13.8958 93.8291 13.6969 94.3878C13.498 94.9441 13.2104 95.3691 12.834 95.6626C12.4576 95.9538 12.0018 96.0994 11.4668 96.0994ZM11.4668 95.3182C11.9971 95.3182 12.409 95.0625 12.7026 94.5511C12.9962 94.0398 13.1429 93.3106 13.1429 92.3636C13.1429 91.7339 13.0755 91.1977 12.9405 90.755C12.8079 90.3123 12.6162 89.9749 12.3652 89.7429C12.1167 89.5109 11.8172 89.3949 11.4668 89.3949C10.9412 89.3949 10.5305 89.6541 10.2346 90.1726C9.93862 90.6887 9.79066 91.419 9.79066 92.3636C9.79066 92.9934 9.85695 93.5284 9.98952 93.9688C10.1221 94.4091 10.3127 94.7441 10.5613 94.9737C10.8122 95.2034 11.1141 95.3182 11.4668 95.3182ZM17.7168 96.0994C17.1818 96.0994 16.726 95.9538 16.3496 95.6626C15.9732 95.3691 15.6855 94.9441 15.4867 94.3878C15.2878 93.8291 15.1884 93.1544 15.1884 92.3636C15.1884 91.5777 15.2878 90.9065 15.4867 90.3501C15.6879 89.7914 15.9767 89.3653 16.3532 89.0717C16.7319 88.7758 17.1865 88.6278 17.7168 88.6278C18.2471 88.6278 18.7005 88.7758 19.0769 89.0717C19.4557 89.3653 19.7445 89.7914 19.9434 90.3501C20.1446 90.9065 20.2452 91.5777 20.2452 92.3636C20.2452 93.1544 20.1458 93.8291 19.9469 94.3878C19.748 94.9441 19.4604 95.3691 19.084 95.6626C18.7076 95.9538 18.2518 96.0994 17.7168 96.0994ZM17.7168 95.3182C18.2471 95.3182 18.659 95.0625 18.9526 94.5511C19.2462 94.0398 19.3929 93.3106 19.3929 92.3636C19.3929 91.7339 19.3255 91.1977 19.1905 90.755C19.0579 90.3123 18.8662 89.9749 18.6152 89.7429C18.3667 89.5109 18.0672 89.3949 17.7168 89.3949C17.1912 89.3949 16.7805 89.6541 16.4846 90.1726C16.1886 90.6887 16.0407 91.419 16.0407 92.3636C16.0407 92.9934 16.1069 93.5284 16.2395 93.9688C16.3721 94.4091 16.5627 94.7441 16.8113 94.9737C17.0622 95.2034 17.3641 95.3182 17.7168 95.3182ZM23.9668 96.0994C23.4318 96.0994 22.976 95.9538 22.5996 95.6626C22.2232 95.3691 21.9355 94.9441 21.7367 94.3878C21.5378 93.8291 21.4384 93.1544 21.4384 92.3636C21.4384 91.5777 21.5378 90.9065 21.7367 90.3501C21.9379 89.7914 22.2267 89.3653 22.6032 89.0717C22.9819 88.7758 23.4365 88.6278 23.9668 88.6278C24.4971 88.6278 24.9505 88.7758 25.3269 89.0717C25.7057 89.3653 25.9945 89.7914 26.1934 90.3501C26.3946 90.9065 26.4952 91.5777 26.4952 92.3636C26.4952 93.1544 26.3958 93.8291 26.1969 94.3878C25.998 94.9441 25.7104 95.3691 25.334 95.6626C24.9576 95.9538 24.5018 96.0994 23.9668 96.0994ZM23.9668 95.3182C24.4971 95.3182 24.909 95.0625 25.2026 94.5511C25.4962 94.0398 25.6429 93.3106 25.6429 92.3636C25.6429 91.7339 25.5755 91.1977 25.4405 90.755C25.3079 90.3123 25.1162 89.9749 24.8652 89.7429C24.6167 89.5109 24.3172 89.3949 23.9668 89.3949C23.4412 89.3949 23.0305 89.6541 22.7346 90.1726C22.4386 90.6887 22.2907 91.419 22.2907 92.3636C22.2907 92.9934 22.3569 93.5284 22.4895 93.9688C22.6221 94.4091 22.8127 94.7441 23.0613 94.9737C23.3122 95.2034 23.6141 95.3182 23.9668 95.3182ZM2.92898 140.099C2.46023 140.099 2.04238 140.019 1.67543 139.858C1.31084 139.697 1.02083 139.473 0.805398 139.187C0.59233 138.898 0.476326 138.563 0.457386 138.182H1.35227C1.37121 138.416 1.4517 138.619 1.59375 138.789C1.7358 138.957 1.92164 139.087 2.15128 139.18C2.38092 139.272 2.63542 139.318 2.91477 139.318C3.22727 139.318 3.50426 139.264 3.74574 139.155C3.98722 139.046 4.17661 138.894 4.31392 138.7C4.45123 138.506 4.51989 138.281 4.51989 138.026C4.51989 137.758 4.4536 137.522 4.32102 137.319C4.18845 137.113 3.99432 136.952 3.73864 136.836C3.48295 136.72 3.17045 136.662 2.80114 136.662H2.21875V135.881H2.80114C3.08996 135.881 3.34328 135.829 3.56108 135.724C3.78125 135.62 3.95289 135.473 4.07599 135.284C4.20147 135.095 4.2642 134.872 4.2642 134.616C4.2642 134.37 4.20975 134.156 4.10085 133.974C3.99195 133.791 3.83807 133.649 3.6392 133.548C3.44271 133.446 3.2107 133.395 2.94318 133.395C2.69223 133.395 2.45549 133.441 2.23295 133.533C2.01278 133.623 1.83286 133.755 1.69318 133.928C1.5535 134.098 1.47775 134.304 1.46591 134.545H0.613636C0.627841 134.164 0.742661 133.83 0.958097 133.544C1.17353 133.255 1.45526 133.03 1.80327 132.869C2.15365 132.708 2.53835 132.628 2.95739 132.628C3.4072 132.628 3.79309 132.719 4.11506 132.901C4.43703 133.081 4.68442 133.319 4.85724 133.615C5.03007 133.911 5.11648 134.231 5.11648 134.574C5.11648 134.983 5.00876 135.333 4.79332 135.621C4.58026 135.91 4.29025 136.11 3.9233 136.222V136.278C4.38258 136.354 4.74124 136.549 4.99929 136.864C5.25734 137.177 5.38636 137.564 5.38636 138.026C5.38636 138.421 5.27865 138.776 5.06321 139.091C4.85014 139.403 4.55895 139.65 4.18963 139.83C3.82031 140.009 3.40009 140.099 2.92898 140.099ZM7.87837 139.006L7.82156 139.389C7.78131 139.659 7.71976 139.948 7.6369 140.256C7.5564 140.563 7.47236 140.853 7.38477 141.126C7.29717 141.398 7.22496 141.615 7.16815 141.776H6.52894C6.55972 141.624 6.59996 141.424 6.64968 141.175C6.6994 140.927 6.74911 140.649 6.79883 140.341C6.85091 140.036 6.89353 139.723 6.92667 139.403L6.96928 139.006H7.87837ZM11.5352 140.099C11.0001 140.099 10.5444 139.954 10.168 139.663C9.79155 139.369 9.50391 138.944 9.30504 138.388C9.10618 137.829 9.00675 137.154 9.00675 136.364C9.00675 135.578 9.10618 134.906 9.30504 134.35C9.50627 133.791 9.7951 133.365 10.1715 133.072C10.5503 132.776 11.0049 132.628 11.5352 132.628C12.0655 132.628 12.5188 132.776 12.8952 133.072C13.274 133.365 13.5629 133.791 13.7617 134.35C13.9629 134.906 14.0636 135.578 14.0636 136.364C14.0636 137.154 13.9641 137.829 13.7653 138.388C13.5664 138.944 13.2788 139.369 12.9023 139.663C12.5259 139.954 12.0702 140.099 11.5352 140.099ZM11.5352 139.318C12.0655 139.318 12.4774 139.062 12.771 138.551C13.0645 138.04 13.2113 137.311 13.2113 136.364C13.2113 135.734 13.1438 135.198 13.0089 134.755C12.8763 134.312 12.6845 133.975 12.4336 133.743C12.185 133.511 11.8855 133.395 11.5352 133.395C11.0096 133.395 10.5988 133.654 10.3029 134.173C10.007 134.689 9.85902 135.419 9.85902 136.364C9.85902 136.993 9.92531 137.528 10.0579 137.969C10.1905 138.409 10.381 138.744 10.6296 138.974C10.8806 139.203 11.1824 139.318 11.5352 139.318ZM17.7852 140.099C17.2501 140.099 16.7944 139.954 16.418 139.663C16.0415 139.369 15.7539 138.944 15.555 138.388C15.3562 137.829 15.2567 137.154 15.2567 136.364C15.2567 135.578 15.3562 134.906 15.555 134.35C15.7563 133.791 16.0451 133.365 16.4215 133.072C16.8003 132.776 17.2549 132.628 17.7852 132.628C18.3155 132.628 18.7688 132.776 19.1452 133.072C19.524 133.365 19.8129 133.791 20.0117 134.35C20.2129 134.906 20.3136 135.578 20.3136 136.364C20.3136 137.154 20.2141 137.829 20.0153 138.388C19.8164 138.944 19.5288 139.369 19.1523 139.663C18.7759 139.954 18.3202 140.099 17.7852 140.099ZM17.7852 139.318C18.3155 139.318 18.7274 139.062 19.021 138.551C19.3145 138.04 19.4613 137.311 19.4613 136.364C19.4613 135.734 19.3938 135.198 19.2589 134.755C19.1263 134.312 18.9345 133.975 18.6836 133.743C18.435 133.511 18.1355 133.395 17.7852 133.395C17.2596 133.395 16.8488 133.654 16.5529 134.173C16.257 134.689 16.109 135.419 16.109 136.364C16.109 136.993 16.1753 137.528 16.3079 137.969C16.4405 138.409 16.631 138.744 16.8796 138.974C17.1306 139.203 17.4324 139.318 17.7852 139.318ZM24.0352 140.099C23.5001 140.099 23.0444 139.954 22.668 139.663C22.2915 139.369 22.0039 138.944 21.805 138.388C21.6062 137.829 21.5067 137.154 21.5067 136.364C21.5067 135.578 21.6062 134.906 21.805 134.35C22.0063 133.791 22.2951 133.365 22.6715 133.072C23.0503 132.776 23.5049 132.628 24.0352 132.628C24.5655 132.628 25.0188 132.776 25.3952 133.072C25.774 133.365 26.0629 133.791 26.2617 134.35C26.4629 134.906 26.5636 135.578 26.5636 136.364C26.5636 137.154 26.4641 137.829 26.2653 138.388C26.0664 138.944 25.7788 139.369 25.4023 139.663C25.0259 139.954 24.5702 140.099 24.0352 140.099ZM24.0352 139.318C24.5655 139.318 24.9774 139.062 25.271 138.551C25.5645 138.04 25.7113 137.311 25.7113 136.364C25.7113 135.734 25.6438 135.198 25.5089 134.755C25.3763 134.312 25.1845 133.975 24.9336 133.743C24.685 133.511 24.3855 133.395 24.0352 133.395C23.5096 133.395 23.0988 133.654 22.8029 134.173C22.507 134.689 22.359 135.419 22.359 136.364C22.359 136.993 22.4253 137.528 22.5579 137.969C22.6905 138.409 22.881 138.744 23.1296 138.974C23.3806 139.203 23.6824 139.318 24.0352 139.318ZM0.471591 184V183.361L2.87216 180.733C3.15388 180.425 3.38589 180.158 3.56818 179.93C3.75047 179.701 3.88542 179.485 3.97301 179.284C4.06297 179.08 4.10795 178.867 4.10795 178.645C4.10795 178.389 4.0464 178.168 3.9233 177.981C3.80256 177.794 3.63684 177.649 3.42614 177.548C3.21544 177.446 2.97869 177.395 2.71591 177.395C2.43655 177.395 2.19271 177.453 1.98438 177.569C1.77841 177.683 1.61861 177.842 1.50497 178.048C1.3937 178.254 1.33807 178.496 1.33807 178.773H0.5C0.5 178.347 0.598248 177.973 0.794744 177.651C0.991241 177.329 1.25876 177.078 1.5973 176.898C1.93821 176.718 2.32055 176.628 2.74432 176.628C3.17045 176.628 3.54806 176.718 3.87713 176.898C4.2062 177.078 4.46425 177.32 4.65128 177.626C4.8383 177.931 4.93182 178.271 4.93182 178.645C4.93182 178.912 4.88329 179.174 4.78622 179.43C4.69152 179.683 4.5258 179.966 4.28906 180.278C4.05469 180.589 3.72917 180.967 3.3125 181.415L1.67898 183.162V183.219H5.05966V184H0.471591ZM7.79048 183.006L7.73366 183.389C7.69342 183.659 7.63187 183.948 7.54901 184.256C7.46851 184.563 7.38447 184.853 7.29688 185.126C7.20928 185.398 7.13707 185.615 7.08026 185.776H6.44105C6.47183 185.624 6.51207 185.424 6.56179 185.175C6.61151 184.927 6.66122 184.649 6.71094 184.341C6.76302 184.036 6.80563 183.723 6.83878 183.403L6.88139 183.006H7.79048ZM11.4473 184.099C10.9122 184.099 10.4565 183.954 10.0801 183.663C9.70366 183.369 9.41602 182.944 9.21715 182.388C9.01829 181.829 8.91886 181.154 8.91886 180.364C8.91886 179.578 9.01829 178.906 9.21715 178.35C9.41838 177.791 9.70721 177.365 10.0836 177.072C10.4624 176.776 10.917 176.628 11.4473 176.628C11.9776 176.628 12.4309 176.776 12.8074 177.072C13.1861 177.365 13.475 177.791 13.6738 178.35C13.8751 178.906 13.9757 179.578 13.9757 180.364C13.9757 181.154 13.8762 181.829 13.6774 182.388C13.4785 182.944 13.1909 183.369 12.8145 183.663C12.438 183.954 11.9823 184.099 11.4473 184.099ZM11.4473 183.318C11.9776 183.318 12.3895 183.062 12.6831 182.551C12.9766 182.04 13.1234 181.311 13.1234 180.364C13.1234 179.734 13.0559 179.198 12.921 178.755C12.7884 178.312 12.5967 177.975 12.3457 177.743C12.0971 177.511 11.7976 177.395 11.4473 177.395C10.9217 177.395 10.5109 177.654 10.215 178.173C9.91909 178.689 9.77113 179.419 9.77113 180.364C9.77113 180.993 9.83742 181.528 9.96999 181.969C10.1026 182.409 10.2931 182.744 10.5417 182.974C10.7927 183.203 11.0945 183.318 11.4473 183.318ZM17.6973 184.099C17.1622 184.099 16.7065 183.954 16.3301 183.663C15.9537 183.369 15.666 182.944 15.4672 182.388C15.2683 181.829 15.1689 181.154 15.1689 180.364C15.1689 179.578 15.2683 178.906 15.4672 178.35C15.6684 177.791 15.9572 177.365 16.3336 177.072C16.7124 176.776 17.167 176.628 17.6973 176.628C18.2276 176.628 18.6809 176.776 19.0574 177.072C19.4361 177.365 19.725 177.791 19.9238 178.35C20.1251 178.906 20.2257 179.578 20.2257 180.364C20.2257 181.154 20.1262 181.829 19.9274 182.388C19.7285 182.944 19.4409 183.369 19.0645 183.663C18.688 183.954 18.2323 184.099 17.6973 184.099ZM17.6973 183.318C18.2276 183.318 18.6395 183.062 18.9331 182.551C19.2266 182.04 19.3734 181.311 19.3734 180.364C19.3734 179.734 19.3059 179.198 19.171 178.755C19.0384 178.312 18.8467 177.975 18.5957 177.743C18.3471 177.511 18.0476 177.395 17.6973 177.395C17.1717 177.395 16.7609 177.654 16.465 178.173C16.1691 178.689 16.0211 179.419 16.0211 180.364C16.0211 180.993 16.0874 181.528 16.22 181.969C16.3526 182.409 16.5431 182.744 16.7917 182.974C17.0427 183.203 17.3445 183.318 17.6973 183.318ZM23.9473 184.099C23.4122 184.099 22.9565 183.954 22.5801 183.663C22.2037 183.369 21.916 182.944 21.7172 182.388C21.5183 181.829 21.4189 181.154 21.4189 180.364C21.4189 179.578 21.5183 178.906 21.7172 178.35C21.9184 177.791 22.2072 177.365 22.5836 177.072C22.9624 176.776 23.417 176.628 23.9473 176.628C24.4776 176.628 24.9309 176.776 25.3074 177.072C25.6861 177.365 25.975 177.791 26.1738 178.35C26.3751 178.906 26.4757 179.578 26.4757 180.364C26.4757 181.154 26.3762 181.829 26.1774 182.388C25.9785 182.944 25.6909 183.369 25.3145 183.663C24.938 183.954 24.4823 184.099 23.9473 184.099ZM23.9473 183.318C24.4776 183.318 24.8895 183.062 25.1831 182.551C25.4766 182.04 25.6234 181.311 25.6234 180.364C25.6234 179.734 25.5559 179.198 25.421 178.755C25.2884 178.312 25.0967 177.975 24.8457 177.743C24.5971 177.511 24.2976 177.395 23.9473 177.395C23.4217 177.395 23.0109 177.654 22.715 178.173C22.4191 178.689 22.2711 179.419 22.2711 180.364C22.2711 180.993 22.3374 181.528 22.47 181.969C22.6026 182.409 22.7931 182.744 23.0417 182.974C23.2927 183.203 23.5945 183.318 23.9473 183.318ZM3.02841 220.727V228H2.14773V221.651H2.10511L0.329545 222.83V221.935L2.14773 220.727H3.02841ZM5.95455 227.006L5.89773 227.389C5.85748 227.659 5.79593 227.948 5.71307 228.256C5.63258 228.563 5.54853 228.853 5.46094 229.126C5.37334 229.398 5.30114 229.615 5.24432 229.776H4.60511C4.63589 229.624 4.67614 229.424 4.72585 229.175C4.77557 228.927 4.82528 228.649 4.875 228.341C4.92708 228.036 4.9697 227.723 5.00284 227.403L5.04545 227.006H5.95455ZM9.61133 228.099C9.07629 228.099 8.62056 227.954 8.24414 227.663C7.86772 227.369 7.58008 226.944 7.38121 226.388C7.18235 225.829 7.08292 225.154 7.08292 224.364C7.08292 223.578 7.18235 222.906 7.38121 222.35C7.58245 221.791 7.87127 221.365 8.24769 221.072C8.62648 220.776 9.08103 220.628 9.61133 220.628C10.1416 220.628 10.595 220.776 10.9714 221.072C11.3502 221.365 11.639 221.791 11.8379 222.35C12.0391 222.906 12.1397 223.578 12.1397 224.364C12.1397 225.154 12.0403 225.829 11.8414 226.388C11.6426 226.944 11.3549 227.369 10.9785 227.663C10.6021 227.954 10.1464 228.099 9.61133 228.099ZM9.61133 227.318C10.1416 227.318 10.5536 227.062 10.8471 226.551C11.1407 226.04 11.2875 225.311 11.2875 224.364C11.2875 223.734 11.22 223.198 11.085 222.755C10.9525 222.312 10.7607 221.975 10.5098 221.743C10.2612 221.511 9.96171 221.395 9.61133 221.395C9.08576 221.395 8.67501 221.654 8.37908 222.173C8.08316 222.689 7.93519 223.419 7.93519 224.364C7.93519 224.993 8.00148 225.528 8.13406 225.969C8.26663 226.409 8.45721 226.744 8.70579 226.974C8.95674 227.203 9.25858 227.318 9.61133 227.318ZM15.8613 228.099C15.3263 228.099 14.8706 227.954 14.4941 227.663C14.1177 227.369 13.8301 226.944 13.6312 226.388C13.4324 225.829 13.3329 225.154 13.3329 224.364C13.3329 223.578 13.4324 222.906 13.6312 222.35C13.8324 221.791 14.1213 221.365 14.4977 221.072C14.8765 220.776 15.331 220.628 15.8613 220.628C16.3916 220.628 16.845 220.776 17.2214 221.072C17.6002 221.365 17.889 221.791 18.0879 222.35C18.2891 222.906 18.3897 223.578 18.3897 224.364C18.3897 225.154 18.2903 225.829 18.0914 226.388C17.8926 226.944 17.6049 227.369 17.2285 227.663C16.8521 227.954 16.3964 228.099 15.8613 228.099ZM15.8613 227.318C16.3916 227.318 16.8036 227.062 17.0971 226.551C17.3907 226.04 17.5375 225.311 17.5375 224.364C17.5375 223.734 17.47 223.198 17.335 222.755C17.2025 222.312 17.0107 221.975 16.7598 221.743C16.5112 221.511 16.2117 221.395 15.8613 221.395C15.3358 221.395 14.925 221.654 14.6291 222.173C14.3332 222.689 14.1852 223.419 14.1852 224.364C14.1852 224.993 14.2515 225.528 14.3841 225.969C14.5166 226.409 14.7072 226.744 14.9558 226.974C15.2067 227.203 15.5086 227.318 15.8613 227.318ZM22.1113 228.099C21.5763 228.099 21.1206 227.954 20.7441 227.663C20.3677 227.369 20.0801 226.944 19.8812 226.388C19.6824 225.829 19.5829 225.154 19.5829 224.364C19.5829 223.578 19.6824 222.906 19.8812 222.35C20.0824 221.791 20.3713 221.365 20.7477 221.072C21.1265 220.776 21.581 220.628 22.1113 220.628C22.6416 220.628 23.095 220.776 23.4714 221.072C23.8502 221.365 24.139 221.791 24.3379 222.35C24.5391 222.906 24.6397 223.578 24.6397 224.364C24.6397 225.154 24.5403 225.829 24.3414 226.388C24.1426 226.944 23.8549 227.369 23.4785 227.663C23.1021 227.954 22.6464 228.099 22.1113 228.099ZM22.1113 227.318C22.6416 227.318 23.0536 227.062 23.3471 226.551C23.6407 226.04 23.7875 225.311 23.7875 224.364C23.7875 223.734 23.72 223.198 23.585 222.755C23.4525 222.312 23.2607 221.975 23.0098 221.743C22.7612 221.511 22.4617 221.395 22.1113 221.395C21.5858 221.395 21.175 221.654 20.8791 222.173C20.5832 222.689 20.4352 223.419 20.4352 224.364C20.4352 224.993 20.5015 225.528 20.6341 225.969C20.7666 226.409 20.9572 226.744 21.2058 226.974C21.4567 227.203 21.7586 227.318 22.1113 227.318Z" fill="#707070"/>
</svg>
