<svg width="27" height="27" viewBox="0 0 27 27" fill="none" xmlns="http://www.w3.org/2000/svg">
<path d="M25.086 0.353516H2.36368C1.32251 0.353516 0.476562 1.2113 0.476562 2.2643V24.9452C0.476562 25.9982 1.32251 26.856 2.36368 26.856H25.086C26.1272 26.856 26.9791 25.9982 26.9791 24.9452V2.2643C26.9791 1.2113 26.1272 0.353516 25.086 0.353516ZM8.48647 23.07H4.55842V10.4221H8.49239V23.07H8.48647ZM6.52245 8.69471C5.26239 8.69471 4.24489 7.67128 4.24489 6.41715C4.24489 5.16301 5.26239 4.13959 6.52245 4.13959C7.77658 4.13959 8.80001 5.16301 8.80001 6.41715C8.80001 7.6772 7.7825 8.69471 6.52245 8.69471ZM23.2107 23.07H19.2827V16.9176C19.2827 15.4505 19.2531 13.5634 17.2418 13.5634C15.1949 13.5634 14.8814 15.1606 14.8814 16.8111V23.07H10.9533V10.4221H14.7217V12.1495H14.7749C15.3014 11.1557 16.5851 10.1086 18.4959 10.1086C22.4713 10.1086 23.2107 12.7292 23.2107 16.1367V23.07Z" fill="white"/>
</svg>
