<svg width="53" height="50" viewBox="0 0 53 50" fill="none" xmlns="http://www.w3.org/2000/svg">
<path d="M41.6251 23.831H35.5347C33.7917 23.831 32.1201 23.1388 30.8874 21.9066C29.6547 20.6744 28.9618 19.003 28.9611 17.2601V4.5587C28.9509 3.37233 29.4075 2.22949 30.2323 1.37671C31.0571 0.52393 32.1841 0.0295289 33.3702 0.000157337C33.9564 -0.00477809 34.5378 0.106444 35.0808 0.327452C35.6238 0.54846 36.1176 0.874849 36.5337 1.28777C36.9499 1.70069 37.2801 2.19201 37.5053 2.73326C37.7306 3.27451 37.8463 3.85497 37.846 4.44122V18.4771C37.8365 19.2983 38.0024 20.112 38.3323 20.864C38.6623 21.616 39.1489 22.2891 39.7596 22.8381C40.2876 23.3213 40.9294 23.6629 41.6251 23.831Z" fill="#A3DC2F"/>
<path d="M45.6956 23.484C48.5478 23.484 50.86 21.1718 50.86 18.3196C50.86 15.4674 48.5478 13.1553 45.6956 13.1553C42.8434 13.1553 40.5312 15.4674 40.5312 18.3196C40.5312 21.1718 42.8434 23.484 45.6956 23.484Z" fill="#A3DC2F"/>
<path d="M28.9609 40.7707V34.6775C28.9616 32.9345 29.6545 31.2633 30.8872 30.031C32.1199 28.7988 33.7915 28.1066 35.5345 28.1066H48.2359C49.4222 28.0958 50.5651 28.5522 51.4176 29.3772C52.2702 30.2023 52.7638 31.3297 52.7918 32.5157C52.7967 33.1019 52.6854 33.6833 52.4644 34.2263C52.2434 34.7693 51.917 35.2631 51.5041 35.6792C51.0912 36.0954 50.5999 36.4256 50.0587 36.6508C49.5174 36.8761 48.9369 36.9918 48.3507 36.9914H34.3148C33.4937 36.9824 32.68 37.1483 31.9281 37.4783C31.1761 37.8083 30.5031 38.2947 29.9538 38.9051C29.4717 39.4339 29.1304 40.0754 28.9609 40.7707Z" fill="#A3DC2F"/>
<path d="M34.4769 49.9996C37.3291 49.9996 39.6412 47.6875 39.6412 44.8353C39.6412 41.9831 37.3291 39.6709 34.4769 39.6709C31.6247 39.6709 29.3125 41.9831 29.3125 44.8353C29.3125 47.6875 31.6247 49.9996 34.4769 49.9996Z" fill="#A3DC2F"/>
<path d="M11.1641 26.1689H17.2572C19.0002 26.1697 20.6715 26.8625 21.9037 28.0952C23.1359 29.328 23.8281 30.9995 23.8281 32.7425V45.4439C23.8281 47.902 21.8798 49.9811 19.4217 49.9998C18.8352 50.0051 18.2536 49.894 17.7103 49.6732C17.167 49.4523 16.6728 49.126 16.2564 48.7131C15.84 48.3001 15.5095 47.8087 15.2841 47.2673C15.0587 46.7258 14.9429 46.1451 14.9432 45.5586V31.5228C14.9531 30.7019 14.7875 29.8884 14.4575 29.1368C14.1275 28.3851 13.6407 27.7127 13.0296 27.1644C12.5015 26.6809 11.8598 26.3385 11.1641 26.1689Z" fill="#A3DC2F"/>
<path d="M7.10187 36.8448C9.95407 36.8448 12.2662 34.5327 12.2662 31.6805C12.2662 28.8283 9.95407 26.5161 7.10187 26.5161C4.24967 26.5161 1.9375 28.8283 1.9375 31.6805C1.9375 34.5327 4.24967 36.8448 7.10187 36.8448Z" fill="#A3DC2F"/>
<path d="M23.8283 9.23193V15.3224C23.8283 17.0653 23.1361 18.737 21.9039 19.9697C20.6717 21.2024 19.0004 21.8953 17.2574 21.896H4.5587C3.37233 21.9061 2.22949 21.4495 1.37671 20.6247C0.52393 19.7999 0.0295288 18.6729 0.000157293 17.4869C-0.00477813 16.9007 0.106477 16.3193 0.327485 15.7763C0.548493 15.2333 0.874881 14.7394 1.2878 14.3233C1.70072 13.9071 2.19201 13.5769 2.73326 13.3517C3.27451 13.1265 3.85501 13.0107 4.44125 13.0111H18.4905C19.3116 13.0205 20.1254 12.8547 20.8774 12.5247C21.6294 12.1947 22.3024 11.7082 22.8515 11.0975C23.3288 10.5677 23.6648 9.92607 23.8283 9.23193Z" fill="#A3DC2F"/>
<path d="M18.3206 10.3292C21.1728 10.3292 23.485 8.01705 23.485 5.16485C23.485 2.31265 21.1728 0.000488281 18.3206 0.000488281C15.4684 0.000488281 13.1562 2.31265 13.1562 5.16485C13.1562 8.01705 15.4684 10.3292 18.3206 10.3292Z" fill="#A3DC2F"/>
</svg>
