<svg width="330" height="287" viewBox="0 0 330 287" fill="none" xmlns="http://www.w3.org/2000/svg">
<rect y="0.046875" width="330" height="286" rx="16" fill="white"/>
<path d="M22.4382 54.956H24.8352L29.0028 65.1321H29.1562L33.3239 54.956H35.7209V68.0469H33.8416V58.5739H33.7202L29.8594 68.0277H28.2997L24.4389 58.5675H24.3175V68.0469H22.4382V54.956ZM42.5748 68.245C41.6543 68.245 40.851 68.0341 40.165 67.6122C39.4789 67.1903 38.9462 66.6001 38.5669 65.8416C38.1877 65.0831 37.998 64.1967 37.998 63.1825C37.998 62.1641 38.1877 61.2734 38.5669 60.5107C38.9462 59.7479 39.4789 59.1555 40.165 58.7337C40.851 58.3118 41.6543 58.1009 42.5748 58.1009C43.4952 58.1009 44.2985 58.3118 44.9846 58.7337C45.6706 59.1555 46.2033 59.7479 46.5826 60.5107C46.9618 61.2734 47.1515 62.1641 47.1515 63.1825C47.1515 64.1967 46.9618 65.0831 46.5826 65.8416C46.2033 66.6001 45.6706 67.1903 44.9846 67.6122C44.2985 68.0341 43.4952 68.245 42.5748 68.245ZM42.5811 66.6406C43.1777 66.6406 43.6721 66.483 44.0641 66.1676C44.4561 65.8523 44.7459 65.4325 44.9334 64.9084C45.1252 64.3842 45.2211 63.8068 45.2211 63.1761C45.2211 62.5497 45.1252 61.9744 44.9334 61.4503C44.7459 60.9219 44.4561 60.4979 44.0641 60.1783C43.6721 59.8587 43.1777 59.6989 42.5811 59.6989C41.9803 59.6989 41.4817 59.8587 41.0854 60.1783C40.6934 60.4979 40.4015 60.9219 40.2097 61.4503C40.0222 61.9744 39.9284 62.5497 39.9284 63.1761C39.9284 63.8068 40.0222 64.3842 40.2097 64.9084C40.4015 65.4325 40.6934 65.8523 41.0854 66.1676C41.4817 66.483 41.9803 66.6406 42.5811 66.6406ZM51.196 62.2173V68.0469H49.2848V58.2287H51.1193V59.8267H51.2408C51.4666 59.3068 51.8203 58.8892 52.3018 58.5739C52.7876 58.2585 53.3991 58.1009 54.1364 58.1009C54.8054 58.1009 55.3913 58.2415 55.8942 58.5227C56.397 58.7997 56.7869 59.2131 57.0639 59.7628C57.3409 60.3125 57.4794 60.9922 57.4794 61.8018V68.0469H55.5682V62.032C55.5682 61.3203 55.3828 60.7642 55.0121 60.3636C54.6413 59.9588 54.1321 59.7564 53.4844 59.7564C53.0412 59.7564 52.647 59.8523 52.3018 60.044C51.9609 60.2358 51.6903 60.517 51.4901 60.8878C51.294 61.2543 51.196 61.6974 51.196 62.2173ZM64.6257 58.2287V59.7628H59.2628V58.2287H64.6257ZM60.701 55.8764H62.6122V65.1641C62.6122 65.5348 62.6676 65.8139 62.7784 66.0014C62.8892 66.1847 63.032 66.3104 63.2067 66.3786C63.3857 66.4425 63.5795 66.4744 63.7884 66.4744C63.9418 66.4744 64.076 66.4638 64.1911 66.4425C64.3061 66.4212 64.3956 66.4041 64.4595 66.3913L64.8047 67.9702C64.6939 68.0128 64.5362 68.0554 64.3317 68.098C64.1271 68.1449 63.8714 68.1705 63.5646 68.1747C63.0618 68.1832 62.593 68.0938 62.1584 67.9062C61.7237 67.7188 61.3722 67.429 61.1037 67.0369C60.8352 66.6449 60.701 66.1527 60.701 65.5604V55.8764ZM68.862 62.2173V68.0469H66.9508V54.956H68.8365V59.8267H68.9579C69.188 59.2983 69.5396 58.8786 70.0126 58.5675C70.4856 58.2564 71.1035 58.1009 71.8663 58.1009C72.5396 58.1009 73.1277 58.2393 73.6305 58.5163C74.1376 58.7933 74.5297 59.2067 74.8066 59.7564C75.0879 60.3018 75.2285 60.9837 75.2285 61.8018V68.0469H73.3173V62.032C73.3173 61.3118 73.1319 60.7536 72.7612 60.3572C72.3904 59.9567 71.8748 59.7564 71.2143 59.7564C70.7626 59.7564 70.3578 59.8523 69.9998 60.044C69.6461 60.2358 69.367 60.517 69.1625 60.8878C68.9622 61.2543 68.862 61.6974 68.862 62.2173ZM79.6902 54.956V68.0469H77.7789V54.956H79.6902ZM83.4695 71.7287C83.1839 71.7287 82.924 71.7053 82.6896 71.6584C82.4553 71.6158 82.2805 71.5689 82.1655 71.5178L82.6257 69.9517C82.9751 70.0455 83.2862 70.0859 83.5589 70.0732C83.8317 70.0604 84.0724 69.9581 84.2812 69.7663C84.4943 69.5746 84.6818 69.2614 84.8438 68.8267L85.0803 68.1747L81.4879 58.2287H83.5334L86.0199 65.848H86.1222L88.6087 58.2287H90.6605L86.6143 69.3572C86.4268 69.8686 86.1882 70.3011 85.8984 70.6548C85.6087 71.0128 85.2635 71.2813 84.8629 71.4602C84.4624 71.6392 83.9979 71.7287 83.4695 71.7287ZM94.5852 54.956V68.0469H92.6101V54.956H94.5852ZM99.2195 62.2173V68.0469H97.3082V58.2287H99.1428V59.8267H99.2642C99.4901 59.3068 99.8438 58.8892 100.325 58.5739C100.811 58.2585 101.423 58.1009 102.16 58.1009C102.829 58.1009 103.415 58.2415 103.918 58.5227C104.42 58.7997 104.81 59.2131 105.087 59.7628C105.364 60.3125 105.503 60.9922 105.503 61.8018V68.0469H103.592V62.032C103.592 61.3203 103.406 60.7642 103.036 60.3636C102.665 59.9588 102.156 59.7564 101.508 59.7564C101.065 59.7564 100.67 59.8523 100.325 60.044C99.9844 60.2358 99.7138 60.517 99.5135 60.8878C99.3175 61.2543 99.2195 61.6974 99.2195 62.2173ZM116.114 58.2287L112.553 68.0469H110.508L106.941 58.2287H108.993L111.479 65.7841H111.582L114.062 58.2287H116.114ZM121.711 68.245C120.791 68.245 119.988 68.0341 119.302 67.6122C118.616 67.1903 118.083 66.6001 117.704 65.8416C117.324 65.0831 117.135 64.1967 117.135 63.1825C117.135 62.1641 117.324 61.2734 117.704 60.5107C118.083 59.7479 118.616 59.1555 119.302 58.7337C119.988 58.3118 120.791 58.1009 121.711 58.1009C122.632 58.1009 123.435 58.3118 124.121 58.7337C124.807 59.1555 125.34 59.7479 125.719 60.5107C126.099 61.2734 126.288 62.1641 126.288 63.1825C126.288 64.1967 126.099 65.0831 125.719 65.8416C125.34 66.6001 124.807 67.1903 124.121 67.6122C123.435 68.0341 122.632 68.245 121.711 68.245ZM121.718 66.6406C122.314 66.6406 122.809 66.483 123.201 66.1676C123.593 65.8523 123.883 65.4325 124.07 64.9084C124.262 64.3842 124.358 63.8068 124.358 63.1761C124.358 62.5497 124.262 61.9744 124.07 61.4503C123.883 60.9219 123.593 60.4979 123.201 60.1783C122.809 59.8587 122.314 59.6989 121.718 59.6989C121.117 59.6989 120.618 59.8587 120.222 60.1783C119.83 60.4979 119.538 60.9219 119.346 61.4503C119.159 61.9744 119.065 62.5497 119.065 63.1761C119.065 63.8068 119.159 64.3842 119.346 64.9084C119.538 65.4325 119.83 65.8523 120.222 66.1676C120.618 66.483 121.117 66.6406 121.718 66.6406ZM128.422 68.0469V58.2287H130.333V68.0469H128.422ZM129.387 56.7138C129.054 56.7138 128.769 56.603 128.53 56.3814C128.296 56.1555 128.179 55.8871 128.179 55.576C128.179 55.2607 128.296 54.9922 128.53 54.7706C128.769 54.5447 129.054 54.4318 129.387 54.4318C129.719 54.4318 130.002 54.5447 130.237 54.7706C130.475 54.9922 130.595 55.2607 130.595 55.576C130.595 55.8871 130.475 56.1555 130.237 56.3814C130.002 56.603 129.719 56.7138 129.387 56.7138ZM137.04 68.245C136.089 68.245 135.271 68.0298 134.585 67.5994C133.903 67.1648 133.379 66.5661 133.013 65.8033C132.646 65.0405 132.463 64.1669 132.463 63.1825C132.463 62.1854 132.65 61.3054 133.025 60.5426C133.4 59.7756 133.929 59.1768 134.611 58.7464C135.292 58.3161 136.096 58.1009 137.02 58.1009C137.766 58.1009 138.431 58.2393 139.015 58.5163C139.599 58.7891 140.069 59.1726 140.427 59.6669C140.79 60.1612 141.005 60.7386 141.073 61.3991H139.213C139.111 60.9389 138.876 60.5426 138.51 60.2102C138.148 59.8778 137.662 59.7116 137.052 59.7116C136.52 59.7116 136.053 59.8523 135.653 60.1335C135.256 60.4105 134.947 60.8068 134.726 61.3224C134.504 61.8338 134.393 62.4389 134.393 63.1378C134.393 63.8537 134.502 64.4716 134.719 64.9915C134.937 65.5114 135.243 65.9141 135.64 66.1996C136.04 66.4851 136.511 66.6278 137.052 66.6278C137.415 66.6278 137.743 66.5618 138.037 66.4297C138.335 66.2933 138.584 66.0994 138.785 65.848C138.989 65.5966 139.132 65.294 139.213 64.9403H141.073C141.005 65.5753 140.798 66.142 140.453 66.6406C140.108 67.1392 139.645 67.5312 139.066 67.8168C138.491 68.1023 137.815 68.245 137.04 68.245ZM147.348 68.245C146.381 68.245 145.548 68.0384 144.849 67.625C144.154 67.2074 143.618 66.6214 143.238 65.8672C142.863 65.1087 142.676 64.2202 142.676 63.2017C142.676 62.196 142.863 61.3097 143.238 60.5426C143.618 59.7756 144.146 59.1768 144.824 58.7464C145.505 58.3161 146.302 58.1009 147.214 58.1009C147.768 58.1009 148.305 58.1925 148.825 58.3757C149.345 58.5589 149.811 58.8466 150.225 59.2386C150.638 59.6307 150.964 60.1399 151.203 60.7663C151.441 61.3885 151.561 62.1449 151.561 63.0355V63.7131H143.756V62.2812H149.688C149.688 61.7784 149.586 61.3331 149.381 60.9453C149.176 60.5533 148.889 60.2443 148.518 60.0185C148.152 59.7926 147.721 59.6797 147.227 59.6797C146.69 59.6797 146.221 59.8118 145.821 60.076C145.424 60.3359 145.118 60.6768 144.9 61.0987C144.687 61.5163 144.581 61.9702 144.581 62.4602V63.5788C144.581 64.2351 144.696 64.7933 144.926 65.2536C145.16 65.7138 145.486 66.0653 145.904 66.3082C146.321 66.5469 146.809 66.6662 147.368 66.6662C147.73 66.6662 148.06 66.6151 148.358 66.5128C148.657 66.4062 148.914 66.2486 149.132 66.0398C149.349 65.831 149.515 65.5732 149.63 65.2663L151.439 65.5923C151.294 66.125 151.034 66.5916 150.659 66.9922C150.289 67.3885 149.822 67.6974 149.26 67.919C148.701 68.1364 148.064 68.245 147.348 68.245Z" fill="black"/>
<circle cx="26" cy="24.0469" r="5" fill="#FF0606"/>
<circle cx="43.5" cy="24.0469" r="5" fill="#30C1FF"/>
<circle cx="61" cy="24.0469" r="5" fill="#A3DC2F"/>
<circle cx="43" cy="115.051" r="22" fill="#FF83D5"/>
<path d="M40.3359 112.364L44.529 112.38M40.3123 118.654L43.4571 118.666M40.3241 115.509L46.6138 115.533" stroke="white" stroke-width="1.4" stroke-linecap="round"/>
<path d="M34.4168 112.29C35.1107 109.381 37.3925 107.116 40.3066 106.444C42.4111 105.959 44.5994 105.967 46.7002 106.468C49.6091 107.162 51.8739 109.444 52.5459 112.358C53.0312 114.462 53.023 116.651 52.5219 118.752C51.828 121.66 49.5462 123.925 46.6321 124.597C44.5276 125.083 42.3393 125.074 40.2385 124.573C37.3296 123.879 35.0648 121.598 34.3928 118.683C33.9075 116.579 33.9157 114.391 34.4168 112.29Z" stroke="white" stroke-width="1.4"/>
<path d="M82.1307 100.869H83.3636V108.147C83.3636 108.797 83.2443 109.349 83.0057 109.803C82.767 110.257 82.4306 110.602 81.9964 110.837C81.5623 111.072 81.0502 111.19 80.4602 111.19C79.9034 111.19 79.4079 111.089 78.9737 110.887C78.5395 110.681 78.1982 110.39 77.9496 110.012C77.701 109.634 77.5767 109.185 77.5767 108.664H78.7898C78.7898 108.953 78.861 109.205 79.0036 109.42C79.1494 109.632 79.3482 109.798 79.6001 109.917C79.852 110.037 80.1387 110.096 80.4602 110.096C80.8149 110.096 81.1165 110.022 81.3651 109.873C81.6136 109.723 81.8026 109.505 81.9318 109.216C82.0644 108.925 82.1307 108.568 82.1307 108.147V100.869ZM88.7777 111.21C88.0883 111.21 87.4834 111.046 86.9631 110.718C86.446 110.39 86.0417 109.931 85.75 109.341C85.4616 108.751 85.3175 108.061 85.3175 107.272C85.3175 106.477 85.4616 105.783 85.75 105.189C86.0417 104.596 86.446 104.135 86.9631 103.807C87.4834 103.479 88.0883 103.315 88.7777 103.315C89.4671 103.315 90.0703 103.479 90.5874 103.807C91.1077 104.135 91.5121 104.596 91.8004 105.189C92.0921 105.783 92.2379 106.477 92.2379 107.272C92.2379 108.061 92.0921 108.751 91.8004 109.341C91.5121 109.931 91.1077 110.39 90.5874 110.718C90.0703 111.046 89.4671 111.21 88.7777 111.21ZM88.7777 110.156C89.3014 110.156 89.7322 110.022 90.0703 109.753C90.4084 109.485 90.6586 109.132 90.821 108.694C90.9834 108.257 91.0646 107.783 91.0646 107.272C91.0646 106.762 90.9834 106.286 90.821 105.846C90.6586 105.405 90.4084 105.048 90.0703 104.777C89.7322 104.505 89.3014 104.369 88.7777 104.369C88.254 104.369 87.8232 104.505 87.4851 104.777C87.147 105.048 86.8968 105.405 86.7344 105.846C86.572 106.286 86.4908 106.762 86.4908 107.272C86.4908 107.783 86.572 108.257 86.7344 108.694C86.8968 109.132 87.147 109.485 87.4851 109.753C87.8232 110.022 88.254 110.156 88.7777 110.156ZM95.2022 106.457V111.051H94.0289V100.869H95.2022V104.608H95.3017C95.4806 104.213 95.7491 103.9 96.1071 103.668C96.4683 103.433 96.9489 103.315 97.5488 103.315C98.0692 103.315 98.5249 103.419 98.916 103.628C99.3071 103.834 99.6104 104.15 99.8258 104.578C100.045 105.002 100.154 105.542 100.154 106.199V111.051H98.9806V106.278C98.9806 105.672 98.8232 105.203 98.5083 104.871C98.1968 104.536 97.7643 104.369 97.2108 104.369C96.8263 104.369 96.4816 104.45 96.1767 104.613C95.8751 104.775 95.6364 105.012 95.4608 105.324C95.2884 105.635 95.2022 106.013 95.2022 106.457ZM103.474 106.457V111.051H102.3V103.414H103.434V104.608H103.533C103.712 104.22 103.984 103.908 104.349 103.673C104.713 103.434 105.184 103.315 105.761 103.315C106.278 103.315 106.73 103.421 107.118 103.633C107.506 103.842 107.807 104.16 108.023 104.588C108.238 105.012 108.346 105.549 108.346 106.199V111.051H107.173V106.278C107.173 105.678 107.017 105.211 106.705 104.876C106.394 104.538 105.966 104.369 105.423 104.369C105.048 104.369 104.713 104.45 104.418 104.613C104.127 104.775 103.896 105.012 103.727 105.324C103.558 105.635 103.474 106.013 103.474 106.457ZM122.78 104.051H121.547C121.474 103.696 121.346 103.385 121.164 103.116C120.985 102.848 120.766 102.622 120.508 102.44C120.252 102.254 119.969 102.115 119.657 102.022C119.346 101.93 119.021 101.883 118.683 101.883C118.067 101.883 117.508 102.039 117.008 102.35C116.51 102.662 116.114 103.121 115.819 103.728C115.528 104.334 115.382 105.078 115.382 105.96C115.382 106.842 115.528 107.586 115.819 108.192C116.114 108.799 116.51 109.258 117.008 109.569C117.508 109.881 118.067 110.037 118.683 110.037C119.021 110.037 119.346 109.99 119.657 109.897C119.969 109.805 120.252 109.667 120.508 109.485C120.766 109.299 120.985 109.072 121.164 108.804C121.346 108.532 121.474 108.22 121.547 107.869H122.78C122.687 108.389 122.518 108.855 122.273 109.266C122.027 109.677 121.722 110.027 121.358 110.315C120.993 110.6 120.584 110.817 120.13 110.966C119.679 111.115 119.197 111.19 118.683 111.19C117.815 111.19 117.042 110.978 116.366 110.554C115.69 110.129 115.158 109.526 114.77 108.744C114.383 107.962 114.189 107.034 114.189 105.96C114.189 104.886 114.383 103.958 114.77 103.176C115.158 102.394 115.69 101.79 116.366 101.366C117.042 100.942 117.815 100.73 118.683 100.73C119.197 100.73 119.679 100.804 120.13 100.953C120.584 101.103 120.993 101.321 121.358 101.61C121.722 101.895 122.027 102.243 122.273 102.654C122.518 103.061 122.687 103.527 122.78 104.051ZM125.786 100.869V111.051H124.613V100.869H125.786ZM127.935 111.051V103.414H129.108V111.051H127.935ZM128.532 102.142C128.303 102.142 128.106 102.064 127.94 101.908C127.778 101.752 127.697 101.565 127.697 101.346C127.697 101.127 127.778 100.94 127.94 100.784C128.106 100.629 128.303 100.551 128.532 100.551C128.76 100.551 128.956 100.629 129.118 100.784C129.284 100.94 129.367 101.127 129.367 101.346C129.367 101.565 129.284 101.752 129.118 101.908C128.956 102.064 128.76 102.142 128.532 102.142ZM134.459 111.21C133.723 111.21 133.089 111.047 132.555 110.723C132.025 110.395 131.615 109.937 131.327 109.35C131.042 108.761 130.9 108.074 130.9 107.292C130.9 106.51 131.042 105.821 131.327 105.224C131.615 104.624 132.016 104.157 132.53 103.822C133.047 103.484 133.65 103.315 134.34 103.315C134.738 103.315 135.13 103.381 135.518 103.514C135.906 103.646 136.259 103.862 136.577 104.16C136.895 104.455 137.149 104.846 137.338 105.333C137.527 105.821 137.621 106.421 137.621 107.133V107.63H131.735V106.616H136.428C136.428 106.185 136.342 105.801 136.169 105.463C136 105.125 135.758 104.858 135.444 104.662C135.132 104.467 134.764 104.369 134.34 104.369C133.873 104.369 133.468 104.485 133.127 104.717C132.789 104.946 132.529 105.244 132.346 105.612C132.164 105.98 132.073 106.374 132.073 106.795V107.471C132.073 108.048 132.172 108.537 132.371 108.938C132.573 109.336 132.853 109.639 133.211 109.848C133.569 110.053 133.985 110.156 134.459 110.156C134.767 110.156 135.046 110.113 135.294 110.027C135.546 109.937 135.763 109.805 135.946 109.629C136.128 109.45 136.269 109.228 136.368 108.963L137.502 109.281C137.382 109.665 137.182 110.003 136.9 110.295C136.618 110.583 136.27 110.809 135.856 110.971C135.442 111.13 134.976 111.21 134.459 111.21ZM140.579 106.457V111.051H139.406V103.414H140.539V104.608H140.639C140.818 104.22 141.09 103.908 141.454 103.673C141.819 103.434 142.289 103.315 142.866 103.315C143.383 103.315 143.836 103.421 144.223 103.633C144.611 103.842 144.913 104.16 145.128 104.588C145.344 105.012 145.451 105.549 145.451 106.199V111.051H144.278V106.278C144.278 105.678 144.122 105.211 143.811 104.876C143.499 104.538 143.072 104.369 142.528 104.369C142.154 104.369 141.819 104.45 141.524 104.613C141.232 104.775 141.002 105.012 140.833 105.324C140.664 105.635 140.579 106.013 140.579 106.457ZM150.916 103.414V104.409H146.959V103.414H150.916ZM148.112 101.585H149.286V108.863C149.286 109.195 149.334 109.443 149.43 109.609C149.529 109.771 149.655 109.881 149.808 109.937C149.963 109.99 150.128 110.017 150.3 110.017C150.429 110.017 150.535 110.01 150.618 109.997C150.701 109.98 150.767 109.967 150.817 109.957L151.056 111.011C150.976 111.041 150.865 111.071 150.722 111.1C150.58 111.134 150.399 111.15 150.181 111.15C149.849 111.15 149.524 111.079 149.206 110.936C148.891 110.794 148.629 110.577 148.421 110.285C148.215 109.993 148.112 109.626 148.112 109.181V101.585ZM157.951 111.051V112.145H151.588V111.051H157.951ZM161.895 111.21C161.259 111.21 160.697 111.049 160.21 110.728C159.722 110.403 159.341 109.945 159.066 109.355C158.791 108.762 158.653 108.061 158.653 107.252C158.653 106.45 158.791 105.754 159.066 105.164C159.341 104.574 159.724 104.119 160.214 103.797C160.705 103.476 161.272 103.315 161.915 103.315C162.412 103.315 162.805 103.398 163.093 103.564C163.385 103.726 163.607 103.912 163.759 104.12C163.915 104.326 164.036 104.495 164.122 104.627H164.222V100.869H165.395V111.051H164.261V109.877H164.122C164.036 110.017 163.913 110.192 163.754 110.404C163.595 110.613 163.368 110.801 163.073 110.966C162.778 111.129 162.385 111.21 161.895 111.21ZM162.054 110.156C162.525 110.156 162.922 110.033 163.247 109.788C163.572 109.539 163.819 109.196 163.988 108.759C164.157 108.318 164.241 107.809 164.241 107.233C164.241 106.663 164.159 106.164 163.993 105.736C163.827 105.305 163.582 104.971 163.257 104.732C162.932 104.49 162.531 104.369 162.054 104.369C161.557 104.369 161.143 104.497 160.811 104.752C160.483 105.004 160.236 105.347 160.07 105.781C159.908 106.212 159.827 106.696 159.827 107.233C159.827 107.776 159.91 108.27 160.075 108.714C160.244 109.155 160.493 109.506 160.821 109.768C161.152 110.027 161.563 110.156 162.054 110.156ZM170.809 111.21C170.12 111.21 169.515 111.046 168.994 110.718C168.477 110.39 168.073 109.931 167.781 109.341C167.493 108.751 167.349 108.061 167.349 107.272C167.349 106.477 167.493 105.783 167.781 105.189C168.073 104.596 168.477 104.135 168.994 103.807C169.515 103.479 170.12 103.315 170.809 103.315C171.498 103.315 172.102 103.479 172.619 103.807C173.139 104.135 173.543 104.596 173.832 105.189C174.123 105.783 174.269 106.477 174.269 107.272C174.269 108.061 174.123 108.751 173.832 109.341C173.543 109.931 173.139 110.39 172.619 110.718C172.102 111.046 171.498 111.21 170.809 111.21ZM170.809 110.156C171.333 110.156 171.763 110.022 172.102 109.753C172.44 109.485 172.69 109.132 172.852 108.694C173.015 108.257 173.096 107.783 173.096 107.272C173.096 106.762 173.015 106.286 172.852 105.846C172.69 105.405 172.44 105.048 172.102 104.777C171.763 104.505 171.333 104.369 170.809 104.369C170.285 104.369 169.854 104.505 169.516 104.777C169.178 105.048 168.928 105.405 168.766 105.846C168.603 106.286 168.522 106.762 168.522 107.272C168.522 107.783 168.603 108.257 168.766 108.694C168.928 109.132 169.178 109.485 169.516 109.753C169.854 110.022 170.285 110.156 170.809 110.156ZM177.531 111.051L175.204 103.414H176.437L178.087 109.261H178.167L179.798 103.414H181.05L182.661 109.241H182.741L184.391 103.414H185.624L183.298 111.051H182.144L180.474 105.184H180.354L178.684 111.051H177.531ZM188.349 106.457V111.051H187.175V103.414H188.309V104.608H188.408C188.587 104.22 188.859 103.908 189.224 103.673C189.588 103.434 190.059 103.315 190.636 103.315C191.153 103.315 191.605 103.421 191.993 103.633C192.381 103.842 192.682 104.16 192.898 104.588C193.113 105.012 193.221 105.549 193.221 106.199V111.051H192.048V106.278C192.048 105.678 191.892 105.211 191.58 104.876C191.269 104.538 190.841 104.369 190.298 104.369C189.923 104.369 189.588 104.45 189.293 104.613C189.002 104.775 188.771 105.012 188.602 105.324C188.433 105.635 188.349 106.013 188.349 106.457ZM196.538 100.869V111.051H195.365V100.869H196.538ZM201.789 111.21C201.1 111.21 200.495 111.046 199.975 110.718C199.458 110.39 199.053 109.931 198.762 109.341C198.473 108.751 198.329 108.061 198.329 107.272C198.329 106.477 198.473 105.783 198.762 105.189C199.053 104.596 199.458 104.135 199.975 103.807C200.495 103.479 201.1 103.315 201.789 103.315C202.479 103.315 203.082 103.479 203.599 103.807C204.119 104.135 204.524 104.596 204.812 105.189C205.104 105.783 205.25 106.477 205.25 107.272C205.25 108.061 205.104 108.751 204.812 109.341C204.524 109.931 204.119 110.39 203.599 110.718C203.082 111.046 202.479 111.21 201.789 111.21ZM201.789 110.156C202.313 110.156 202.744 110.022 203.082 109.753C203.42 109.485 203.67 109.132 203.833 108.694C203.995 108.257 204.076 107.783 204.076 107.272C204.076 106.762 203.995 106.286 203.833 105.846C203.67 105.405 203.42 105.048 203.082 104.777C202.744 104.505 202.313 104.369 201.789 104.369C201.266 104.369 200.835 104.505 200.497 104.777C200.159 105.048 199.908 105.405 199.746 105.846C199.584 106.286 199.502 106.762 199.502 107.272C199.502 107.783 199.584 108.257 199.746 108.694C199.908 109.132 200.159 109.485 200.497 109.753C200.835 110.022 201.266 110.156 201.789 110.156ZM209.288 111.23C208.804 111.23 208.365 111.139 207.97 110.956C207.576 110.771 207.263 110.504 207.031 110.156C206.799 109.805 206.683 109.38 206.683 108.883C206.683 108.446 206.769 108.091 206.941 107.819C207.114 107.544 207.344 107.329 207.632 107.173C207.921 107.017 208.239 106.901 208.587 106.825C208.938 106.745 209.291 106.682 209.646 106.636C210.11 106.576 210.486 106.532 210.774 106.502C211.066 106.469 211.278 106.414 211.411 106.338C211.547 106.261 211.615 106.129 211.615 105.94V105.9C211.615 105.41 211.48 105.029 211.212 104.757C210.947 104.485 210.544 104.349 210.004 104.349C209.444 104.349 209.004 104.472 208.686 104.717C208.368 104.962 208.144 105.224 208.015 105.502L206.901 105.105C207.1 104.641 207.365 104.279 207.697 104.021C208.032 103.759 208.396 103.577 208.791 103.474C209.188 103.368 209.579 103.315 209.964 103.315C210.209 103.315 210.491 103.345 210.809 103.404C211.131 103.461 211.441 103.578 211.739 103.757C212.04 103.936 212.291 104.207 212.49 104.568C212.688 104.929 212.788 105.413 212.788 106.02V111.051H211.615V110.017H211.555C211.475 110.182 211.343 110.36 211.157 110.549C210.972 110.738 210.725 110.898 210.416 111.031C210.108 111.163 209.732 111.23 209.288 111.23ZM209.467 110.176C209.931 110.176 210.322 110.085 210.64 109.902C210.962 109.72 211.204 109.485 211.366 109.196C211.532 108.908 211.615 108.605 211.615 108.287V107.213C211.565 107.272 211.455 107.327 211.286 107.377C211.121 107.423 210.928 107.465 210.71 107.501C210.494 107.534 210.284 107.564 210.078 107.591C209.876 107.614 209.712 107.634 209.586 107.65C209.281 107.69 208.996 107.755 208.731 107.844C208.469 107.93 208.257 108.061 208.095 108.237C207.936 108.409 207.856 108.645 207.856 108.943C207.856 109.35 208.007 109.659 208.308 109.868C208.613 110.073 208.999 110.176 209.467 110.176ZM217.813 111.21C217.176 111.21 216.615 111.049 216.127 110.728C215.64 110.403 215.259 109.945 214.984 109.355C214.709 108.762 214.571 108.061 214.571 107.252C214.571 106.45 214.709 105.754 214.984 105.164C215.259 104.574 215.642 104.119 216.132 103.797C216.623 103.476 217.19 103.315 217.833 103.315C218.33 103.315 218.723 103.398 219.011 103.564C219.303 103.726 219.525 103.912 219.677 104.12C219.833 104.326 219.954 104.495 220.04 104.627H220.14V100.869H221.313V111.051H220.179V109.877H220.04C219.954 110.017 219.831 110.192 219.672 110.404C219.513 110.613 219.286 110.801 218.991 110.966C218.696 111.129 218.303 111.21 217.813 111.21ZM217.972 110.156C218.443 110.156 218.84 110.033 219.165 109.788C219.49 109.539 219.737 109.196 219.906 108.759C220.075 108.318 220.159 107.809 220.159 107.233C220.159 106.663 220.077 106.164 219.911 105.736C219.745 105.305 219.5 104.971 219.175 104.732C218.85 104.49 218.449 104.369 217.972 104.369C217.475 104.369 217.06 104.497 216.729 104.752C216.401 105.004 216.154 105.347 215.988 105.781C215.826 106.212 215.745 106.696 215.745 107.233C215.745 107.776 215.828 108.27 215.993 108.714C216.162 109.155 216.411 109.506 216.739 109.768C217.07 110.027 217.481 110.156 217.972 110.156ZM224.48 111.13C224.234 111.13 224.024 111.042 223.848 110.867C223.673 110.691 223.585 110.481 223.585 110.235C223.585 109.99 223.673 109.78 223.848 109.604C224.024 109.428 224.234 109.341 224.48 109.341C224.725 109.341 224.935 109.428 225.111 109.604C225.287 109.78 225.375 109.99 225.375 110.235C225.375 110.398 225.333 110.547 225.25 110.683C225.171 110.819 225.063 110.928 224.927 111.011C224.795 111.091 224.645 111.13 224.48 111.13ZM227.639 111.051V100.869H231.08C231.878 100.869 232.531 101.013 233.038 101.301C233.549 101.587 233.927 101.973 234.172 102.46C234.417 102.947 234.54 103.491 234.54 104.091C234.54 104.69 234.417 105.236 234.172 105.726C233.93 106.217 233.555 106.608 233.048 106.9C232.541 107.188 231.892 107.332 231.099 107.332H228.634V106.238H231.06C231.607 106.238 232.046 106.144 232.377 105.955C232.709 105.766 232.949 105.511 233.098 105.189C233.25 104.864 233.327 104.498 233.327 104.091C233.327 103.683 233.25 103.318 233.098 102.997C232.949 102.675 232.707 102.423 232.372 102.241C232.037 102.056 231.593 101.963 231.04 101.963H228.872V111.051H227.639ZM239.168 111.21C238.532 111.21 237.97 111.049 237.483 110.728C236.996 110.403 236.615 109.945 236.339 109.355C236.064 108.762 235.927 108.061 235.927 107.252C235.927 106.45 236.064 105.754 236.339 105.164C236.615 104.574 236.997 104.119 237.488 103.797C237.978 103.476 238.545 103.315 239.188 103.315C239.685 103.315 240.078 103.398 240.366 103.564C240.658 103.726 240.88 103.912 241.033 104.12C241.188 104.326 241.309 104.495 241.396 104.627H241.495V100.869H242.668V111.051H241.535V109.877H241.396C241.309 110.017 241.187 110.192 241.028 110.404C240.869 110.613 240.642 110.801 240.347 110.966C240.052 111.129 239.659 111.21 239.168 111.21ZM239.327 110.156C239.798 110.156 240.196 110.033 240.521 109.788C240.845 109.539 241.092 109.196 241.261 108.759C241.43 108.318 241.515 107.809 241.515 107.233C241.515 106.663 241.432 106.164 241.266 105.736C241.101 105.305 240.855 104.971 240.531 104.732C240.206 104.49 239.805 104.369 239.327 104.369C238.83 104.369 238.416 104.497 238.085 104.752C237.756 105.004 237.509 105.347 237.344 105.781C237.181 106.212 237.1 106.696 237.1 107.233C237.1 107.776 237.183 108.27 237.349 108.714C237.518 109.155 237.766 109.506 238.094 109.768C238.426 110.027 238.837 110.156 239.327 110.156ZM248.381 103.414V104.409H244.264V103.414H248.381ZM245.497 111.051V102.36C245.497 101.923 245.6 101.558 245.805 101.267C246.011 100.975 246.278 100.756 246.606 100.61C246.934 100.465 247.28 100.392 247.645 100.392C247.933 100.392 248.169 100.415 248.351 100.461C248.533 100.508 248.669 100.551 248.759 100.591L248.42 101.605C248.361 101.585 248.278 101.56 248.172 101.53C248.069 101.5 247.933 101.485 247.764 101.485C247.376 101.485 247.096 101.583 246.924 101.779C246.755 101.974 246.67 102.261 246.67 102.639V111.051H245.497Z" fill="black"/>
<rect x="77" y="124.051" width="132" height="8" rx="4" fill="#EFEFEF"/>
<path d="M308.797 101.445C308.797 100.676 308.168 100.047 307.399 100.047C306.63 100.047 306.001 100.676 306.001 101.445C306.001 102.213 306.63 102.842 307.399 102.842C308.168 102.842 308.797 102.213 308.797 101.445Z" fill="#A4A4A4"/>
<path d="M308.797 111.229C308.797 110.46 308.168 109.831 307.399 109.831C306.63 109.831 306.001 110.46 306.001 111.229C306.001 111.997 306.63 112.626 307.399 112.626C308.168 112.626 308.797 111.997 308.797 111.229Z" fill="#A4A4A4"/>
<path d="M308.797 106.337C308.797 105.568 308.168 104.939 307.399 104.939C306.63 104.939 306.001 105.568 306.001 106.337C306.001 107.105 306.63 107.734 307.399 107.734C308.168 107.734 308.797 107.105 308.797 106.337Z" fill="#A4A4A4"/>
<circle cx="43" cy="179.047" r="22" fill="#003FDB"/>
<path d="M40.3359 176.36L44.529 176.376M40.3123 182.65L43.4571 182.662M40.3241 179.505L46.6138 179.529" stroke="white" stroke-width="1.4" stroke-linecap="round"/>
<path d="M34.4168 176.286C35.1107 173.377 37.3925 171.112 40.3066 170.44C42.4111 169.955 44.5994 169.963 46.7002 170.464C49.6091 171.158 51.8739 173.44 52.5459 176.354C53.0312 178.459 53.023 180.647 52.5219 182.748C51.828 185.657 49.5462 187.921 46.6321 188.593C44.5276 189.079 42.3393 189.07 40.2385 188.569C37.3296 187.875 35.0648 185.594 34.3928 182.68C33.9075 180.575 33.9157 178.387 34.4168 176.286Z" stroke="white" stroke-width="1.4"/>
<path d="M78.233 164.865H79.7045L83.1648 173.317H83.2841L86.7443 164.865H88.2159V175.047H87.0625V167.311H86.9631L83.7812 175.047H82.6676L79.4858 167.311H79.3864V175.047H78.233V164.865ZM90.5289 175.047V167.411H91.7022V175.047H90.5289ZM91.1255 166.138C90.8968 166.138 90.6996 166.06 90.5339 165.904C90.3715 165.748 90.2903 165.561 90.2903 165.342C90.2903 165.124 90.3715 164.936 90.5339 164.781C90.6996 164.625 90.8968 164.547 91.1255 164.547C91.3542 164.547 91.5498 164.625 91.7122 164.781C91.8779 164.936 91.9608 165.124 91.9608 165.342C91.9608 165.561 91.8779 165.748 91.7122 165.904C91.5498 166.06 91.3542 166.138 91.1255 166.138ZM96.9535 175.206C96.2376 175.206 95.6211 175.037 95.104 174.699C94.587 174.361 94.1893 173.895 93.9109 173.302C93.6325 172.709 93.4933 172.031 93.4933 171.268C93.4933 170.493 93.6358 169.808 93.9208 169.215C94.2092 168.619 94.6102 168.153 95.1239 167.818C95.641 167.48 96.2442 167.311 96.9336 167.311C97.4705 167.311 97.9544 167.411 98.3853 167.609C98.8162 167.808 99.1692 168.087 99.4442 168.445C99.7193 168.803 99.89 169.22 99.9563 169.697H98.783C98.6935 169.349 98.4947 169.041 98.1864 168.773C97.8815 168.501 97.4705 168.365 96.9535 168.365C96.4961 168.365 96.0951 168.484 95.7504 168.723C95.409 168.958 95.1422 169.291 94.9499 169.722C94.761 170.15 94.6665 170.652 94.6665 171.229C94.6665 171.819 94.7594 172.332 94.945 172.77C95.1339 173.207 95.399 173.547 95.7404 173.789C96.0851 174.031 96.4895 174.152 96.9535 174.152C97.2584 174.152 97.5352 174.099 97.7837 173.993C98.0323 173.887 98.2428 173.734 98.4151 173.536C98.5875 173.337 98.7101 173.098 98.783 172.82H99.9563C99.89 173.27 99.726 173.676 99.4641 174.038C99.2056 174.396 98.8626 174.681 98.435 174.893C98.0108 175.102 97.5169 175.206 96.9535 175.206ZM102.845 170.453V175.047H101.672V164.865H102.845V168.604H102.944C103.123 168.209 103.392 167.896 103.75 167.664C104.111 167.429 104.592 167.311 105.191 167.311C105.712 167.311 106.167 167.415 106.559 167.624C106.95 167.83 107.253 168.146 107.468 168.574C107.687 168.998 107.797 169.538 107.797 170.195V175.047H106.623V170.274C106.623 169.668 106.466 169.199 106.151 168.867C105.839 168.532 105.407 168.365 104.853 168.365C104.469 168.365 104.124 168.446 103.819 168.609C103.518 168.771 103.279 169.008 103.103 169.32C102.931 169.631 102.845 170.009 102.845 170.453ZM113.145 175.206C112.409 175.206 111.774 175.044 111.241 174.719C110.71 174.391 110.301 173.933 110.013 173.347C109.728 172.757 109.585 172.071 109.585 171.288C109.585 170.506 109.728 169.817 110.013 169.22C110.301 168.62 110.702 168.153 111.216 167.818C111.733 167.48 112.336 167.311 113.025 167.311C113.423 167.311 113.816 167.377 114.204 167.51C114.591 167.643 114.944 167.858 115.263 168.156C115.581 168.451 115.834 168.842 116.023 169.33C116.212 169.817 116.307 170.417 116.307 171.129V171.626H110.42V170.612H115.113C115.113 170.181 115.027 169.797 114.855 169.459C114.686 169.121 114.444 168.854 114.129 168.658C113.818 168.463 113.45 168.365 113.025 168.365C112.558 168.365 112.154 168.481 111.812 168.713C111.474 168.942 111.214 169.24 111.032 169.608C110.849 169.976 110.758 170.37 110.758 170.791V171.467C110.758 172.044 110.858 172.533 111.057 172.934C111.259 173.332 111.539 173.635 111.897 173.844C112.255 174.049 112.671 174.152 113.145 174.152C113.453 174.152 113.731 174.109 113.98 174.023C114.232 173.933 114.449 173.801 114.631 173.625C114.814 173.446 114.954 173.224 115.054 172.959L116.187 173.277C116.068 173.661 115.867 174 115.586 174.291C115.304 174.58 114.956 174.805 114.542 174.967C114.127 175.126 113.662 175.206 113.145 175.206ZM119.265 164.865V175.047H118.091V164.865H119.265ZM124.615 175.206C123.88 175.206 123.245 175.044 122.711 174.719C122.181 174.391 121.772 173.933 121.483 173.347C121.198 172.757 121.056 172.071 121.056 171.288C121.056 170.506 121.198 169.817 121.483 169.22C121.772 168.62 122.173 168.153 122.686 167.818C123.203 167.48 123.807 167.311 124.496 167.311C124.894 167.311 125.287 167.377 125.674 167.51C126.062 167.643 126.415 167.858 126.733 168.156C127.051 168.451 127.305 168.842 127.494 169.33C127.683 169.817 127.777 170.417 127.777 171.129V171.626H121.891V170.612H126.584C126.584 170.181 126.498 169.797 126.326 169.459C126.157 169.121 125.915 168.854 125.6 168.658C125.288 168.463 124.92 168.365 124.496 168.365C124.029 168.365 123.624 168.481 123.283 168.713C122.945 168.942 122.685 169.24 122.502 169.608C122.32 169.976 122.229 170.37 122.229 170.791V171.467C122.229 172.044 122.328 172.533 122.527 172.934C122.73 173.332 123.01 173.635 123.368 173.844C123.725 174.049 124.141 174.152 124.615 174.152C124.924 174.152 125.202 174.109 125.451 174.023C125.703 173.933 125.92 173.801 126.102 173.625C126.284 173.446 126.425 173.224 126.525 172.959L127.658 173.277C127.539 173.661 127.338 174 127.056 174.291C126.775 174.58 126.427 174.805 126.012 174.967C125.598 175.126 125.132 175.206 124.615 175.206ZM133.659 175.047V164.865H134.892V173.953H139.625V175.047H133.659ZM144.576 175.206C143.841 175.206 143.206 175.044 142.672 174.719C142.142 174.391 141.733 173.933 141.444 173.347C141.159 172.757 141.017 172.071 141.017 171.288C141.017 170.506 141.159 169.817 141.444 169.22C141.733 168.62 142.134 168.153 142.647 167.818C143.164 167.48 143.768 167.311 144.457 167.311C144.855 167.311 145.248 167.377 145.635 167.51C146.023 167.643 146.376 167.858 146.694 168.156C147.012 168.451 147.266 168.842 147.455 169.33C147.644 169.817 147.738 170.417 147.738 171.129V171.626H141.852V170.612H146.545C146.545 170.181 146.459 169.797 146.287 169.459C146.118 169.121 145.876 168.854 145.561 168.658C145.249 168.463 144.881 168.365 144.457 168.365C143.99 168.365 143.585 168.481 143.244 168.713C142.906 168.942 142.646 169.24 142.463 169.608C142.281 169.976 142.19 170.37 142.19 170.791V171.467C142.19 172.044 142.289 172.533 142.488 172.934C142.69 173.332 142.971 173.635 143.328 173.844C143.686 174.049 144.102 174.152 144.576 174.152C144.885 174.152 145.163 174.109 145.412 174.023C145.663 173.933 145.881 173.801 146.063 173.625C146.245 173.446 146.386 173.224 146.485 172.959L147.619 173.277C147.5 173.661 147.299 174 147.017 174.291C146.736 174.58 146.388 174.805 145.973 174.967C145.559 175.126 145.093 175.206 144.576 175.206ZM152.625 175.206C151.936 175.206 151.331 175.042 150.811 174.714C150.294 174.386 149.889 173.927 149.598 173.337C149.309 172.747 149.165 172.057 149.165 171.268C149.165 170.473 149.309 169.779 149.598 169.185C149.889 168.592 150.294 168.131 150.811 167.803C151.331 167.475 151.936 167.311 152.625 167.311C153.315 167.311 153.918 167.475 154.435 167.803C154.955 168.131 155.36 168.592 155.648 169.185C155.94 169.779 156.086 170.473 156.086 171.268C156.086 172.057 155.94 172.747 155.648 173.337C155.36 173.927 154.955 174.386 154.435 174.714C153.918 175.042 153.315 175.206 152.625 175.206ZM152.625 174.152C153.149 174.152 153.58 174.018 153.918 173.749C154.256 173.481 154.506 173.128 154.669 172.69C154.831 172.253 154.912 171.779 154.912 171.268C154.912 170.758 154.831 170.282 154.669 169.842C154.506 169.401 154.256 169.045 153.918 168.773C153.58 168.501 153.149 168.365 152.625 168.365C152.102 168.365 151.671 168.501 151.333 168.773C150.995 169.045 150.744 169.401 150.582 169.842C150.42 170.282 150.338 170.758 150.338 171.268C150.338 171.779 150.42 172.253 150.582 172.69C150.744 173.128 150.995 173.481 151.333 173.749C151.671 174.018 152.102 174.152 152.625 174.152ZM163.286 169.121L162.232 169.419C162.165 169.243 162.068 169.073 161.938 168.907C161.812 168.738 161.64 168.599 161.421 168.489C161.203 168.38 160.923 168.325 160.581 168.325C160.114 168.325 159.724 168.433 159.413 168.648C159.105 168.861 158.95 169.131 158.95 169.459C158.95 169.75 159.057 169.981 159.269 170.15C159.481 170.319 159.812 170.46 160.263 170.572L161.396 170.851C162.079 171.017 162.588 171.27 162.923 171.612C163.258 171.95 163.425 172.385 163.425 172.919C163.425 173.357 163.299 173.748 163.047 174.092C162.798 174.437 162.45 174.709 162.003 174.908C161.556 175.107 161.035 175.206 160.442 175.206C159.663 175.206 159.018 175.037 158.508 174.699C157.998 174.361 157.674 173.867 157.539 173.217L158.652 172.939C158.758 173.35 158.959 173.658 159.254 173.864C159.552 174.069 159.941 174.172 160.422 174.172C160.969 174.172 161.403 174.056 161.725 173.824C162.049 173.589 162.212 173.307 162.212 172.979C162.212 172.714 162.119 172.491 161.933 172.312C161.748 172.13 161.463 171.994 161.078 171.905L159.806 171.607C159.106 171.441 158.593 171.184 158.264 170.836C157.94 170.485 157.777 170.045 157.777 169.518C157.777 169.088 157.898 168.706 158.14 168.375C158.385 168.044 158.718 167.783 159.139 167.594C159.564 167.406 160.044 167.311 160.581 167.311C161.337 167.311 161.93 167.477 162.361 167.808C162.795 168.14 163.103 168.577 163.286 169.121ZM170.461 175.047V176.141H164.097V175.047H170.461ZM174.405 175.206C173.768 175.206 173.206 175.045 172.719 174.724C172.232 174.399 171.851 173.942 171.576 173.352C171.301 172.758 171.163 172.057 171.163 171.249C171.163 170.446 171.301 169.75 171.576 169.161C171.851 168.571 172.234 168.115 172.724 167.793C173.215 167.472 173.782 167.311 174.425 167.311C174.922 167.311 175.314 167.394 175.603 167.56C175.894 167.722 176.117 167.908 176.269 168.116C176.425 168.322 176.546 168.491 176.632 168.624H176.731V164.865H177.905V175.047H176.771V173.874H176.632C176.546 174.013 176.423 174.188 176.264 174.401C176.105 174.609 175.878 174.797 175.583 174.962C175.288 175.125 174.895 175.206 174.405 175.206ZM174.564 174.152C175.034 174.152 175.432 174.029 175.757 173.784C176.082 173.536 176.329 173.192 176.498 172.755C176.667 172.314 176.751 171.805 176.751 171.229C176.751 170.659 176.668 170.16 176.503 169.732C176.337 169.301 176.092 168.967 175.767 168.728C175.442 168.486 175.041 168.365 174.564 168.365C174.067 168.365 173.652 168.493 173.321 168.748C172.993 169 172.746 169.343 172.58 169.777C172.418 170.208 172.336 170.692 172.336 171.229C172.336 171.772 172.419 172.266 172.585 172.71C172.754 173.151 173.003 173.502 173.331 173.764C173.662 174.023 174.073 174.152 174.564 174.152ZM183.319 175.206C182.629 175.206 182.024 175.042 181.504 174.714C180.987 174.386 180.583 173.927 180.291 173.337C180.003 172.747 179.858 172.057 179.858 171.268C179.858 170.473 180.003 169.779 180.291 169.185C180.583 168.592 180.987 168.131 181.504 167.803C182.024 167.475 182.629 167.311 183.319 167.311C184.008 167.311 184.611 167.475 185.128 167.803C185.649 168.131 186.053 168.592 186.341 169.185C186.633 169.779 186.779 170.473 186.779 171.268C186.779 172.057 186.633 172.747 186.341 173.337C186.053 173.927 185.649 174.386 185.128 174.714C184.611 175.042 184.008 175.206 183.319 175.206ZM183.319 174.152C183.842 174.152 184.273 174.018 184.611 173.749C184.949 173.481 185.2 173.128 185.362 172.69C185.524 172.253 185.606 171.779 185.606 171.268C185.606 170.758 185.524 170.282 185.362 169.842C185.2 169.401 184.949 169.045 184.611 168.773C184.273 168.501 183.842 168.365 183.319 168.365C182.795 168.365 182.364 168.501 182.026 168.773C181.688 169.045 181.438 169.401 181.275 169.842C181.113 170.282 181.032 170.758 181.032 171.268C181.032 171.779 181.113 172.253 181.275 172.69C181.438 173.128 181.688 173.481 182.026 173.749C182.364 174.018 182.795 174.152 183.319 174.152ZM190.04 175.047L187.714 167.411H188.947L190.597 173.257H190.677L192.307 167.411H193.56L195.171 173.237H195.251L196.901 167.411H198.134L195.807 175.047H194.654L192.983 169.18H192.864L191.194 175.047H190.04ZM200.858 170.453V175.047H199.685V167.411H200.819V168.604H200.918C201.097 168.216 201.369 167.904 201.733 167.669C202.098 167.43 202.569 167.311 203.145 167.311C203.662 167.311 204.115 167.417 204.503 167.629C204.89 167.838 205.192 168.156 205.407 168.584C205.623 169.008 205.731 169.545 205.731 170.195V175.047H204.557V170.274C204.557 169.674 204.402 169.207 204.09 168.872C203.778 168.534 203.351 168.365 202.807 168.365C202.433 168.365 202.098 168.446 201.803 168.609C201.511 168.771 201.281 169.008 201.112 169.32C200.943 169.631 200.858 170.009 200.858 170.453ZM209.048 164.865V175.047H207.875V164.865H209.048ZM214.299 175.206C213.61 175.206 213.005 175.042 212.485 174.714C211.968 174.386 211.563 173.927 211.271 173.337C210.983 172.747 210.839 172.057 210.839 171.268C210.839 170.473 210.983 169.779 211.271 169.185C211.563 168.592 211.968 168.131 212.485 167.803C213.005 167.475 213.61 167.311 214.299 167.311C214.989 167.311 215.592 167.475 216.109 167.803C216.629 168.131 217.034 168.592 217.322 169.185C217.614 169.779 217.759 170.473 217.759 171.268C217.759 172.057 217.614 172.747 217.322 173.337C217.034 173.927 216.629 174.386 216.109 174.714C215.592 175.042 214.989 175.206 214.299 175.206ZM214.299 174.152C214.823 174.152 215.254 174.018 215.592 173.749C215.93 173.481 216.18 173.128 216.343 172.69C216.505 172.253 216.586 171.779 216.586 171.268C216.586 170.758 216.505 170.282 216.343 169.842C216.18 169.401 215.93 169.045 215.592 168.773C215.254 168.501 214.823 168.365 214.299 168.365C213.776 168.365 213.345 168.501 213.007 168.773C212.669 169.045 212.418 169.401 212.256 169.842C212.093 170.282 212.012 170.758 212.012 171.268C212.012 171.779 212.093 172.253 212.256 172.69C212.418 173.128 212.669 173.481 213.007 173.749C213.345 174.018 213.776 174.152 214.299 174.152ZM221.798 175.226C221.314 175.226 220.875 175.135 220.48 174.952C220.086 174.767 219.772 174.5 219.54 174.152C219.308 173.801 219.192 173.376 219.192 172.879C219.192 172.442 219.279 172.087 219.451 171.815C219.623 171.54 219.854 171.325 220.142 171.169C220.43 171.013 220.749 170.897 221.097 170.821C221.448 170.741 221.801 170.679 222.156 170.632C222.62 170.572 222.996 170.528 223.284 170.498C223.576 170.465 223.788 170.41 223.92 170.334C224.056 170.258 224.124 170.125 224.124 169.936V169.896C224.124 169.406 223.99 169.025 223.722 168.753C223.456 168.481 223.054 168.345 222.513 168.345C221.953 168.345 221.514 168.468 221.196 168.713C220.878 168.958 220.654 169.22 220.525 169.499L219.411 169.101C219.61 168.637 219.875 168.276 220.207 168.017C220.541 167.755 220.906 167.573 221.3 167.47C221.698 167.364 222.089 167.311 222.474 167.311C222.719 167.311 223.001 167.341 223.319 167.401C223.64 167.457 223.95 167.575 224.249 167.754C224.55 167.933 224.8 168.203 224.999 168.564C225.198 168.925 225.298 169.409 225.298 170.016V175.047H224.124V174.013H224.065C223.985 174.179 223.853 174.356 223.667 174.545C223.481 174.734 223.234 174.894 222.926 175.027C222.618 175.16 222.242 175.226 221.798 175.226ZM221.977 174.172C222.441 174.172 222.832 174.081 223.15 173.898C223.471 173.716 223.713 173.481 223.876 173.192C224.041 172.904 224.124 172.601 224.124 172.283V171.209C224.075 171.268 223.965 171.323 223.796 171.373C223.63 171.419 223.438 171.461 223.219 171.497C223.004 171.53 222.794 171.56 222.588 171.587C222.386 171.61 222.222 171.63 222.096 171.646C221.791 171.686 221.506 171.751 221.241 171.84C220.979 171.926 220.767 172.057 220.604 172.233C220.445 172.405 220.366 172.641 220.366 172.939C220.366 173.347 220.517 173.655 220.818 173.864C221.123 174.069 221.509 174.172 221.977 174.172ZM230.323 175.206C229.686 175.206 229.124 175.045 228.637 174.724C228.15 174.399 227.769 173.942 227.494 173.352C227.219 172.758 227.081 172.057 227.081 171.249C227.081 170.446 227.219 169.75 227.494 169.161C227.769 168.571 228.152 168.115 228.642 167.793C229.133 167.472 229.7 167.311 230.343 167.311C230.84 167.311 231.232 167.394 231.521 167.56C231.812 167.722 232.035 167.908 232.187 168.116C232.343 168.322 232.464 168.491 232.55 168.624H232.649V164.865H233.823V175.047H232.689V173.874H232.55C232.464 174.013 232.341 174.188 232.182 174.401C232.023 174.609 231.796 174.797 231.501 174.962C231.206 175.125 230.813 175.206 230.323 175.206ZM230.482 174.152C230.952 174.152 231.35 174.029 231.675 173.784C232 173.536 232.247 173.192 232.416 172.755C232.585 172.314 232.669 171.805 232.669 171.229C232.669 170.659 232.586 170.16 232.421 169.732C232.255 169.301 232.01 168.967 231.685 168.728C231.36 168.486 230.959 168.365 230.482 168.365C229.985 168.365 229.57 168.493 229.239 168.748C228.911 169 228.664 169.343 228.498 169.777C228.336 170.208 228.254 170.692 228.254 171.229C228.254 171.772 228.337 172.266 228.503 172.71C228.672 173.151 228.921 173.502 229.249 173.764C229.58 174.023 229.991 174.152 230.482 174.152ZM236.99 175.126C236.744 175.126 236.534 175.039 236.358 174.863C236.182 174.687 236.095 174.477 236.095 174.232C236.095 173.986 236.182 173.776 236.358 173.6C236.534 173.424 236.744 173.337 236.99 173.337C237.235 173.337 237.445 173.424 237.621 173.6C237.797 173.776 237.884 173.986 237.884 174.232C237.884 174.394 237.843 174.543 237.76 174.679C237.681 174.815 237.573 174.924 237.437 175.007C237.304 175.087 237.155 175.126 236.99 175.126ZM240.149 175.047V164.865H243.589C244.388 164.865 245.041 165.009 245.548 165.298C246.059 165.583 246.436 165.969 246.682 166.456C246.927 166.943 247.05 167.487 247.05 168.087C247.05 168.687 246.927 169.232 246.682 169.722C246.44 170.213 246.065 170.604 245.558 170.896C245.051 171.184 244.401 171.328 243.609 171.328H241.143V170.234H243.569C244.116 170.234 244.555 170.14 244.887 169.951C245.218 169.762 245.459 169.507 245.608 169.185C245.76 168.861 245.836 168.494 245.836 168.087C245.836 167.679 245.76 167.314 245.608 166.993C245.459 166.671 245.217 166.42 244.882 166.237C244.547 166.052 244.103 165.959 243.55 165.959H241.382V175.047H240.149ZM251.678 175.206C251.042 175.206 250.48 175.045 249.993 174.724C249.506 174.399 249.124 173.942 248.849 173.352C248.574 172.758 248.437 172.057 248.437 171.249C248.437 170.446 248.574 169.75 248.849 169.161C249.124 168.571 249.507 168.115 249.998 167.793C250.488 167.472 251.055 167.311 251.698 167.311C252.195 167.311 252.588 167.394 252.876 167.56C253.168 167.722 253.39 167.908 253.542 168.116C253.698 168.322 253.819 168.491 253.905 168.624H254.005V164.865H255.178V175.047H254.045V173.874H253.905C253.819 174.013 253.697 174.188 253.537 174.401C253.378 174.609 253.151 174.797 252.856 174.962C252.561 175.125 252.169 175.206 251.678 175.206ZM251.837 174.152C252.308 174.152 252.706 174.029 253.03 173.784C253.355 173.536 253.602 173.192 253.771 172.755C253.94 172.314 254.025 171.805 254.025 171.229C254.025 170.659 253.942 170.16 253.776 169.732C253.61 169.301 253.365 168.967 253.04 168.728C252.715 168.486 252.314 168.365 251.837 168.365C251.34 168.365 250.926 168.493 250.594 168.748C250.266 169 250.019 169.343 249.854 169.777C249.691 170.208 249.61 170.692 249.61 171.229C249.61 171.772 249.693 172.266 249.858 172.71C250.028 173.151 250.276 173.502 250.604 173.764C250.936 174.023 251.347 174.152 251.837 174.152ZM260.89 167.411V168.405H256.774V167.411H260.89ZM258.007 175.047V166.357C258.007 165.919 258.11 165.554 258.315 165.263C258.521 164.971 258.787 164.752 259.116 164.607C259.444 164.461 259.79 164.388 260.155 164.388C260.443 164.388 260.678 164.411 260.861 164.457C261.043 164.504 261.179 164.547 261.268 164.587L260.93 165.601C260.871 165.581 260.788 165.556 260.682 165.526C260.579 165.496 260.443 165.482 260.274 165.482C259.886 165.482 259.606 165.579 259.434 165.775C259.265 165.97 259.18 166.257 259.18 166.635V175.047H258.007Z" fill="black"/>
<rect x="77" y="188.047" width="132" height="8" rx="4" fill="#EFEFEF"/>
<path d="M308.797 165.441C308.797 164.672 308.168 164.043 307.399 164.043C306.63 164.043 306.001 164.672 306.001 165.441C306.001 166.209 306.63 166.838 307.399 166.838C308.168 166.838 308.797 166.209 308.797 165.441Z" fill="#A4A4A4"/>
<path d="M308.797 175.225C308.797 174.456 308.168 173.827 307.399 173.827C306.63 173.827 306.001 174.456 306.001 175.225C306.001 175.993 306.63 176.622 307.399 176.622C308.168 176.622 308.797 175.993 308.797 175.225Z" fill="#A4A4A4"/>
<path d="M308.797 170.333C308.797 169.564 308.168 168.935 307.399 168.935C306.63 168.935 306.001 169.564 306.001 170.333C306.001 171.101 306.63 171.73 307.399 171.73C308.168 171.73 308.797 171.101 308.797 170.333Z" fill="#A4A4A4"/>
<circle cx="43" cy="243.047" r="22" fill="#A3DC2F"/>
<path d="M40.3359 240.36L44.529 240.376M40.3123 246.65L43.4571 246.662M40.3241 243.505L46.6138 243.529" stroke="white" stroke-width="1.4" stroke-linecap="round"/>
<path d="M34.4168 240.286C35.1107 237.377 37.3925 235.112 40.3066 234.44C42.4111 233.955 44.5994 233.963 46.7002 234.464C49.6091 235.158 51.8739 237.44 52.5459 240.354C53.0312 242.459 53.023 244.647 52.5219 246.748C51.828 249.657 49.5462 251.921 46.6321 252.593C44.5276 253.079 42.3393 253.07 40.2385 252.569C37.3296 251.875 35.0648 249.594 34.3928 246.68C33.9075 244.575 33.9157 242.387 34.4168 240.286Z" stroke="white" stroke-width="1.4"/>
<path d="M82.1307 228.865H83.3636V236.143C83.3636 236.793 83.2443 237.345 83.0057 237.799C82.767 238.253 82.4306 238.598 81.9964 238.833C81.5623 239.068 81.0502 239.186 80.4602 239.186C79.9034 239.186 79.4079 239.085 78.9737 238.883C78.5395 238.677 78.1982 238.386 77.9496 238.008C77.701 237.63 77.5767 237.181 77.5767 236.661H78.7898C78.7898 236.949 78.861 237.201 79.0036 237.416C79.1494 237.628 79.3482 237.794 79.6001 237.913C79.852 238.033 80.1387 238.092 80.4602 238.092C80.8149 238.092 81.1165 238.018 81.3651 237.869C81.6136 237.719 81.8026 237.501 81.9318 237.212C82.0644 236.921 82.1307 236.564 82.1307 236.143V228.865ZM88.7777 239.206C88.0883 239.206 87.4834 239.042 86.9631 238.714C86.446 238.386 86.0417 237.927 85.75 237.337C85.4616 236.747 85.3175 236.057 85.3175 235.268C85.3175 234.473 85.4616 233.779 85.75 233.185C86.0417 232.592 86.446 232.131 86.9631 231.803C87.4834 231.475 88.0883 231.311 88.7777 231.311C89.4671 231.311 90.0703 231.475 90.5874 231.803C91.1077 232.131 91.5121 232.592 91.8004 233.185C92.0921 233.779 92.2379 234.473 92.2379 235.268C92.2379 236.057 92.0921 236.747 91.8004 237.337C91.5121 237.927 91.1077 238.386 90.5874 238.714C90.0703 239.042 89.4671 239.206 88.7777 239.206ZM88.7777 238.152C89.3014 238.152 89.7322 238.018 90.0703 237.749C90.4084 237.481 90.6586 237.128 90.821 236.69C90.9834 236.253 91.0646 235.779 91.0646 235.268C91.0646 234.758 90.9834 234.282 90.821 233.842C90.6586 233.401 90.4084 233.045 90.0703 232.773C89.7322 232.501 89.3014 232.365 88.7777 232.365C88.254 232.365 87.8232 232.501 87.4851 232.773C87.147 233.045 86.8968 233.401 86.7344 233.842C86.572 234.282 86.4908 234.758 86.4908 235.268C86.4908 235.779 86.572 236.253 86.7344 236.69C86.8968 237.128 87.147 237.481 87.4851 237.749C87.8232 238.018 88.254 238.152 88.7777 238.152ZM95.2022 234.453V239.047H94.0289V228.865H95.2022V232.604H95.3017C95.4806 232.209 95.7491 231.896 96.1071 231.664C96.4683 231.429 96.9489 231.311 97.5488 231.311C98.0692 231.311 98.5249 231.415 98.916 231.624C99.3071 231.83 99.6104 232.146 99.8258 232.574C100.045 232.998 100.154 233.538 100.154 234.195V239.047H98.9806V234.274C98.9806 233.668 98.8232 233.199 98.5083 232.867C98.1968 232.532 97.7643 232.365 97.2108 232.365C96.8263 232.365 96.4816 232.446 96.1767 232.609C95.8751 232.771 95.6364 233.008 95.4608 233.32C95.2884 233.631 95.2022 234.009 95.2022 234.453ZM103.474 234.453V239.047H102.3V231.411H103.434V232.604H103.533C103.712 232.216 103.984 231.904 104.349 231.669C104.713 231.43 105.184 231.311 105.761 231.311C106.278 231.311 106.73 231.417 107.118 231.629C107.506 231.838 107.807 232.156 108.023 232.584C108.238 233.008 108.346 233.545 108.346 234.195V239.047H107.173V234.274C107.173 233.674 107.017 233.207 106.705 232.872C106.394 232.534 105.966 232.365 105.423 232.365C105.048 232.365 104.713 232.446 104.418 232.609C104.127 232.771 103.896 233.008 103.727 233.32C103.558 233.631 103.474 234.009 103.474 234.453ZM120.155 231.411C120.095 230.907 119.853 230.516 119.429 230.237C119.005 229.959 118.484 229.82 117.868 229.82C117.417 229.82 117.023 229.893 116.684 230.038C116.35 230.184 116.088 230.385 115.899 230.64C115.713 230.895 115.621 231.185 115.621 231.51C115.621 231.782 115.685 232.015 115.814 232.211C115.947 232.403 116.116 232.564 116.322 232.693C116.527 232.819 116.742 232.924 116.968 233.006C117.193 233.086 117.4 233.151 117.589 233.2L118.623 233.479C118.889 233.548 119.184 233.644 119.508 233.767C119.836 233.89 120.15 234.057 120.448 234.269C120.75 234.478 120.998 234.746 121.194 235.075C121.389 235.403 121.487 235.805 121.487 236.283C121.487 236.833 121.343 237.33 121.055 237.774C120.769 238.218 120.352 238.571 119.802 238.833C119.255 239.095 118.59 239.226 117.808 239.226C117.079 239.226 116.448 239.108 115.914 238.873C115.384 238.638 114.966 238.309 114.661 237.888C114.359 237.468 114.189 236.979 114.149 236.422H115.422C115.455 236.806 115.584 237.125 115.809 237.376C116.038 237.625 116.327 237.811 116.675 237.933C117.026 238.053 117.404 238.112 117.808 238.112C118.279 238.112 118.701 238.036 119.076 237.884C119.45 237.728 119.747 237.512 119.966 237.237C120.184 236.959 120.294 236.634 120.294 236.263C120.294 235.925 120.199 235.65 120.01 235.438C119.822 235.225 119.573 235.053 119.265 234.92C118.956 234.788 118.623 234.672 118.265 234.572L117.013 234.214C116.217 233.986 115.587 233.659 115.123 233.235C114.659 232.811 114.427 232.256 114.427 231.57C114.427 231 114.581 230.502 114.89 230.078C115.201 229.651 115.619 229.319 116.143 229.084C116.67 228.845 117.258 228.726 117.907 228.726C118.564 228.726 119.147 228.844 119.657 229.079C120.168 229.311 120.572 229.629 120.871 230.033C121.172 230.438 121.331 230.897 121.348 231.411H120.155ZM123.355 239.047V231.411H124.489V232.604H124.588C124.747 232.196 125.004 231.879 125.359 231.654C125.713 231.425 126.139 231.311 126.636 231.311C127.14 231.311 127.559 231.425 127.894 231.654C128.232 231.879 128.496 232.196 128.685 232.604H128.764C128.96 232.209 129.253 231.896 129.644 231.664C130.035 231.429 130.504 231.311 131.051 231.311C131.734 231.311 132.292 231.525 132.727 231.952C133.161 232.377 133.378 233.038 133.378 233.936V239.047H132.205V233.936C132.205 233.373 132.05 232.97 131.742 232.728C131.434 232.486 131.071 232.365 130.653 232.365C130.116 232.365 129.701 232.527 129.406 232.852C129.111 233.174 128.963 233.581 128.963 234.075V239.047H127.77V233.817C127.77 233.383 127.629 233.033 127.347 232.768C127.066 232.499 126.703 232.365 126.259 232.365C125.954 232.365 125.669 232.446 125.403 232.609C125.142 232.771 124.929 232.996 124.767 233.285C124.608 233.57 124.528 233.9 124.528 234.274V239.047H123.355ZM135.523 239.047V231.411H136.696V239.047H135.523ZM136.12 230.138C135.891 230.138 135.694 230.06 135.528 229.904C135.366 229.748 135.284 229.561 135.284 229.342C135.284 229.124 135.366 228.936 135.528 228.781C135.694 228.625 135.891 228.547 136.12 228.547C136.348 228.547 136.544 228.625 136.706 228.781C136.872 228.936 136.955 229.124 136.955 229.342C136.955 229.561 136.872 229.748 136.706 229.904C136.544 230.06 136.348 230.138 136.12 230.138ZM142.166 231.411V232.405H138.209V231.411H142.166ZM139.362 229.581H140.536V236.859C140.536 237.191 140.584 237.439 140.68 237.605C140.779 237.768 140.905 237.877 141.058 237.933C141.213 237.986 141.378 238.013 141.55 238.013C141.679 238.013 141.785 238.006 141.868 237.993C141.951 237.976 142.017 237.963 142.067 237.953L142.306 239.007C142.226 239.037 142.115 239.067 141.972 239.097C141.83 239.13 141.649 239.146 141.431 239.146C141.099 239.146 140.774 239.075 140.456 238.933C140.141 238.79 139.879 238.573 139.671 238.281C139.465 237.99 139.362 237.622 139.362 237.178V229.581ZM145.269 234.453V239.047H144.095V228.865H145.269V232.604H145.368C145.547 232.209 145.816 231.896 146.173 231.664C146.535 231.429 147.015 231.311 147.615 231.311C148.136 231.311 148.591 231.415 148.982 231.624C149.374 231.83 149.677 232.146 149.892 232.574C150.111 232.998 150.22 233.538 150.22 234.195V239.047H149.047V234.274C149.047 233.668 148.89 233.199 148.575 232.867C148.263 232.532 147.831 232.365 147.277 232.365C146.893 232.365 146.548 232.446 146.243 232.609C145.941 232.771 145.703 233.008 145.527 233.32C145.355 233.631 145.269 234.009 145.269 234.453ZM157.637 239.047V240.141H151.273V239.047H157.637ZM161.58 239.206C160.944 239.206 160.382 239.045 159.895 238.724C159.408 238.399 159.027 237.942 158.752 237.352C158.477 236.758 158.339 236.057 158.339 235.249C158.339 234.446 158.477 233.75 158.752 233.161C159.027 232.571 159.41 232.115 159.9 231.793C160.391 231.472 160.957 231.311 161.6 231.311C162.097 231.311 162.49 231.394 162.779 231.56C163.07 231.722 163.292 231.908 163.445 232.116C163.601 232.322 163.722 232.491 163.808 232.624H163.907V228.865H165.08V239.047H163.947V237.874H163.808C163.722 238.013 163.599 238.188 163.44 238.401C163.281 238.609 163.054 238.797 162.759 238.962C162.464 239.125 162.071 239.206 161.58 239.206ZM161.74 238.152C162.21 238.152 162.608 238.029 162.933 237.784C163.258 237.536 163.504 237.192 163.673 236.755C163.843 236.314 163.927 235.805 163.927 235.229C163.927 234.659 163.844 234.16 163.678 233.732C163.513 233.301 163.267 232.967 162.943 232.728C162.618 232.486 162.217 232.365 161.74 232.365C161.242 232.365 160.828 232.493 160.497 232.748C160.169 233 159.922 233.343 159.756 233.777C159.593 234.208 159.512 234.692 159.512 235.229C159.512 235.772 159.595 236.266 159.761 236.71C159.93 237.151 160.178 237.502 160.507 237.764C160.838 238.023 161.249 238.152 161.74 238.152ZM170.494 239.206C169.805 239.206 169.2 239.042 168.68 238.714C168.163 238.386 167.758 237.927 167.467 237.337C167.178 236.747 167.034 236.057 167.034 235.268C167.034 234.473 167.178 233.779 167.467 233.185C167.758 232.592 168.163 232.131 168.68 231.803C169.2 231.475 169.805 231.311 170.494 231.311C171.184 231.311 171.787 231.475 172.304 231.803C172.825 232.131 173.229 232.592 173.517 233.185C173.809 233.779 173.955 234.473 173.955 235.268C173.955 236.057 173.809 236.747 173.517 237.337C173.229 237.927 172.825 238.386 172.304 238.714C171.787 239.042 171.184 239.206 170.494 239.206ZM170.494 238.152C171.018 238.152 171.449 238.018 171.787 237.749C172.125 237.481 172.375 237.128 172.538 236.69C172.7 236.253 172.781 235.779 172.781 235.268C172.781 234.758 172.7 234.282 172.538 233.842C172.375 233.401 172.125 233.045 171.787 232.773C171.449 232.501 171.018 232.365 170.494 232.365C169.971 232.365 169.54 232.501 169.202 232.773C168.864 233.045 168.614 233.401 168.451 233.842C168.289 234.282 168.208 234.758 168.208 235.268C168.208 235.779 168.289 236.253 168.451 236.69C168.614 237.128 168.864 237.481 169.202 237.749C169.54 238.018 169.971 238.152 170.494 238.152ZM177.216 239.047L174.889 231.411H176.122L177.773 237.257H177.852L179.483 231.411H180.736L182.347 237.237H182.426L184.077 231.411H185.31L182.983 239.047H181.83L180.159 233.18H180.04L178.369 239.047H177.216ZM188.034 234.453V239.047H186.861V231.411H187.994V232.604H188.094C188.273 232.216 188.545 231.904 188.909 231.669C189.274 231.43 189.744 231.311 190.321 231.311C190.838 231.311 191.291 231.417 191.678 231.629C192.066 231.838 192.368 232.156 192.583 232.584C192.799 233.008 192.906 233.545 192.906 234.195V239.047H191.733V234.274C191.733 233.674 191.577 233.207 191.266 232.872C190.954 232.534 190.527 232.365 189.983 232.365C189.609 232.365 189.274 232.446 188.979 232.609C188.687 232.771 188.457 233.008 188.288 233.32C188.119 233.631 188.034 234.009 188.034 234.453ZM196.224 228.865V239.047H195.05V228.865H196.224ZM201.475 239.206C200.786 239.206 200.181 239.042 199.66 238.714C199.143 238.386 198.739 237.927 198.447 237.337C198.159 236.747 198.015 236.057 198.015 235.268C198.015 234.473 198.159 233.779 198.447 233.185C198.739 232.592 199.143 232.131 199.66 231.803C200.181 231.475 200.786 231.311 201.475 231.311C202.164 231.311 202.768 231.475 203.285 231.803C203.805 232.131 204.209 232.592 204.498 233.185C204.789 233.779 204.935 234.473 204.935 235.268C204.935 236.057 204.789 236.747 204.498 237.337C204.209 237.927 203.805 238.386 203.285 238.714C202.768 239.042 202.164 239.206 201.475 239.206ZM201.475 238.152C201.999 238.152 202.43 238.018 202.768 237.749C203.106 237.481 203.356 237.128 203.518 236.69C203.681 236.253 203.762 235.779 203.762 235.268C203.762 234.758 203.681 234.282 203.518 233.842C203.356 233.401 203.106 233.045 202.768 232.773C202.43 232.501 201.999 232.365 201.475 232.365C200.951 232.365 200.52 232.501 200.182 232.773C199.844 233.045 199.594 233.401 199.432 233.842C199.269 234.282 199.188 234.758 199.188 235.268C199.188 235.779 199.269 236.253 199.432 236.69C199.594 237.128 199.844 237.481 200.182 237.749C200.52 238.018 200.951 238.152 201.475 238.152ZM208.973 239.226C208.489 239.226 208.05 239.135 207.656 238.952C207.261 238.767 206.948 238.5 206.716 238.152C206.484 237.801 206.368 237.376 206.368 236.879C206.368 236.442 206.454 236.087 206.627 235.815C206.799 235.54 207.029 235.325 207.318 235.169C207.606 235.013 207.924 234.897 208.272 234.821C208.624 234.741 208.977 234.679 209.331 234.632C209.795 234.572 210.172 234.528 210.46 234.498C210.752 234.465 210.964 234.41 211.096 234.334C211.232 234.258 211.3 234.125 211.3 233.936V233.896C211.3 233.406 211.166 233.025 210.897 232.753C210.632 232.481 210.23 232.345 209.689 232.345C209.129 232.345 208.69 232.468 208.372 232.713C208.054 232.958 207.83 233.22 207.701 233.499L206.587 233.101C206.786 232.637 207.051 232.276 207.382 232.017C207.717 231.755 208.082 231.573 208.476 231.47C208.874 231.364 209.265 231.311 209.65 231.311C209.895 231.311 210.176 231.341 210.495 231.401C210.816 231.457 211.126 231.575 211.424 231.754C211.726 231.933 211.976 232.203 212.175 232.564C212.374 232.925 212.473 233.409 212.473 234.016V239.047H211.3V238.013H211.24C211.161 238.179 211.028 238.356 210.843 238.545C210.657 238.734 210.41 238.894 210.102 239.027C209.794 239.16 209.417 239.226 208.973 239.226ZM209.152 238.172C209.616 238.172 210.007 238.081 210.326 237.898C210.647 237.716 210.889 237.481 211.051 237.192C211.217 236.904 211.3 236.601 211.3 236.283V235.209C211.25 235.268 211.141 235.323 210.972 235.373C210.806 235.419 210.614 235.461 210.395 235.497C210.18 235.53 209.969 235.56 209.764 235.587C209.562 235.61 209.398 235.63 209.272 235.646C208.967 235.686 208.682 235.751 208.417 235.84C208.155 235.926 207.943 236.057 207.78 236.233C207.621 236.405 207.542 236.641 207.542 236.939C207.542 237.347 207.692 237.655 207.994 237.864C208.299 238.069 208.685 238.172 209.152 238.172ZM217.498 239.206C216.862 239.206 216.3 239.045 215.813 238.724C215.326 238.399 214.945 237.942 214.67 237.352C214.394 236.758 214.257 236.057 214.257 235.249C214.257 234.446 214.394 233.75 214.67 233.161C214.945 232.571 215.327 232.115 215.818 231.793C216.309 231.472 216.875 231.311 217.518 231.311C218.015 231.311 218.408 231.394 218.697 231.56C218.988 231.722 219.21 231.908 219.363 232.116C219.519 232.322 219.64 232.491 219.726 232.624H219.825V228.865H220.998V239.047H219.865V237.874H219.726C219.64 238.013 219.517 238.188 219.358 238.401C219.199 238.609 218.972 238.797 218.677 238.962C218.382 239.125 217.989 239.206 217.498 239.206ZM217.657 238.152C218.128 238.152 218.526 238.029 218.851 237.784C219.175 237.536 219.422 237.192 219.591 236.755C219.76 236.314 219.845 235.805 219.845 235.229C219.845 234.659 219.762 234.16 219.596 233.732C219.431 233.301 219.185 232.967 218.861 232.728C218.536 232.486 218.135 232.365 217.657 232.365C217.16 232.365 216.746 232.493 216.415 232.748C216.086 233 215.84 233.343 215.674 233.777C215.511 234.208 215.43 234.692 215.43 235.229C215.43 235.772 215.513 236.266 215.679 236.71C215.848 237.151 216.096 237.502 216.425 237.764C216.756 238.023 217.167 238.152 217.657 238.152ZM224.165 239.126C223.92 239.126 223.71 239.039 223.534 238.863C223.358 238.687 223.27 238.477 223.27 238.232C223.27 237.986 223.358 237.776 223.534 237.6C223.71 237.424 223.92 237.337 224.165 237.337C224.411 237.337 224.621 237.424 224.797 237.6C224.972 237.776 225.06 237.986 225.06 238.232C225.06 238.394 225.019 238.543 224.936 238.679C224.856 238.815 224.749 238.924 224.613 239.007C224.48 239.087 224.331 239.126 224.165 239.126ZM227.325 239.047V228.865H230.765C231.564 228.865 232.217 229.009 232.724 229.298C233.234 229.583 233.612 229.969 233.857 230.456C234.103 230.943 234.225 231.487 234.225 232.087C234.225 232.687 234.103 233.232 233.857 233.722C233.615 234.213 233.241 234.604 232.734 234.896C232.227 235.184 231.577 235.328 230.785 235.328H228.319V234.234H230.745C231.292 234.234 231.731 234.14 232.063 233.951C232.394 233.762 232.634 233.507 232.784 233.185C232.936 232.861 233.012 232.494 233.012 232.087C233.012 231.679 232.936 231.314 232.784 230.993C232.634 230.671 232.392 230.42 232.058 230.237C231.723 230.052 231.279 229.959 230.725 229.959H228.558V239.047H227.325ZM238.854 239.206C238.218 239.206 237.656 239.045 237.169 238.724C236.681 238.399 236.3 237.942 236.025 237.352C235.75 236.758 235.612 236.057 235.612 235.249C235.612 234.446 235.75 233.75 236.025 233.161C236.3 232.571 236.683 232.115 237.173 231.793C237.664 231.472 238.231 231.311 238.874 231.311C239.371 231.311 239.764 231.394 240.052 231.56C240.344 231.722 240.566 231.908 240.718 232.116C240.874 232.322 240.995 232.491 241.081 232.624H241.181V228.865H242.354V239.047H241.22V237.874H241.081C240.995 238.013 240.872 238.188 240.713 238.401C240.554 238.609 240.327 238.797 240.032 238.962C239.737 239.125 239.344 239.206 238.854 239.206ZM239.013 238.152C239.484 238.152 239.881 238.029 240.206 237.784C240.531 237.536 240.778 237.192 240.947 236.755C241.116 236.314 241.2 235.805 241.2 235.229C241.2 234.659 241.118 234.16 240.952 233.732C240.786 233.301 240.541 232.967 240.216 232.728C239.891 232.486 239.49 232.365 239.013 232.365C238.516 232.365 238.102 232.493 237.77 232.748C237.442 233 237.195 233.343 237.029 233.777C236.867 234.208 236.786 234.692 236.786 235.229C236.786 235.772 236.869 236.266 237.034 236.71C237.203 237.151 237.452 237.502 237.78 237.764C238.111 238.023 238.522 238.152 239.013 238.152ZM248.066 231.411V232.405H243.95V231.411H248.066ZM245.183 239.047V230.357C245.183 229.919 245.285 229.554 245.491 229.263C245.696 228.971 245.963 228.752 246.291 228.607C246.619 228.461 246.966 228.388 247.33 228.388C247.619 228.388 247.854 228.411 248.036 228.457C248.219 228.504 248.355 228.547 248.444 228.587L248.106 229.601C248.046 229.581 247.963 229.556 247.857 229.526C247.755 229.496 247.619 229.482 247.45 229.482C247.062 229.482 246.782 229.579 246.61 229.775C246.441 229.97 246.356 230.257 246.356 230.635V239.047H245.183Z" fill="black"/>
<rect x="77" y="252.047" width="132" height="8" rx="4" fill="#EFEFEF"/>
<path d="M308.797 229.441C308.797 228.672 308.168 228.043 307.399 228.043C306.63 228.043 306.001 228.672 306.001 229.441C306.001 230.209 306.63 230.838 307.399 230.838C308.168 230.838 308.797 230.209 308.797 229.441Z" fill="#A4A4A4"/>
<path d="M308.797 239.225C308.797 238.456 308.168 237.827 307.399 237.827C306.63 237.827 306.001 238.456 306.001 239.225C306.001 239.993 306.63 240.622 307.399 240.622C308.168 240.622 308.797 239.993 308.797 239.225Z" fill="#A4A4A4"/>
<path d="M308.797 234.333C308.797 233.564 308.168 232.935 307.399 232.935C306.63 232.935 306.001 233.564 306.001 234.333C306.001 235.101 306.63 235.73 307.399 235.73C308.168 235.73 308.797 235.101 308.797 234.333Z" fill="#A4A4A4"/>
</svg>
