<svg width="346" height="349" viewBox="0 0 346 349" fill="none" xmlns="http://www.w3.org/2000/svg">
<rect width="346" height="349" rx="16" fill="white"/>
<path d="M22.4382 54.9091H24.8352L29.0028 65.0852H29.1562L33.3239 54.9091H35.7209V68H33.8416V58.527H33.7202L29.8594 67.9808H28.2997L24.4389 58.5206H24.3175V68H22.4382V54.9091ZM42.5748 68.1982C41.6543 68.1982 40.851 67.9872 40.165 67.5653C39.4789 67.1435 38.9462 66.5533 38.5669 65.7947C38.1877 65.0362 37.998 64.1499 37.998 63.1357C37.998 62.1172 38.1877 61.2266 38.5669 60.4638C38.9462 59.701 39.4789 59.1087 40.165 58.6868C40.851 58.2649 41.6543 58.054 42.5748 58.054C43.4952 58.054 44.2985 58.2649 44.9846 58.6868C45.6706 59.1087 46.2033 59.701 46.5826 60.4638C46.9618 61.2266 47.1515 62.1172 47.1515 63.1357C47.1515 64.1499 46.9618 65.0362 46.5826 65.7947C46.2033 66.5533 45.6706 67.1435 44.9846 67.5653C44.2985 67.9872 43.4952 68.1982 42.5748 68.1982ZM42.5811 66.5938C43.1777 66.5938 43.6721 66.4361 44.0641 66.1207C44.4561 65.8054 44.7459 65.3857 44.9334 64.8615C45.1252 64.3374 45.2211 63.7599 45.2211 63.1293C45.2211 62.5028 45.1252 61.9276 44.9334 61.4034C44.7459 60.875 44.4561 60.451 44.0641 60.1314C43.6721 59.8118 43.1777 59.652 42.5811 59.652C41.9803 59.652 41.4817 59.8118 41.0854 60.1314C40.6934 60.451 40.4015 60.875 40.2097 61.4034C40.0222 61.9276 39.9284 62.5028 39.9284 63.1293C39.9284 63.7599 40.0222 64.3374 40.2097 64.8615C40.4015 65.3857 40.6934 65.8054 41.0854 66.1207C41.4817 66.4361 41.9803 66.5938 42.5811 66.5938ZM51.196 62.1705V68H49.2848V58.1818H51.1193V59.7798H51.2408C51.4666 59.2599 51.8203 58.8423 52.3018 58.527C52.7876 58.2116 53.3991 58.054 54.1364 58.054C54.8054 58.054 55.3913 58.1946 55.8942 58.4759C56.397 58.7528 56.7869 59.1662 57.0639 59.7159C57.3409 60.2656 57.4794 60.9453 57.4794 61.755V68H55.5682V61.9851C55.5682 61.2734 55.3828 60.7173 55.0121 60.3168C54.6413 59.9119 54.1321 59.7095 53.4844 59.7095C53.0412 59.7095 52.647 59.8054 52.3018 59.9972C51.9609 60.1889 51.6903 60.4702 51.4901 60.8409C51.294 61.2074 51.196 61.6506 51.196 62.1705ZM64.6257 58.1818V59.7159H59.2628V58.1818H64.6257ZM60.701 55.8295H62.6122V65.1172C62.6122 65.4879 62.6676 65.767 62.7784 65.9545C62.8892 66.1378 63.032 66.2635 63.2067 66.3317C63.3857 66.3956 63.5795 66.4276 63.7884 66.4276C63.9418 66.4276 64.076 66.4169 64.1911 66.3956C64.3061 66.3743 64.3956 66.3572 64.4595 66.3445L64.8047 67.9233C64.6939 67.9659 64.5362 68.0085 64.3317 68.0511C64.1271 68.098 63.8714 68.1236 63.5646 68.1278C63.0618 68.1364 62.593 68.0469 62.1584 67.8594C61.7237 67.6719 61.3722 67.3821 61.1037 66.9901C60.8352 66.598 60.701 66.1058 60.701 65.5135V55.8295ZM68.862 62.1705V68H66.9508V54.9091H68.8365V59.7798H68.9579C69.188 59.2514 69.5396 58.8317 70.0126 58.5206C70.4856 58.2095 71.1035 58.054 71.8663 58.054C72.5396 58.054 73.1277 58.1925 73.6305 58.4695C74.1376 58.7464 74.5297 59.1598 74.8066 59.7095C75.0879 60.255 75.2285 60.9368 75.2285 61.755V68H73.3173V61.9851C73.3173 61.2649 73.1319 60.7067 72.7612 60.3104C72.3904 59.9098 71.8748 59.7095 71.2143 59.7095C70.7626 59.7095 70.3578 59.8054 69.9998 59.9972C69.6461 60.1889 69.367 60.4702 69.1625 60.8409C68.9622 61.2074 68.862 61.6506 68.862 62.1705ZM79.6902 54.9091V68H77.7789V54.9091H79.6902ZM83.4695 71.6818C83.1839 71.6818 82.924 71.6584 82.6896 71.6115C82.4553 71.5689 82.2805 71.522 82.1655 71.4709L82.6257 69.9048C82.9751 69.9986 83.2862 70.0391 83.5589 70.0263C83.8317 70.0135 84.0724 69.9112 84.2812 69.7195C84.4943 69.5277 84.6818 69.2145 84.8438 68.7798L85.0803 68.1278L81.4879 58.1818H83.5334L86.0199 65.8011H86.1222L88.6087 58.1818H90.6605L86.6143 69.3104C86.4268 69.8217 86.1882 70.2543 85.8984 70.608C85.6087 70.9659 85.2635 71.2344 84.8629 71.4134C84.4624 71.5923 83.9979 71.6818 83.4695 71.6818ZM97.3738 68V54.9091H99.3489V66.2997H105.281V68H97.3738ZM107.381 68V58.1818H109.292V68H107.381ZM108.346 56.6669C108.013 56.6669 107.728 56.5561 107.489 56.3345C107.255 56.1087 107.138 55.8402 107.138 55.5291C107.138 55.2138 107.255 54.9453 107.489 54.7237C107.728 54.4979 108.013 54.3849 108.346 54.3849C108.678 54.3849 108.961 54.4979 109.196 54.7237C109.434 54.9453 109.554 55.2138 109.554 55.5291C109.554 55.8402 109.434 56.1087 109.196 56.3345C108.961 56.5561 108.678 56.6669 108.346 56.6669ZM111.863 68V58.1818H113.697V59.7798H113.819C114.023 59.2386 114.358 58.8168 114.822 58.5142C115.287 58.2074 115.843 58.054 116.491 58.054C117.147 58.054 117.697 58.2074 118.14 58.5142C118.587 58.821 118.918 59.2429 119.131 59.7798H119.233C119.467 59.2557 119.84 58.8381 120.352 58.527C120.863 58.2116 121.472 58.054 122.18 58.054C123.07 58.054 123.797 58.3331 124.359 58.8913C124.926 59.4496 125.21 60.2912 125.21 61.4162V68H123.298V61.5952C123.298 60.9304 123.117 60.4489 122.755 60.1506C122.393 59.8523 121.96 59.7031 121.457 59.7031C120.835 59.7031 120.352 59.8949 120.006 60.2784C119.661 60.6577 119.489 61.1456 119.489 61.7422V68H117.584V61.4737C117.584 60.9411 117.418 60.5128 117.085 60.1889C116.753 59.8651 116.32 59.7031 115.788 59.7031C115.425 59.7031 115.091 59.799 114.784 59.9908C114.482 60.1783 114.237 60.4403 114.049 60.777C113.866 61.1136 113.774 61.5036 113.774 61.9467V68H111.863ZM127.771 68V58.1818H129.682V68H127.771ZM128.736 56.6669C128.404 56.6669 128.118 56.5561 127.88 56.3345C127.645 56.1087 127.528 55.8402 127.528 55.5291C127.528 55.2138 127.645 54.9453 127.88 54.7237C128.118 54.4979 128.404 54.3849 128.736 54.3849C129.069 54.3849 129.352 54.4979 129.586 54.7237C129.825 54.9453 129.944 55.2138 129.944 55.5291C129.944 55.8402 129.825 56.1087 129.586 56.3345C129.352 56.5561 129.069 56.6669 128.736 56.6669ZM136.837 58.1818V59.7159H131.474V58.1818H136.837ZM132.912 55.8295H134.823V65.1172C134.823 65.4879 134.879 65.767 134.989 65.9545C135.1 66.1378 135.243 66.2635 135.418 66.3317C135.597 66.3956 135.79 66.4276 135.999 66.4276C136.153 66.4276 136.287 66.4169 136.402 66.3956C136.517 66.3743 136.607 66.3572 136.67 66.3445L137.016 67.9233C136.905 67.9659 136.747 68.0085 136.543 68.0511C136.338 68.098 136.082 68.1236 135.776 68.1278C135.273 68.1364 134.804 68.0469 134.369 67.8594C133.935 67.6719 133.583 67.3821 133.315 66.9901C133.046 66.598 132.912 66.1058 132.912 65.5135V55.8295ZM143.077 68.1982C142.11 68.1982 141.276 67.9915 140.578 67.5781C139.883 67.1605 139.346 66.5746 138.967 65.8203C138.592 65.0618 138.404 64.1733 138.404 63.1548C138.404 62.1491 138.592 61.2628 138.967 60.4957C139.346 59.7287 139.874 59.13 140.552 58.6996C141.234 58.2692 142.031 58.054 142.943 58.054C143.497 58.054 144.034 58.1456 144.553 58.3288C145.073 58.5121 145.54 58.7997 145.953 59.1918C146.367 59.5838 146.693 60.093 146.931 60.7195C147.17 61.3416 147.289 62.098 147.289 62.9886V63.6662H139.485V62.2344H145.416C145.416 61.7315 145.314 61.2862 145.11 60.8984C144.905 60.5064 144.617 60.1974 144.247 59.9716C143.88 59.7457 143.45 59.6328 142.955 59.6328C142.419 59.6328 141.95 59.7649 141.549 60.0291C141.153 60.2891 140.846 60.63 140.629 61.0518C140.416 61.4695 140.309 61.9233 140.309 62.4134V63.532C140.309 64.1882 140.424 64.7464 140.654 65.2067C140.889 65.6669 141.215 66.0185 141.632 66.2614C142.05 66.5 142.538 66.6193 143.096 66.6193C143.458 66.6193 143.789 66.5682 144.087 66.4659C144.385 66.3594 144.643 66.2017 144.86 65.9929C145.078 65.7841 145.244 65.5263 145.359 65.2195L147.168 65.5455C147.023 66.0781 146.763 66.5447 146.388 66.9453C146.017 67.3416 145.551 67.6506 144.988 67.8722C144.43 68.0895 143.793 68.1982 143.077 68.1982Z" fill="black"/>
<circle cx="26" cy="24" r="5" fill="#FF0606"/>
<circle cx="43.5" cy="24" r="5" fill="#30C1FF"/>
<circle cx="61" cy="24" r="5" fill="#A3DC2F"/>
<path d="M25 212.432L47.9496 177.576L56.6749 188.648L89.347 137.888L115.719 230.906L139.282 177.576L168.462 188.648L179.431 137.888L196.861 132.081L238.611 159.084L272.367 72L318 95.3421" stroke="#003FDB" stroke-width="2" stroke-linecap="round" stroke-linejoin="round"/>
<path d="M26 256.976L49.7151 208.459L57.6763 241.496L89.2402 204.679L116.723 269L140.287 234.29L169.468 241.496L180.438 208.459L197.869 204.679L244.179 241.496L285.285 155.807L309 208.459" stroke="#BDBDBD" stroke-width="2" stroke-linecap="round" stroke-linejoin="round" stroke-dasharray="8 8"/>
<path d="M28.5852 302.097C28.1364 302.095 27.7528 301.976 27.4347 301.741C27.1165 301.507 26.8731 301.165 26.7045 300.716C26.536 300.267 26.4517 299.726 26.4517 299.094C26.4517 298.463 26.536 297.924 26.7045 297.477C26.875 297.03 27.1193 296.689 27.4375 296.455C27.7576 296.22 28.1402 296.102 28.5852 296.102C29.0303 296.102 29.4119 296.221 29.7301 296.457C30.0483 296.692 30.2917 297.033 30.4602 297.48C30.6307 297.925 30.7159 298.463 30.7159 299.094C30.7159 299.728 30.6316 300.27 30.4631 300.719C30.2945 301.166 30.0511 301.508 29.733 301.744C29.4148 301.979 29.0322 302.097 28.5852 302.097ZM28.5852 301.338C28.9792 301.338 29.2869 301.146 29.5085 300.761C29.732 300.377 29.8438 299.821 29.8438 299.094C29.8438 298.611 29.7926 298.203 29.6903 297.869C29.59 297.534 29.4451 297.28 29.2557 297.108C29.0682 296.934 28.8447 296.847 28.5852 296.847C28.1932 296.847 27.8854 297.04 27.6619 297.426C27.4384 297.812 27.3258 298.368 27.3239 299.094C27.3239 299.579 27.3741 299.989 27.4744 300.324C27.5767 300.657 27.7216 300.91 27.9091 301.082C28.0966 301.253 28.322 301.338 28.5852 301.338ZM33.9311 296.182V302H33.0504V297.062H33.0163L31.6243 297.972V297.131L33.076 296.182H33.9311ZM36.076 301.278C35.9207 301.278 35.7872 301.223 35.6754 301.114C35.5637 301.002 35.5078 300.867 35.5078 300.71C35.5078 300.555 35.5637 300.422 35.6754 300.312C35.7872 300.201 35.9207 300.145 36.076 300.145C36.2313 300.145 36.3648 300.201 36.4766 300.312C36.5883 300.422 36.6442 300.555 36.6442 300.71C36.6442 300.814 36.6177 300.91 36.5646 300.997C36.5135 301.082 36.4453 301.151 36.3601 301.202C36.2749 301.253 36.1802 301.278 36.076 301.278ZM36.076 298.364C35.9207 298.364 35.7872 298.309 35.6754 298.199C35.5637 298.087 35.5078 297.953 35.5078 297.795C35.5078 297.64 35.5637 297.508 35.6754 297.398C35.7872 297.286 35.9207 297.23 36.076 297.23C36.2313 297.23 36.3648 297.286 36.4766 297.398C36.5883 297.508 36.6442 297.64 36.6442 297.795C36.6442 297.9 36.6177 297.995 36.5646 298.082C36.5135 298.168 36.4453 298.236 36.3601 298.287C36.2749 298.338 36.1802 298.364 36.076 298.364ZM39.7962 302.097C39.3473 302.095 38.9638 301.976 38.6456 301.741C38.3274 301.507 38.084 301.165 37.9155 300.716C37.7469 300.267 37.6626 299.726 37.6626 299.094C37.6626 298.463 37.7469 297.924 37.9155 297.477C38.0859 297.03 38.3303 296.689 38.6484 296.455C38.9685 296.22 39.3511 296.102 39.7962 296.102C40.2412 296.102 40.6229 296.221 40.9411 296.457C41.2592 296.692 41.5026 297.033 41.6712 297.48C41.8416 297.925 41.9268 298.463 41.9268 299.094C41.9268 299.728 41.8426 300.27 41.674 300.719C41.5054 301.166 41.2621 301.508 40.9439 301.744C40.6257 301.979 40.2431 302.097 39.7962 302.097ZM39.7962 301.338C40.1901 301.338 40.4979 301.146 40.7195 300.761C40.9429 300.377 41.0547 299.821 41.0547 299.094C41.0547 298.611 41.0036 298.203 40.9013 297.869C40.8009 297.534 40.656 297.28 40.4666 297.108C40.2791 296.934 40.0556 296.847 39.7962 296.847C39.4041 296.847 39.0964 297.04 38.8729 297.426C38.6494 297.812 38.5367 298.368 38.5348 299.094C38.5348 299.579 38.585 299.989 38.6854 300.324C38.7876 300.657 38.9325 300.91 39.12 301.082C39.3075 301.253 39.5329 301.338 39.7962 301.338ZM44.9602 302.097C44.5114 302.095 44.1278 301.976 43.8097 301.741C43.4915 301.507 43.2481 301.165 43.0795 300.716C42.911 300.267 42.8267 299.726 42.8267 299.094C42.8267 298.463 42.911 297.924 43.0795 297.477C43.25 297.03 43.4943 296.689 43.8125 296.455C44.1326 296.22 44.5152 296.102 44.9602 296.102C45.4053 296.102 45.7869 296.221 46.1051 296.457C46.4233 296.692 46.6667 297.033 46.8352 297.48C47.0057 297.925 47.0909 298.463 47.0909 299.094C47.0909 299.728 47.0066 300.27 46.8381 300.719C46.6695 301.166 46.4261 301.508 46.108 301.744C45.7898 301.979 45.4072 302.097 44.9602 302.097ZM44.9602 301.338C45.3542 301.338 45.6619 301.146 45.8835 300.761C46.107 300.377 46.2188 299.821 46.2188 299.094C46.2188 298.611 46.1676 298.203 46.0653 297.869C45.965 297.534 45.8201 297.28 45.6307 297.108C45.4432 296.934 45.2197 296.847 44.9602 296.847C44.5682 296.847 44.2604 297.04 44.0369 297.426C43.8134 297.812 43.7008 298.368 43.6989 299.094C43.6989 299.579 43.7491 299.989 43.8494 300.324C43.9517 300.657 44.0966 300.91 44.2841 301.082C44.4716 301.253 44.697 301.338 44.9602 301.338ZM48.1783 302V296.182H50.2521C50.7048 296.182 51.0798 296.264 51.3771 296.429C51.6745 296.594 51.897 296.819 52.0447 297.105C52.1925 297.389 52.2663 297.709 52.2663 298.065C52.2663 298.423 52.1915 298.745 52.0419 299.031C51.8942 299.315 51.6707 299.541 51.3714 299.707C51.0741 299.872 50.7 299.955 50.2493 299.955H48.8232V299.21H50.1697C50.4557 299.21 50.6877 299.161 50.8658 299.062C51.0438 298.962 51.1745 298.826 51.2578 298.653C51.3411 298.481 51.3828 298.285 51.3828 298.065C51.3828 297.846 51.3411 297.651 51.2578 297.48C51.1745 297.31 51.0429 297.176 50.8629 297.08C50.6849 296.983 50.45 296.935 50.1584 296.935H49.0561V302H48.1783ZM53.2955 296.182H54.3608L56.2131 300.705H56.2812L58.1335 296.182H59.1989V302H58.3636V297.79H58.3097L56.5938 301.991H55.9006L54.1847 297.787H54.1307V302H53.2955V296.182ZM92.0618 302.097C91.6129 302.095 91.2294 301.976 90.9112 301.741C90.593 301.507 90.3497 301.165 90.1811 300.716C90.0125 300.267 89.9283 299.726 89.9283 299.094C89.9283 298.463 90.0125 297.924 90.1811 297.477C90.3516 297.03 90.5959 296.689 90.9141 296.455C91.2341 296.22 91.6167 296.102 92.0618 296.102C92.5069 296.102 92.8885 296.221 93.2067 296.457C93.5249 296.692 93.7682 297.033 93.9368 297.48C94.1072 297.925 94.1925 298.463 94.1925 299.094C94.1925 299.728 94.1082 300.27 93.9396 300.719C93.7711 301.166 93.5277 301.508 93.2095 301.744C92.8913 301.979 92.5088 302.097 92.0618 302.097ZM92.0618 301.338C92.4557 301.338 92.7635 301.146 92.9851 300.761C93.2086 300.377 93.3203 299.821 93.3203 299.094C93.3203 298.611 93.2692 298.203 93.1669 297.869C93.0665 297.534 92.9216 297.28 92.7322 297.108C92.5447 296.934 92.3213 296.847 92.0618 296.847C91.6697 296.847 91.362 297.04 91.1385 297.426C90.915 297.812 90.8023 298.368 90.8004 299.094C90.8004 299.579 90.8506 299.989 90.951 300.324C91.0533 300.657 91.1982 300.91 91.3857 301.082C91.5732 301.253 91.7985 301.338 92.0618 301.338ZM95.2003 302V301.364L97.169 299.324C97.3793 299.102 97.5526 298.908 97.6889 298.741C97.8272 298.573 97.9304 298.413 97.9986 298.261C98.0668 298.11 98.1009 297.949 98.1009 297.778C98.1009 297.585 98.0554 297.419 97.9645 297.278C97.8736 297.136 97.7495 297.027 97.5923 296.952C97.4351 296.874 97.258 296.835 97.0611 296.835C96.8527 296.835 96.6709 296.878 96.5156 296.963C96.3603 297.048 96.241 297.169 96.1577 297.324C96.0743 297.479 96.0327 297.661 96.0327 297.869H95.1946C95.1946 297.515 95.276 297.205 95.4389 296.94C95.6018 296.675 95.8253 296.47 96.1094 296.324C96.3935 296.176 96.7164 296.102 97.0781 296.102C97.4437 296.102 97.7656 296.175 98.044 296.321C98.3243 296.465 98.5431 296.662 98.7003 296.912C98.8575 297.16 98.9361 297.44 98.9361 297.753C98.9361 297.969 98.8954 298.18 98.8139 298.386C98.7344 298.593 98.5952 298.823 98.3963 299.077C98.1974 299.329 97.9209 299.634 97.5668 299.994L96.4105 301.205V301.247H99.0298V302H95.2003ZM100.678 301.278C100.522 301.278 100.389 301.223 100.277 301.114C100.165 301.002 100.109 300.867 100.109 300.71C100.109 300.555 100.165 300.422 100.277 300.312C100.389 300.201 100.522 300.145 100.678 300.145C100.833 300.145 100.966 300.201 101.078 300.312C101.19 300.422 101.246 300.555 101.246 300.71C101.246 300.814 101.219 300.91 101.166 300.997C101.115 301.082 101.047 301.151 100.962 301.202C100.876 301.253 100.782 301.278 100.678 301.278ZM100.678 298.364C100.522 298.364 100.389 298.309 100.277 298.199C100.165 298.087 100.109 297.953 100.109 297.795C100.109 297.64 100.165 297.508 100.277 297.398C100.389 297.286 100.522 297.23 100.678 297.23C100.833 297.23 100.966 297.286 101.078 297.398C101.19 297.508 101.246 297.64 101.246 297.795C101.246 297.9 101.219 297.995 101.166 298.082C101.115 298.168 101.047 298.236 100.962 298.287C100.876 298.338 100.782 298.364 100.678 298.364ZM104.398 302.097C103.949 302.095 103.565 301.976 103.247 301.741C102.929 301.507 102.686 301.165 102.517 300.716C102.348 300.267 102.264 299.726 102.264 299.094C102.264 298.463 102.348 297.924 102.517 297.477C102.688 297.03 102.932 296.689 103.25 296.455C103.57 296.22 103.953 296.102 104.398 296.102C104.843 296.102 105.224 296.221 105.543 296.457C105.861 296.692 106.104 297.033 106.273 297.48C106.443 297.925 106.528 298.463 106.528 299.094C106.528 299.728 106.444 300.27 106.276 300.719C106.107 301.166 105.864 301.508 105.545 301.744C105.227 301.979 104.845 302.097 104.398 302.097ZM104.398 301.338C104.792 301.338 105.099 301.146 105.321 300.761C105.545 300.377 105.656 299.821 105.656 299.094C105.656 298.611 105.605 298.203 105.503 297.869C105.402 297.534 105.258 297.28 105.068 297.108C104.881 296.934 104.657 296.847 104.398 296.847C104.006 296.847 103.698 297.04 103.474 297.426C103.251 297.812 103.138 298.368 103.136 299.094C103.136 299.579 103.187 299.989 103.287 300.324C103.389 300.657 103.534 300.91 103.722 301.082C103.909 301.253 104.134 301.338 104.398 301.338ZM109.562 302.097C109.113 302.095 108.729 301.976 108.411 301.741C108.093 301.507 107.85 301.165 107.681 300.716C107.513 300.267 107.428 299.726 107.428 299.094C107.428 298.463 107.513 297.924 107.681 297.477C107.852 297.03 108.096 296.689 108.414 296.455C108.734 296.22 109.117 296.102 109.562 296.102C110.007 296.102 110.388 296.221 110.707 296.457C111.025 296.692 111.268 297.033 111.437 297.48C111.607 297.925 111.692 298.463 111.692 299.094C111.692 299.728 111.608 300.27 111.44 300.719C111.271 301.166 111.028 301.508 110.71 301.744C110.391 301.979 110.009 302.097 109.562 302.097ZM109.562 301.338C109.956 301.338 110.263 301.146 110.485 300.761C110.709 300.377 110.82 299.821 110.82 299.094C110.82 298.611 110.769 298.203 110.667 297.869C110.567 297.534 110.422 297.28 110.232 297.108C110.045 296.934 109.821 296.847 109.562 296.847C109.17 296.847 108.862 297.04 108.638 297.426C108.415 297.812 108.302 298.368 108.3 299.094C108.3 299.579 108.351 299.989 108.451 300.324C108.553 300.657 108.698 300.91 108.886 301.082C109.073 301.253 109.299 301.338 109.562 301.338ZM112.78 302V296.182H114.854C115.306 296.182 115.681 296.264 115.979 296.429C116.276 296.594 116.499 296.819 116.646 297.105C116.794 297.389 116.868 297.709 116.868 298.065C116.868 298.423 116.793 298.745 116.643 299.031C116.496 299.315 116.272 299.541 115.973 299.707C115.676 299.872 115.302 299.955 114.851 299.955H113.425V299.21H114.771C115.057 299.21 115.289 299.161 115.467 299.062C115.645 298.962 115.776 298.826 115.859 298.653C115.943 298.481 115.984 298.285 115.984 298.065C115.984 297.846 115.943 297.651 115.859 297.48C115.776 297.31 115.644 297.176 115.464 297.08C115.286 296.983 115.052 296.935 114.76 296.935H113.658V302H112.78ZM117.897 296.182H118.962L120.815 300.705H120.883L122.735 296.182H123.8V302H122.965V297.79H122.911L121.195 301.991H120.502L118.786 297.787H118.732V302H117.897V296.182ZM156.663 302.097C156.214 302.095 155.831 301.976 155.513 301.741C155.195 301.507 154.951 301.165 154.783 300.716C154.614 300.267 154.53 299.726 154.53 299.094C154.53 298.463 154.614 297.924 154.783 297.477C154.953 297.03 155.197 296.689 155.516 296.455C155.836 296.22 156.218 296.102 156.663 296.102C157.108 296.102 157.49 296.221 157.808 296.457C158.126 296.692 158.37 297.033 158.538 297.48C158.709 297.925 158.794 298.463 158.794 299.094C158.794 299.728 158.71 300.27 158.541 300.719C158.373 301.166 158.129 301.508 157.811 301.744C157.493 301.979 157.11 302.097 156.663 302.097ZM156.663 301.338C157.057 301.338 157.365 301.146 157.587 300.761C157.81 300.377 157.922 299.821 157.922 299.094C157.922 298.611 157.871 298.203 157.768 297.869C157.668 297.534 157.523 297.28 157.334 297.108C157.146 296.934 156.923 296.847 156.663 296.847C156.271 296.847 155.964 297.04 155.74 297.426C155.517 297.812 155.404 298.368 155.402 299.094C155.402 299.579 155.452 299.989 155.553 300.324C155.655 300.657 155.8 300.91 155.987 301.082C156.175 301.253 156.4 301.338 156.663 301.338ZM161.827 302.08C161.437 302.08 161.089 302.012 160.782 301.878C160.477 301.743 160.236 301.557 160.058 301.318C159.881 301.078 159.787 300.799 159.773 300.483H160.665C160.677 300.655 160.735 300.805 160.839 300.932C160.945 301.057 161.083 301.153 161.254 301.222C161.424 301.29 161.613 301.324 161.822 301.324C162.051 301.324 162.254 301.284 162.43 301.205C162.608 301.125 162.747 301.014 162.847 300.872C162.948 300.728 162.998 300.562 162.998 300.375C162.998 300.18 162.948 300.009 162.847 299.861C162.749 299.711 162.604 299.594 162.413 299.509C162.223 299.423 161.994 299.381 161.725 299.381H161.234V298.665H161.725C161.941 298.665 162.13 298.626 162.293 298.548C162.458 298.471 162.587 298.363 162.68 298.224C162.772 298.084 162.819 297.92 162.819 297.733C162.819 297.553 162.778 297.397 162.697 297.264C162.617 297.13 162.504 297.025 162.356 296.949C162.21 296.873 162.038 296.835 161.839 296.835C161.649 296.835 161.472 296.87 161.308 296.94C161.145 297.009 161.012 297.107 160.91 297.236C160.808 297.363 160.753 297.515 160.745 297.693H159.896C159.905 297.379 159.998 297.102 160.174 296.864C160.352 296.625 160.587 296.438 160.879 296.304C161.17 296.17 161.494 296.102 161.85 296.102C162.223 296.102 162.545 296.175 162.816 296.321C163.089 296.465 163.299 296.657 163.447 296.898C163.596 297.138 163.67 297.402 163.668 297.688C163.67 298.013 163.579 298.29 163.396 298.517C163.214 298.744 162.971 298.897 162.668 298.974V299.02C163.055 299.079 163.354 299.232 163.566 299.48C163.78 299.728 163.886 300.036 163.884 300.403C163.886 300.723 163.797 301.01 163.617 301.264C163.439 301.518 163.196 301.718 162.887 301.864C162.578 302.008 162.225 302.08 161.827 302.08ZM165.529 301.278C165.374 301.278 165.24 301.223 165.129 301.114C165.017 301.002 164.961 300.867 164.961 300.71C164.961 300.555 165.017 300.422 165.129 300.312C165.24 300.201 165.374 300.145 165.529 300.145C165.684 300.145 165.818 300.201 165.93 300.312C166.041 300.422 166.097 300.555 166.097 300.71C166.097 300.814 166.071 300.91 166.018 300.997C165.967 301.082 165.898 301.151 165.813 301.202C165.728 301.253 165.633 301.278 165.529 301.278ZM165.529 298.364C165.374 298.364 165.24 298.309 165.129 298.199C165.017 298.087 164.961 297.953 164.961 297.795C164.961 297.64 165.017 297.508 165.129 297.398C165.24 297.286 165.374 297.23 165.529 297.23C165.684 297.23 165.818 297.286 165.93 297.398C166.041 297.508 166.097 297.64 166.097 297.795C166.097 297.9 166.071 297.995 166.018 298.082C165.967 298.168 165.898 298.236 165.813 298.287C165.728 298.338 165.633 298.364 165.529 298.364ZM169.249 302.097C168.8 302.095 168.417 301.976 168.099 301.741C167.781 301.507 167.537 301.165 167.369 300.716C167.2 300.267 167.116 299.726 167.116 299.094C167.116 298.463 167.2 297.924 167.369 297.477C167.539 297.03 167.783 296.689 168.102 296.455C168.422 296.22 168.804 296.102 169.249 296.102C169.694 296.102 170.076 296.221 170.394 296.457C170.712 296.692 170.956 297.033 171.124 297.48C171.295 297.925 171.38 298.463 171.38 299.094C171.38 299.728 171.296 300.27 171.127 300.719C170.959 301.166 170.715 301.508 170.397 301.744C170.079 301.979 169.696 302.097 169.249 302.097ZM169.249 301.338C169.643 301.338 169.951 301.146 170.173 300.761C170.396 300.377 170.508 299.821 170.508 299.094C170.508 298.611 170.457 298.203 170.354 297.869C170.254 297.534 170.109 297.28 169.92 297.108C169.732 296.934 169.509 296.847 169.249 296.847C168.857 296.847 168.549 297.04 168.326 297.426C168.103 297.812 167.99 298.368 167.988 299.094C167.988 299.579 168.038 299.989 168.138 300.324C168.241 300.657 168.386 300.91 168.573 301.082C168.761 301.253 168.986 301.338 169.249 301.338ZM174.413 302.097C173.964 302.095 173.581 301.976 173.263 301.741C172.945 301.507 172.701 301.165 172.533 300.716C172.364 300.267 172.28 299.726 172.28 299.094C172.28 298.463 172.364 297.924 172.533 297.477C172.703 297.03 172.947 296.689 173.266 296.455C173.586 296.22 173.968 296.102 174.413 296.102C174.858 296.102 175.24 296.221 175.558 296.457C175.876 296.692 176.12 297.033 176.288 297.48C176.459 297.925 176.544 298.463 176.544 299.094C176.544 299.728 176.46 300.27 176.291 300.719C176.123 301.166 175.879 301.508 175.561 301.744C175.243 301.979 174.86 302.097 174.413 302.097ZM174.413 301.338C174.807 301.338 175.115 301.146 175.337 300.761C175.56 300.377 175.672 299.821 175.672 299.094C175.672 298.611 175.621 298.203 175.518 297.869C175.418 297.534 175.273 297.28 175.084 297.108C174.896 296.934 174.673 296.847 174.413 296.847C174.021 296.847 173.714 297.04 173.49 297.426C173.267 297.812 173.154 298.368 173.152 299.094C173.152 299.579 173.202 299.989 173.303 300.324C173.405 300.657 173.55 300.91 173.737 301.082C173.925 301.253 174.15 301.338 174.413 301.338ZM177.631 302V296.182H179.705C180.158 296.182 180.533 296.264 180.83 296.429C181.128 296.594 181.35 296.819 181.498 297.105C181.646 297.389 181.719 297.709 181.719 298.065C181.719 298.423 181.645 298.745 181.495 299.031C181.347 299.315 181.124 299.541 180.825 299.707C180.527 299.872 180.153 299.955 179.702 299.955H178.276V299.21H179.623C179.909 299.21 180.141 299.161 180.319 299.062C180.497 298.962 180.628 298.826 180.711 298.653C180.794 298.481 180.836 298.285 180.836 298.065C180.836 297.846 180.794 297.651 180.711 297.48C180.628 297.31 180.496 297.176 180.316 297.08C180.138 296.983 179.903 296.935 179.612 296.935H178.509V302H177.631ZM182.749 296.182H183.814L185.666 300.705H185.734L187.587 296.182H188.652V302H187.817V297.79H187.763L186.047 301.991H185.354L183.638 297.787H183.584V302H182.749V296.182ZM221.515 302.097C221.066 302.095 220.683 301.976 220.364 301.741C220.046 301.507 219.803 301.165 219.634 300.716C219.466 300.267 219.381 299.726 219.381 299.094C219.381 298.463 219.466 297.924 219.634 297.477C219.805 297.03 220.049 296.689 220.367 296.455C220.687 296.22 221.07 296.102 221.515 296.102C221.96 296.102 222.342 296.221 222.66 296.457C222.978 296.692 223.221 297.033 223.39 297.48C223.56 297.925 223.646 298.463 223.646 299.094C223.646 299.728 223.561 300.27 223.393 300.719C223.224 301.166 222.981 301.508 222.663 301.744C222.344 301.979 221.962 302.097 221.515 302.097ZM221.515 301.338C221.909 301.338 222.217 301.146 222.438 300.761C222.662 300.377 222.773 299.821 222.773 299.094C222.773 298.611 222.722 298.203 222.62 297.869C222.52 297.534 222.375 297.28 222.185 297.108C221.998 296.934 221.774 296.847 221.515 296.847C221.123 296.847 220.815 297.04 220.592 297.426C220.368 297.812 220.255 298.368 220.254 299.094C220.254 299.579 220.304 299.989 220.404 300.324C220.506 300.657 220.651 300.91 220.839 301.082C221.026 301.253 221.252 301.338 221.515 301.338ZM224.531 300.864V300.153L227.045 296.182H227.605V297.227H227.25L225.452 300.074V300.119H228.898V300.864H224.531ZM227.29 302V300.648L227.295 300.324V296.182H228.128V302H227.29ZM230.459 301.278C230.304 301.278 230.17 301.223 230.058 301.114C229.946 301.002 229.891 300.867 229.891 300.71C229.891 300.555 229.946 300.422 230.058 300.312C230.17 300.201 230.304 300.145 230.459 300.145C230.614 300.145 230.748 300.201 230.859 300.312C230.971 300.422 231.027 300.555 231.027 300.71C231.027 300.814 231 300.91 230.947 300.997C230.896 301.082 230.828 301.151 230.743 301.202C230.658 301.253 230.563 301.278 230.459 301.278ZM230.459 298.364C230.304 298.364 230.17 298.309 230.058 298.199C229.946 298.087 229.891 297.953 229.891 297.795C229.891 297.64 229.946 297.508 230.058 297.398C230.17 297.286 230.304 297.23 230.459 297.23C230.614 297.23 230.748 297.286 230.859 297.398C230.971 297.508 231.027 297.64 231.027 297.795C231.027 297.9 231 297.995 230.947 298.082C230.896 298.168 230.828 298.236 230.743 298.287C230.658 298.338 230.563 298.364 230.459 298.364ZM234.179 302.097C233.73 302.095 233.347 301.976 233.028 301.741C232.71 301.507 232.467 301.165 232.298 300.716C232.13 300.267 232.045 299.726 232.045 299.094C232.045 298.463 232.13 297.924 232.298 297.477C232.469 297.03 232.713 296.689 233.031 296.455C233.351 296.22 233.734 296.102 234.179 296.102C234.624 296.102 235.006 296.221 235.324 296.457C235.642 296.692 235.885 297.033 236.054 297.48C236.224 297.925 236.31 298.463 236.31 299.094C236.31 299.728 236.225 300.27 236.057 300.719C235.888 301.166 235.645 301.508 235.327 301.744C235.009 301.979 234.626 302.097 234.179 302.097ZM234.179 301.338C234.573 301.338 234.881 301.146 235.102 300.761C235.326 300.377 235.438 299.821 235.438 299.094C235.438 298.611 235.386 298.203 235.284 297.869C235.184 297.534 235.039 297.28 234.849 297.108C234.662 296.934 234.438 296.847 234.179 296.847C233.787 296.847 233.479 297.04 233.256 297.426C233.032 297.812 232.92 298.368 232.918 299.094C232.918 299.579 232.968 299.989 233.068 300.324C233.17 300.657 233.315 300.91 233.503 301.082C233.69 301.253 233.916 301.338 234.179 301.338ZM239.343 302.097C238.894 302.095 238.511 301.976 238.192 301.741C237.874 301.507 237.631 301.165 237.462 300.716C237.294 300.267 237.21 299.726 237.21 299.094C237.21 298.463 237.294 297.924 237.462 297.477C237.633 297.03 237.877 296.689 238.195 296.455C238.515 296.22 238.898 296.102 239.343 296.102C239.788 296.102 240.17 296.221 240.488 296.457C240.806 296.692 241.049 297.033 241.218 297.48C241.388 297.925 241.474 298.463 241.474 299.094C241.474 299.728 241.389 300.27 241.221 300.719C241.052 301.166 240.809 301.508 240.491 301.744C240.173 301.979 239.79 302.097 239.343 302.097ZM239.343 301.338C239.737 301.338 240.045 301.146 240.266 300.761C240.49 300.377 240.602 299.821 240.602 299.094C240.602 298.611 240.55 298.203 240.448 297.869C240.348 297.534 240.203 297.28 240.013 297.108C239.826 296.934 239.603 296.847 239.343 296.847C238.951 296.847 238.643 297.04 238.42 297.426C238.196 297.812 238.084 298.368 238.082 299.094C238.082 299.579 238.132 299.989 238.232 300.324C238.335 300.657 238.479 300.91 238.667 301.082C238.854 301.253 239.08 301.338 239.343 301.338ZM242.561 302V296.182H244.635C245.088 296.182 245.463 296.264 245.76 296.429C246.057 296.594 246.28 296.819 246.428 297.105C246.575 297.389 246.649 297.709 246.649 298.065C246.649 298.423 246.574 298.745 246.425 299.031C246.277 299.315 246.054 299.541 245.754 299.707C245.457 299.872 245.083 299.955 244.632 299.955H243.206V299.21H244.553C244.839 299.21 245.071 299.161 245.249 299.062C245.427 298.962 245.557 298.826 245.641 298.653C245.724 298.481 245.766 298.285 245.766 298.065C245.766 297.846 245.724 297.651 245.641 297.48C245.557 297.31 245.426 297.176 245.246 297.08C245.068 296.983 244.833 296.935 244.541 296.935H243.439V302H242.561ZM247.678 296.182H248.744L250.596 300.705H250.664L252.516 296.182H253.582V302H252.746V297.79H252.692L250.977 301.991H250.283L248.567 297.787H248.513V302H247.678V296.182ZM286.445 302.097C285.996 302.095 285.612 301.976 285.294 301.741C284.976 301.507 284.732 301.165 284.564 300.716C284.395 300.267 284.311 299.726 284.311 299.094C284.311 298.463 284.395 297.924 284.564 297.477C284.734 297.03 284.979 296.689 285.297 296.455C285.617 296.22 286 296.102 286.445 296.102C286.89 296.102 287.271 296.221 287.589 296.457C287.908 296.692 288.151 297.033 288.32 297.48C288.49 297.925 288.575 298.463 288.575 299.094C288.575 299.728 288.491 300.27 288.322 300.719C288.154 301.166 287.911 301.508 287.592 301.744C287.274 301.979 286.892 302.097 286.445 302.097ZM286.445 301.338C286.839 301.338 287.146 301.146 287.368 300.761C287.591 300.377 287.703 299.821 287.703 299.094C287.703 298.611 287.652 298.203 287.55 297.869C287.449 297.534 287.304 297.28 287.115 297.108C286.928 296.934 286.704 296.847 286.445 296.847C286.053 296.847 285.745 297.04 285.521 297.426C285.298 297.812 285.185 298.368 285.183 299.094C285.183 299.579 285.233 299.989 285.334 300.324C285.436 300.657 285.581 300.91 285.768 301.082C285.956 301.253 286.181 301.338 286.445 301.338ZM291.504 302.08C291.147 302.08 290.827 302.011 290.543 301.875C290.261 301.737 290.036 301.547 289.867 301.307C289.699 301.066 289.609 300.792 289.597 300.483H290.45C290.47 300.733 290.581 300.938 290.782 301.099C290.983 301.26 291.223 301.341 291.504 301.341C291.727 301.341 291.925 301.29 292.097 301.188C292.272 301.083 292.408 300.94 292.506 300.759C292.607 300.577 292.657 300.369 292.657 300.136C292.657 299.9 292.606 299.688 292.504 299.503C292.401 299.317 292.26 299.171 292.08 299.065C291.902 298.959 291.698 298.905 291.467 298.903C291.29 298.903 291.113 298.934 290.935 298.994C290.757 299.055 290.613 299.134 290.504 299.233L289.7 299.114L290.026 296.182H293.225V296.935H290.756L290.572 298.562H290.606C290.719 298.453 290.87 298.361 291.058 298.287C291.247 298.213 291.45 298.176 291.665 298.176C292.02 298.176 292.335 298.26 292.612 298.429C292.89 298.598 293.109 298.828 293.268 299.119C293.429 299.409 293.508 299.742 293.506 300.119C293.508 300.496 293.423 300.832 293.251 301.128C293.08 301.423 292.844 301.656 292.54 301.827C292.239 301.995 291.894 302.08 291.504 302.08ZM295.115 301.278C294.96 301.278 294.826 301.223 294.714 301.114C294.603 301.002 294.547 300.867 294.547 300.71C294.547 300.555 294.603 300.422 294.714 300.312C294.826 300.201 294.96 300.145 295.115 300.145C295.27 300.145 295.404 300.201 295.516 300.312C295.627 300.422 295.683 300.555 295.683 300.71C295.683 300.814 295.657 300.91 295.604 300.997C295.553 301.082 295.484 301.151 295.399 301.202C295.314 301.253 295.219 301.278 295.115 301.278ZM295.115 298.364C294.96 298.364 294.826 298.309 294.714 298.199C294.603 298.087 294.547 297.953 294.547 297.795C294.547 297.64 294.603 297.508 294.714 297.398C294.826 297.286 294.96 297.23 295.115 297.23C295.27 297.23 295.404 297.286 295.516 297.398C295.627 297.508 295.683 297.64 295.683 297.795C295.683 297.9 295.657 297.995 295.604 298.082C295.553 298.168 295.484 298.236 295.399 298.287C295.314 298.338 295.219 298.364 295.115 298.364ZM298.835 302.097C298.386 302.095 298.003 301.976 297.685 301.741C297.366 301.507 297.123 301.165 296.955 300.716C296.786 300.267 296.702 299.726 296.702 299.094C296.702 298.463 296.786 297.924 296.955 297.477C297.125 297.03 297.369 296.689 297.688 296.455C298.008 296.22 298.39 296.102 298.835 296.102C299.28 296.102 299.662 296.221 299.98 296.457C300.298 296.692 300.542 297.033 300.71 297.48C300.881 297.925 300.966 298.463 300.966 299.094C300.966 299.728 300.882 300.27 300.713 300.719C300.545 301.166 300.301 301.508 299.983 301.744C299.665 301.979 299.282 302.097 298.835 302.097ZM298.835 301.338C299.229 301.338 299.537 301.146 299.759 300.761C299.982 300.377 300.094 299.821 300.094 299.094C300.094 298.611 300.043 298.203 299.94 297.869C299.84 297.534 299.695 297.28 299.506 297.108C299.318 296.934 299.095 296.847 298.835 296.847C298.443 296.847 298.135 297.04 297.912 297.426C297.688 297.812 297.576 298.368 297.574 299.094C297.574 299.579 297.624 299.989 297.724 300.324C297.827 300.657 297.972 300.91 298.159 301.082C298.347 301.253 298.572 301.338 298.835 301.338ZM303.999 302.097C303.55 302.095 303.167 301.976 302.849 301.741C302.531 301.507 302.287 301.165 302.119 300.716C301.95 300.267 301.866 299.726 301.866 299.094C301.866 298.463 301.95 297.924 302.119 297.477C302.289 297.03 302.533 296.689 302.852 296.455C303.172 296.22 303.554 296.102 303.999 296.102C304.444 296.102 304.826 296.221 305.144 296.457C305.462 296.692 305.706 297.033 305.874 297.48C306.045 297.925 306.13 298.463 306.13 299.094C306.13 299.728 306.046 300.27 305.877 300.719C305.709 301.166 305.465 301.508 305.147 301.744C304.829 301.979 304.446 302.097 303.999 302.097ZM303.999 301.338C304.393 301.338 304.701 301.146 304.923 300.761C305.146 300.377 305.258 299.821 305.258 299.094C305.258 298.611 305.207 298.203 305.104 297.869C305.004 297.534 304.859 297.28 304.67 297.108C304.482 296.934 304.259 296.847 303.999 296.847C303.607 296.847 303.299 297.04 303.076 297.426C302.853 297.812 302.74 298.368 302.738 299.094C302.738 299.579 302.788 299.989 302.888 300.324C302.991 300.657 303.136 300.91 303.323 301.082C303.511 301.253 303.736 301.338 303.999 301.338ZM307.217 302V296.182H309.291C309.744 296.182 310.119 296.264 310.416 296.429C310.714 296.594 310.936 296.819 311.084 297.105C311.232 297.389 311.305 297.709 311.305 298.065C311.305 298.423 311.231 298.745 311.081 299.031C310.933 299.315 310.71 299.541 310.411 299.707C310.113 299.872 309.739 299.955 309.288 299.955H307.862V299.21H309.209C309.495 299.21 309.727 299.161 309.905 299.062C310.083 298.962 310.214 298.826 310.297 298.653C310.38 298.481 310.422 298.285 310.422 298.065C310.422 297.846 310.38 297.651 310.297 297.48C310.214 297.31 310.082 297.176 309.902 297.08C309.724 296.983 309.489 296.935 309.197 296.935H308.095V302H307.217ZM312.335 296.182H313.4L315.252 300.705H315.32L317.173 296.182H318.238V302H317.403V297.79H317.349L315.633 301.991H314.94L313.224 297.787H313.17V302H312.335V296.182Z" fill="black"/>
<rect x="25" y="316" width="294" height="10" rx="5" fill="#EFEFEF"/>
</svg>
