<svg width="346" height="349" viewBox="0 0 346 349" fill="none" xmlns="http://www.w3.org/2000/svg">
<rect width="346" height="349" rx="16" fill="white"/>
<path d="M22.4382 51.9091H24.8352L29.0028 62.0852H29.1562L33.3239 51.9091H35.7209V65H33.8416V55.527H33.7202L29.8594 64.9808H28.2997L24.4389 55.5206H24.3175V65H22.4382V51.9091ZM42.5748 65.1982C41.6543 65.1982 40.851 64.9872 40.165 64.5653C39.4789 64.1435 38.9462 63.5533 38.5669 62.7947C38.1877 62.0362 37.998 61.1499 37.998 60.1357C37.998 59.1172 38.1877 58.2266 38.5669 57.4638C38.9462 56.701 39.4789 56.1087 40.165 55.6868C40.851 55.2649 41.6543 55.054 42.5748 55.054C43.4952 55.054 44.2985 55.2649 44.9846 55.6868C45.6706 56.1087 46.2033 56.701 46.5826 57.4638C46.9618 58.2266 47.1515 59.1172 47.1515 60.1357C47.1515 61.1499 46.9618 62.0362 46.5826 62.7947C46.2033 63.5533 45.6706 64.1435 44.9846 64.5653C44.2985 64.9872 43.4952 65.1982 42.5748 65.1982ZM42.5811 63.5938C43.1777 63.5938 43.6721 63.4361 44.0641 63.1207C44.4561 62.8054 44.7459 62.3857 44.9334 61.8615C45.1252 61.3374 45.2211 60.7599 45.2211 60.1293C45.2211 59.5028 45.1252 58.9276 44.9334 58.4034C44.7459 57.875 44.4561 57.451 44.0641 57.1314C43.6721 56.8118 43.1777 56.652 42.5811 56.652C41.9803 56.652 41.4817 56.8118 41.0854 57.1314C40.6934 57.451 40.4015 57.875 40.2097 58.4034C40.0222 58.9276 39.9284 59.5028 39.9284 60.1293C39.9284 60.7599 40.0222 61.3374 40.2097 61.8615C40.4015 62.3857 40.6934 62.8054 41.0854 63.1207C41.4817 63.4361 41.9803 63.5938 42.5811 63.5938ZM51.196 59.1705V65H49.2848V55.1818H51.1193V56.7798H51.2408C51.4666 56.2599 51.8203 55.8423 52.3018 55.527C52.7876 55.2116 53.3991 55.054 54.1364 55.054C54.8054 55.054 55.3913 55.1946 55.8942 55.4759C56.397 55.7528 56.7869 56.1662 57.0639 56.7159C57.3409 57.2656 57.4794 57.9453 57.4794 58.755V65H55.5682V58.9851C55.5682 58.2734 55.3828 57.7173 55.0121 57.3168C54.6413 56.9119 54.1321 56.7095 53.4844 56.7095C53.0412 56.7095 52.647 56.8054 52.3018 56.9972C51.9609 57.1889 51.6903 57.4702 51.4901 57.8409C51.294 58.2074 51.196 58.6506 51.196 59.1705ZM64.6257 55.1818V56.7159H59.2628V55.1818H64.6257ZM60.701 52.8295H62.6122V62.1172C62.6122 62.4879 62.6676 62.767 62.7784 62.9545C62.8892 63.1378 63.032 63.2635 63.2067 63.3317C63.3857 63.3956 63.5795 63.4276 63.7884 63.4276C63.9418 63.4276 64.076 63.4169 64.1911 63.3956C64.3061 63.3743 64.3956 63.3572 64.4595 63.3445L64.8047 64.9233C64.6939 64.9659 64.5362 65.0085 64.3317 65.0511C64.1271 65.098 63.8714 65.1236 63.5646 65.1278C63.0618 65.1364 62.593 65.0469 62.1584 64.8594C61.7237 64.6719 61.3722 64.3821 61.1037 63.9901C60.8352 63.598 60.701 63.1058 60.701 62.5135V52.8295ZM68.862 59.1705V65H66.9508V51.9091H68.8365V56.7798H68.9579C69.188 56.2514 69.5396 55.8317 70.0126 55.5206C70.4856 55.2095 71.1035 55.054 71.8663 55.054C72.5396 55.054 73.1277 55.1925 73.6305 55.4695C74.1376 55.7464 74.5297 56.1598 74.8066 56.7095C75.0879 57.255 75.2285 57.9368 75.2285 58.755V65H73.3173V58.9851C73.3173 58.2649 73.1319 57.7067 72.7612 57.3104C72.3904 56.9098 71.8748 56.7095 71.2143 56.7095C70.7626 56.7095 70.3578 56.8054 69.9998 56.9972C69.6461 57.1889 69.367 57.4702 69.1625 57.8409C68.9622 58.2074 68.862 58.6506 68.862 59.1705ZM79.6902 51.9091V65H77.7789V51.9091H79.6902ZM83.4695 68.6818C83.1839 68.6818 82.924 68.6584 82.6896 68.6115C82.4553 68.5689 82.2805 68.522 82.1655 68.4709L82.6257 66.9048C82.9751 66.9986 83.2862 67.0391 83.5589 67.0263C83.8317 67.0135 84.0724 66.9112 84.2812 66.7195C84.4943 66.5277 84.6818 66.2145 84.8438 65.7798L85.0803 65.1278L81.4879 55.1818H83.5334L86.0199 62.8011H86.1222L88.6087 55.1818H90.6605L86.6143 66.3104C86.4268 66.8217 86.1882 67.2543 85.8984 67.608C85.6087 67.9659 85.2635 68.2344 84.8629 68.4134C84.4624 68.5923 83.9979 68.6818 83.4695 68.6818ZM97.3738 65V51.9091H99.3489V63.2997H105.281V65H97.3738ZM107.381 65V55.1818H109.292V65H107.381ZM108.346 53.6669C108.013 53.6669 107.728 53.5561 107.489 53.3345C107.255 53.1087 107.138 52.8402 107.138 52.5291C107.138 52.2138 107.255 51.9453 107.489 51.7237C107.728 51.4979 108.013 51.3849 108.346 51.3849C108.678 51.3849 108.961 51.4979 109.196 51.7237C109.434 51.9453 109.554 52.2138 109.554 52.5291C109.554 52.8402 109.434 53.1087 109.196 53.3345C108.961 53.5561 108.678 53.6669 108.346 53.6669ZM111.863 65V55.1818H113.697V56.7798H113.819C114.023 56.2386 114.358 55.8168 114.822 55.5142C115.287 55.2074 115.843 55.054 116.491 55.054C117.147 55.054 117.697 55.2074 118.14 55.5142C118.587 55.821 118.918 56.2429 119.131 56.7798H119.233C119.467 56.2557 119.84 55.8381 120.352 55.527C120.863 55.2116 121.472 55.054 122.18 55.054C123.07 55.054 123.797 55.3331 124.359 55.8913C124.926 56.4496 125.21 57.2912 125.21 58.4162V65H123.298V58.5952C123.298 57.9304 123.117 57.4489 122.755 57.1506C122.393 56.8523 121.96 56.7031 121.457 56.7031C120.835 56.7031 120.352 56.8949 120.006 57.2784C119.661 57.6577 119.489 58.1456 119.489 58.7422V65H117.584V58.4737C117.584 57.9411 117.418 57.5128 117.085 57.1889C116.753 56.8651 116.32 56.7031 115.788 56.7031C115.425 56.7031 115.091 56.799 114.784 56.9908C114.482 57.1783 114.237 57.4403 114.049 57.777C113.866 58.1136 113.774 58.5036 113.774 58.9467V65H111.863ZM127.771 65V55.1818H129.682V65H127.771ZM128.736 53.6669C128.404 53.6669 128.118 53.5561 127.88 53.3345C127.645 53.1087 127.528 52.8402 127.528 52.5291C127.528 52.2138 127.645 51.9453 127.88 51.7237C128.118 51.4979 128.404 51.3849 128.736 51.3849C129.069 51.3849 129.352 51.4979 129.586 51.7237C129.825 51.9453 129.944 52.2138 129.944 52.5291C129.944 52.8402 129.825 53.1087 129.586 53.3345C129.352 53.5561 129.069 53.6669 128.736 53.6669ZM136.837 55.1818V56.7159H131.474V55.1818H136.837ZM132.912 52.8295H134.823V62.1172C134.823 62.4879 134.879 62.767 134.989 62.9545C135.1 63.1378 135.243 63.2635 135.418 63.3317C135.597 63.3956 135.79 63.4276 135.999 63.4276C136.153 63.4276 136.287 63.4169 136.402 63.3956C136.517 63.3743 136.607 63.3572 136.67 63.3445L137.016 64.9233C136.905 64.9659 136.747 65.0085 136.543 65.0511C136.338 65.098 136.082 65.1236 135.776 65.1278C135.273 65.1364 134.804 65.0469 134.369 64.8594C133.935 64.6719 133.583 64.3821 133.315 63.9901C133.046 63.598 132.912 63.1058 132.912 62.5135V52.8295ZM143.077 65.1982C142.11 65.1982 141.276 64.9915 140.578 64.5781C139.883 64.1605 139.346 63.5746 138.967 62.8203C138.592 62.0618 138.404 61.1733 138.404 60.1548C138.404 59.1491 138.592 58.2628 138.967 57.4957C139.346 56.7287 139.874 56.13 140.552 55.6996C141.234 55.2692 142.031 55.054 142.943 55.054C143.497 55.054 144.034 55.1456 144.553 55.3288C145.073 55.5121 145.54 55.7997 145.953 56.1918C146.367 56.5838 146.693 57.093 146.931 57.7195C147.17 58.3416 147.289 59.098 147.289 59.9886V60.6662H139.485V59.2344H145.416C145.416 58.7315 145.314 58.2862 145.11 57.8984C144.905 57.5064 144.617 57.1974 144.247 56.9716C143.88 56.7457 143.45 56.6328 142.955 56.6328C142.419 56.6328 141.95 56.7649 141.549 57.0291C141.153 57.2891 140.846 57.63 140.629 58.0518C140.416 58.4695 140.309 58.9233 140.309 59.4134V60.532C140.309 61.1882 140.424 61.7464 140.654 62.2067C140.889 62.6669 141.215 63.0185 141.632 63.2614C142.05 63.5 142.538 63.6193 143.096 63.6193C143.458 63.6193 143.789 63.5682 144.087 63.4659C144.385 63.3594 144.643 63.2017 144.86 62.9929C145.078 62.7841 145.244 62.5263 145.359 62.2195L147.168 62.5455C147.023 63.0781 146.763 63.5447 146.388 63.9453C146.017 64.3416 145.551 64.6506 144.988 64.8722C144.43 65.0895 143.793 65.1982 143.077 65.1982Z" fill="black"/>
<circle cx="27" cy="21" r="5" fill="#FF0606"/>
<circle cx="44.5" cy="21" r="5" fill="#30C1FF"/>
<circle cx="62" cy="21" r="5" fill="#A3DC2F"/>
<rect x="292" y="48" width="35" height="20" rx="10" fill="#A3DC2F"/>
<circle cx="317" cy="58" r="8" fill="white"/>
<line x1="24" y1="93.5" x2="327" y2="93.5" stroke="#D8D8D8"/>
<rect x="23" y="123" width="302" height="10" rx="5" fill="#EFEFEF"/>
<rect x="23" y="143" width="302" height="10" rx="5" fill="#EFEFEF"/>
<rect x="23" y="163" width="199" height="10" rx="5" fill="#EFEFEF"/>
<path d="M27.5327 219.091V208.182H28.2315V219.091H27.5327ZM29.7188 211.565C29.6733 211.162 29.4858 210.849 29.1562 210.628C28.8267 210.403 28.4119 210.291 27.9119 210.291C27.554 210.291 27.2443 210.348 26.983 210.462C26.7216 210.572 26.5185 210.726 26.3736 210.922C26.2315 211.115 26.1605 211.335 26.1605 211.582C26.1605 211.79 26.2088 211.969 26.3054 212.119C26.4048 212.27 26.5341 212.396 26.6932 212.499C26.8551 212.598 27.0284 212.682 27.2131 212.75C27.3977 212.815 27.5753 212.869 27.7457 212.912L28.598 213.134C28.8764 213.202 29.1619 213.294 29.4545 213.411C29.7472 213.527 30.0185 213.68 30.2685 213.871C30.5185 214.061 30.7202 214.297 30.8736 214.578C31.0298 214.859 31.108 215.196 31.108 215.588C31.108 216.082 30.9801 216.521 30.7244 216.905C30.4716 217.288 30.1037 217.591 29.6207 217.812C29.1406 218.034 28.5597 218.145 27.8778 218.145C27.2244 218.145 26.6591 218.041 26.1818 217.834C25.7045 217.626 25.331 217.332 25.0611 216.952C24.7912 216.568 24.642 216.114 24.6136 215.588H25.9347C25.9602 215.903 26.0625 216.166 26.2415 216.376C26.4233 216.584 26.6548 216.739 26.9361 216.841C27.2202 216.94 27.5312 216.99 27.8693 216.99C28.2415 216.99 28.5724 216.932 28.8622 216.815C29.1548 216.696 29.3849 216.531 29.5526 216.321C29.7202 216.108 29.804 215.859 29.804 215.575C29.804 215.317 29.7301 215.105 29.5824 214.94C29.4375 214.776 29.2401 214.639 28.9901 214.531C28.7429 214.423 28.4631 214.328 28.1506 214.246L27.1193 213.964C26.4205 213.774 25.8665 213.494 25.4574 213.125C25.0511 212.756 24.848 212.267 24.848 211.659C24.848 211.156 24.9844 210.717 25.2571 210.342C25.5298 209.967 25.8991 209.676 26.3651 209.469C26.831 209.259 27.3565 209.153 27.9418 209.153C28.5327 209.153 29.054 209.257 29.5057 209.464C29.9602 209.672 30.3182 209.957 30.5795 210.321C30.8409 210.682 30.9773 211.097 30.9886 211.565H29.7188ZM35.4428 218.119C34.9087 218.119 34.4286 218.017 34.0025 217.812C33.5792 217.605 33.2411 217.321 32.9883 216.96C32.7354 216.599 32.6005 216.188 32.5835 215.724H33.8619C33.8931 216.099 34.0593 216.408 34.3604 216.649C34.6616 216.891 35.0224 217.011 35.4428 217.011C35.7781 217.011 36.0749 216.935 36.3335 216.781C36.5948 216.625 36.7994 216.411 36.9471 216.138C37.0977 215.865 37.1729 215.554 37.1729 215.205C37.1729 214.849 37.0962 214.533 36.9428 214.254C36.7894 213.976 36.5778 213.757 36.3079 213.598C36.0408 213.439 35.734 213.358 35.3874 213.355C35.1232 213.355 34.8576 213.401 34.5906 213.491C34.3235 213.582 34.1076 213.702 33.9428 213.849L32.7369 213.67L33.2269 209.273H38.0252V210.402H34.3221L34.0451 212.844H34.0962C34.2667 212.679 34.4925 212.541 34.7738 212.43C35.0579 212.32 35.3619 212.264 35.6857 212.264C36.217 212.264 36.69 212.391 37.1048 212.643C37.5224 212.896 37.8505 213.241 38.0891 213.679C38.3306 214.114 38.4499 214.614 38.4471 215.179C38.4499 215.744 38.3221 216.249 38.0636 216.692C37.8079 217.135 37.4528 217.484 36.9982 217.74C36.5465 217.993 36.0281 218.119 35.4428 218.119ZM43.0419 218.145C42.3686 218.142 41.7933 217.964 41.3161 217.612C40.8388 217.26 40.4737 216.747 40.2209 216.074C39.968 215.401 39.8416 214.589 39.8416 213.641C39.8416 212.695 39.968 211.886 40.2209 211.216C40.4766 210.545 40.843 210.034 41.3203 209.682C41.8004 209.33 42.3743 209.153 43.0419 209.153C43.7095 209.153 44.282 209.331 44.7592 209.686C45.2365 210.038 45.6016 210.55 45.8544 211.22C46.1101 211.888 46.2379 212.695 46.2379 213.641C46.2379 214.592 46.1115 215.405 45.8587 216.078C45.6058 216.749 45.2408 217.261 44.7635 217.616C44.2862 217.969 43.7124 218.145 43.0419 218.145ZM43.0419 217.007C43.6328 217.007 44.0945 216.719 44.4268 216.142C44.7621 215.565 44.9297 214.732 44.9297 213.641C44.9297 212.916 44.853 212.304 44.6996 211.804C44.549 211.301 44.3317 210.92 44.0476 210.662C43.7663 210.401 43.4311 210.27 43.0419 210.27C42.4538 210.27 41.9922 210.56 41.657 211.139C41.3217 211.719 41.1527 212.553 41.1499 213.641C41.1499 214.368 41.2251 214.983 41.3757 215.486C41.5291 215.986 41.7464 216.365 42.0277 216.624C42.3089 216.879 42.647 217.007 43.0419 217.007ZM50.788 218.145C50.1147 218.142 49.5394 217.964 49.0621 217.612C48.5849 217.26 48.2198 216.747 47.967 216.074C47.7141 215.401 47.5877 214.589 47.5877 213.641C47.5877 212.695 47.7141 211.886 47.967 211.216C48.2227 210.545 48.5891 210.034 49.0664 209.682C49.5465 209.33 50.1204 209.153 50.788 209.153C51.4556 209.153 52.0281 209.331 52.5053 209.686C52.9826 210.038 53.3477 210.55 53.6005 211.22C53.8562 211.888 53.984 212.695 53.984 213.641C53.984 214.592 53.8576 215.405 53.6048 216.078C53.3519 216.749 52.9869 217.261 52.5096 217.616C52.0323 217.969 51.4585 218.145 50.788 218.145ZM50.788 217.007C51.3789 217.007 51.8406 216.719 52.1729 216.142C52.5082 215.565 52.6758 214.732 52.6758 213.641C52.6758 212.916 52.5991 212.304 52.4457 211.804C52.2951 211.301 52.0778 210.92 51.7937 210.662C51.5124 210.401 51.1772 210.27 50.788 210.27C50.1999 210.27 49.7383 210.56 49.4031 211.139C49.0678 211.719 48.8988 212.553 48.896 213.641C48.896 214.368 48.9712 214.983 49.1218 215.486C49.2752 215.986 49.4925 216.365 49.7738 216.624C50.055 216.879 50.3931 217.007 50.788 217.007Z" fill="black"/>
<path d="M94.5327 219.091V208.182H95.2315V219.091H94.5327ZM96.7188 211.565C96.6733 211.162 96.4858 210.849 96.1562 210.628C95.8267 210.403 95.4119 210.291 94.9119 210.291C94.554 210.291 94.2443 210.348 93.983 210.462C93.7216 210.572 93.5185 210.726 93.3736 210.922C93.2315 211.115 93.1605 211.335 93.1605 211.582C93.1605 211.79 93.2088 211.969 93.3054 212.119C93.4048 212.27 93.5341 212.396 93.6932 212.499C93.8551 212.598 94.0284 212.682 94.2131 212.75C94.3977 212.815 94.5753 212.869 94.7457 212.912L95.598 213.134C95.8764 213.202 96.1619 213.294 96.4545 213.411C96.7472 213.527 97.0185 213.68 97.2685 213.871C97.5185 214.061 97.7202 214.297 97.8736 214.578C98.0298 214.859 98.108 215.196 98.108 215.588C98.108 216.082 97.9801 216.521 97.7244 216.905C97.4716 217.288 97.1037 217.591 96.6207 217.812C96.1406 218.034 95.5597 218.145 94.8778 218.145C94.2244 218.145 93.6591 218.041 93.1818 217.834C92.7045 217.626 92.331 217.332 92.0611 216.952C91.7912 216.568 91.642 216.114 91.6136 215.588H92.9347C92.9602 215.903 93.0625 216.166 93.2415 216.376C93.4233 216.584 93.6548 216.739 93.9361 216.841C94.2202 216.94 94.5312 216.99 94.8693 216.99C95.2415 216.99 95.5724 216.932 95.8622 216.815C96.1548 216.696 96.3849 216.531 96.5526 216.321C96.7202 216.108 96.804 215.859 96.804 215.575C96.804 215.317 96.7301 215.105 96.5824 214.94C96.4375 214.776 96.2401 214.639 95.9901 214.531C95.7429 214.423 95.4631 214.328 95.1506 214.246L94.1193 213.964C93.4205 213.774 92.8665 213.494 92.4574 213.125C92.0511 212.756 91.848 212.267 91.848 211.659C91.848 211.156 91.9844 210.717 92.2571 210.342C92.5298 209.967 92.8991 209.676 93.3651 209.469C93.831 209.259 94.3565 209.153 94.9418 209.153C95.5327 209.153 96.054 209.257 96.5057 209.464C96.9602 209.672 97.3182 209.957 97.5795 210.321C97.8409 210.682 97.9773 211.097 97.9886 211.565H96.7188ZM102.609 218.119C102.22 218.114 101.836 218.043 101.458 217.906C101.083 217.77 100.743 217.543 100.436 217.224C100.129 216.906 99.8832 216.479 99.6985 215.942C99.5167 215.405 99.4258 214.734 99.4258 213.93C99.4258 213.169 99.5011 212.493 99.6516 211.902C99.805 211.311 100.025 210.812 100.312 210.406C100.599 209.997 100.946 209.686 101.352 209.473C101.758 209.26 102.214 209.153 102.72 209.153C103.24 209.153 103.701 209.256 104.105 209.46C104.508 209.665 104.835 209.947 105.085 210.308C105.338 210.669 105.498 211.08 105.566 211.54H104.267C104.179 211.176 104.004 210.879 103.743 210.649C103.481 210.419 103.14 210.304 102.72 210.304C102.081 210.304 101.582 210.582 101.224 211.139C100.869 211.696 100.69 212.47 100.687 213.462H100.751C100.902 213.214 101.086 213.004 101.305 212.831C101.527 212.655 101.774 212.52 102.047 212.426C102.322 212.33 102.612 212.281 102.916 212.281C103.422 212.281 103.879 212.405 104.288 212.652C104.7 212.896 105.028 213.234 105.272 213.666C105.517 214.098 105.639 214.592 105.639 215.149C105.639 215.706 105.512 216.21 105.26 216.662C105.01 217.114 104.657 217.472 104.203 217.736C103.748 217.997 103.217 218.125 102.609 218.119ZM102.605 217.011C102.94 217.011 103.24 216.929 103.504 216.764C103.768 216.599 103.977 216.378 104.13 216.099C104.284 215.821 104.36 215.51 104.36 215.166C104.36 214.831 104.285 214.526 104.135 214.25C103.987 213.974 103.782 213.756 103.521 213.594C103.262 213.432 102.967 213.351 102.635 213.351C102.382 213.351 102.147 213.399 101.931 213.496C101.718 213.592 101.531 213.726 101.369 213.896C101.207 214.067 101.079 214.263 100.985 214.484C100.895 214.703 100.849 214.935 100.849 215.179C100.849 215.506 100.924 215.808 101.075 216.087C101.228 216.365 101.437 216.589 101.701 216.76C101.968 216.928 102.27 217.011 102.605 217.011ZM110.229 218.145C109.556 218.142 108.981 217.964 108.504 217.612C108.026 217.26 107.661 216.747 107.408 216.074C107.156 215.401 107.029 214.589 107.029 213.641C107.029 212.695 107.156 211.886 107.408 211.216C107.664 210.545 108.031 210.034 108.508 209.682C108.988 209.33 109.562 209.153 110.229 209.153C110.897 209.153 111.469 209.331 111.947 209.686C112.424 210.038 112.789 210.55 113.042 211.22C113.298 211.888 113.425 212.695 113.425 213.641C113.425 214.592 113.299 215.405 113.046 216.078C112.793 216.749 112.428 217.261 111.951 217.616C111.474 217.969 110.9 218.145 110.229 218.145ZM110.229 217.007C110.82 217.007 111.282 216.719 111.614 216.142C111.95 215.565 112.117 214.732 112.117 213.641C112.117 212.916 112.04 212.304 111.887 211.804C111.737 211.301 111.519 210.92 111.235 210.662C110.954 210.401 110.619 210.27 110.229 210.27C109.641 210.27 109.18 210.56 108.844 211.139C108.509 211.719 108.34 212.553 108.337 213.641C108.337 214.368 108.413 214.983 108.563 215.486C108.717 215.986 108.934 216.365 109.215 216.624C109.496 216.879 109.835 217.007 110.229 217.007ZM117.975 218.145C117.302 218.142 116.727 217.964 116.25 217.612C115.772 217.26 115.407 216.747 115.154 216.074C114.902 215.401 114.775 214.589 114.775 213.641C114.775 212.695 114.902 211.886 115.154 211.216C115.41 210.545 115.777 210.034 116.254 209.682C116.734 209.33 117.308 209.153 117.975 209.153C118.643 209.153 119.216 209.331 119.693 209.686C120.17 210.038 120.535 210.55 120.788 211.22C121.044 211.888 121.172 212.695 121.172 213.641C121.172 214.592 121.045 215.405 120.792 216.078C120.539 216.749 120.174 217.261 119.697 217.616C119.22 217.969 118.646 218.145 117.975 218.145ZM117.975 217.007C118.566 217.007 119.028 216.719 119.36 216.142C119.696 215.565 119.863 214.732 119.863 213.641C119.863 212.916 119.787 212.304 119.633 211.804C119.483 211.301 119.265 210.92 118.981 210.662C118.7 210.401 118.365 210.27 117.975 210.27C117.387 210.27 116.926 210.56 116.591 211.139C116.255 211.719 116.086 212.553 116.083 213.641C116.083 214.368 116.159 214.983 116.309 215.486C116.463 215.986 116.68 216.365 116.961 216.624C117.243 216.879 117.581 217.007 117.975 217.007Z" fill="black"/>
<rect x="143" y="200" width="62" height="28" rx="14" fill="#A3DC2F"/>
<path d="M162.533 219.091V208.182H163.232V219.091H162.533ZM164.719 211.565C164.673 211.162 164.486 210.849 164.156 210.628C163.827 210.403 163.412 210.291 162.912 210.291C162.554 210.291 162.244 210.348 161.983 210.462C161.722 210.572 161.518 210.726 161.374 210.922C161.232 211.115 161.161 211.335 161.161 211.582C161.161 211.79 161.209 211.969 161.305 212.119C161.405 212.27 161.534 212.396 161.693 212.499C161.855 212.598 162.028 212.682 162.213 212.75C162.398 212.815 162.575 212.869 162.746 212.912L163.598 213.134C163.876 213.202 164.162 213.294 164.455 213.411C164.747 213.527 165.018 213.68 165.268 213.871C165.518 214.061 165.72 214.297 165.874 214.578C166.03 214.859 166.108 215.196 166.108 215.588C166.108 216.082 165.98 216.521 165.724 216.905C165.472 217.288 165.104 217.591 164.621 217.812C164.141 218.034 163.56 218.145 162.878 218.145C162.224 218.145 161.659 218.041 161.182 217.834C160.705 217.626 160.331 217.332 160.061 216.952C159.791 216.568 159.642 216.114 159.614 215.588H160.935C160.96 215.903 161.063 216.166 161.241 216.376C161.423 216.584 161.655 216.739 161.936 216.841C162.22 216.94 162.531 216.99 162.869 216.99C163.241 216.99 163.572 216.932 163.862 216.815C164.155 216.696 164.385 216.531 164.553 216.321C164.72 216.108 164.804 215.859 164.804 215.575C164.804 215.317 164.73 215.105 164.582 214.94C164.438 214.776 164.24 214.639 163.99 214.531C163.743 214.423 163.463 214.328 163.151 214.246L162.119 213.964C161.42 213.774 160.866 213.494 160.457 213.125C160.051 212.756 159.848 212.267 159.848 211.659C159.848 211.156 159.984 210.717 160.257 210.342C160.53 209.967 160.899 209.676 161.365 209.469C161.831 209.259 162.357 209.153 162.942 209.153C163.533 209.153 164.054 209.257 164.506 209.464C164.96 209.672 165.318 209.957 165.58 210.321C165.841 210.682 165.977 211.097 165.989 211.565H164.719ZM167.856 218L171.666 210.466V210.402H167.26V209.273H173.029V210.44L169.233 218H167.856ZM177.362 218.145C176.689 218.142 176.114 217.964 175.636 217.612C175.159 217.26 174.794 216.747 174.541 216.074C174.288 215.401 174.162 214.589 174.162 213.641C174.162 212.695 174.288 211.886 174.541 211.216C174.797 210.545 175.163 210.034 175.641 209.682C176.121 209.33 176.695 209.153 177.362 209.153C178.03 209.153 178.602 209.331 179.08 209.686C179.557 210.038 179.922 210.55 180.175 211.22C180.43 211.888 180.558 212.695 180.558 213.641C180.558 214.592 180.432 215.405 180.179 216.078C179.926 216.749 179.561 217.261 179.084 217.616C178.607 217.969 178.033 218.145 177.362 218.145ZM177.362 217.007C177.953 217.007 178.415 216.719 178.747 216.142C179.082 215.565 179.25 214.732 179.25 213.641C179.25 212.916 179.173 212.304 179.02 211.804C178.869 211.301 178.652 210.92 178.368 210.662C178.087 210.401 177.751 210.27 177.362 210.27C176.774 210.27 176.313 210.56 175.977 211.139C175.642 211.719 175.473 212.553 175.47 213.641C175.47 214.368 175.545 214.983 175.696 215.486C175.849 215.986 176.067 216.365 176.348 216.624C176.629 216.879 176.967 217.007 177.362 217.007ZM185.108 218.145C184.435 218.142 183.86 217.964 183.382 217.612C182.905 217.26 182.54 216.747 182.287 216.074C182.034 215.401 181.908 214.589 181.908 213.641C181.908 212.695 182.034 211.886 182.287 211.216C182.543 210.545 182.909 210.034 183.387 209.682C183.867 209.33 184.441 209.153 185.108 209.153C185.776 209.153 186.348 209.331 186.826 209.686C187.303 210.038 187.668 210.55 187.921 211.22C188.176 211.888 188.304 212.695 188.304 213.641C188.304 214.592 188.178 215.405 187.925 216.078C187.672 216.749 187.307 217.261 186.83 217.616C186.353 217.969 185.779 218.145 185.108 218.145ZM185.108 217.007C185.699 217.007 186.161 216.719 186.493 216.142C186.828 215.565 186.996 214.732 186.996 213.641C186.996 212.916 186.919 212.304 186.766 211.804C186.615 211.301 186.398 210.92 186.114 210.662C185.833 210.401 185.498 210.27 185.108 210.27C184.52 210.27 184.059 210.56 183.723 211.139C183.388 211.719 183.219 212.553 183.216 213.641C183.216 214.368 183.292 214.983 183.442 215.486C183.596 215.986 183.813 216.365 184.094 216.624C184.375 216.879 184.713 217.007 185.108 217.007Z" fill="black"/>
<path d="M227.533 219.091V208.182H228.232V219.091H227.533ZM229.719 211.565C229.673 211.162 229.486 210.849 229.156 210.628C228.827 210.403 228.412 210.291 227.912 210.291C227.554 210.291 227.244 210.348 226.983 210.462C226.722 210.572 226.518 210.726 226.374 210.922C226.232 211.115 226.161 211.335 226.161 211.582C226.161 211.79 226.209 211.969 226.305 212.119C226.405 212.27 226.534 212.396 226.693 212.499C226.855 212.598 227.028 212.682 227.213 212.75C227.398 212.815 227.575 212.869 227.746 212.912L228.598 213.134C228.876 213.202 229.162 213.294 229.455 213.411C229.747 213.527 230.018 213.68 230.268 213.871C230.518 214.061 230.72 214.297 230.874 214.578C231.03 214.859 231.108 215.196 231.108 215.588C231.108 216.082 230.98 216.521 230.724 216.905C230.472 217.288 230.104 217.591 229.621 217.812C229.141 218.034 228.56 218.145 227.878 218.145C227.224 218.145 226.659 218.041 226.182 217.834C225.705 217.626 225.331 217.332 225.061 216.952C224.791 216.568 224.642 216.114 224.614 215.588H225.935C225.96 215.903 226.063 216.166 226.241 216.376C226.423 216.584 226.655 216.739 226.936 216.841C227.22 216.94 227.531 216.99 227.869 216.99C228.241 216.99 228.572 216.932 228.862 216.815C229.155 216.696 229.385 216.531 229.553 216.321C229.72 216.108 229.804 215.859 229.804 215.575C229.804 215.317 229.73 215.105 229.582 214.94C229.438 214.776 229.24 214.639 228.99 214.531C228.743 214.423 228.463 214.328 228.151 214.246L227.119 213.964C226.42 213.774 225.866 213.494 225.457 213.125C225.051 212.756 224.848 212.267 224.848 211.659C224.848 211.156 224.984 210.717 225.257 210.342C225.53 209.967 225.899 209.676 226.365 209.469C226.831 209.259 227.357 209.153 227.942 209.153C228.533 209.153 229.054 209.257 229.506 209.464C229.96 209.672 230.318 209.957 230.58 210.321C230.841 210.682 230.977 211.097 230.989 211.565H229.719ZM235.511 218.119C234.9 218.119 234.36 218.014 233.892 217.804C233.426 217.594 233.061 217.304 232.797 216.935C232.532 216.565 232.402 216.145 232.404 215.673C232.402 215.304 232.477 214.964 232.63 214.655C232.787 214.342 232.998 214.082 233.265 213.875C233.532 213.665 233.831 213.531 234.16 213.474V213.423C233.725 213.318 233.377 213.085 233.116 212.724C232.855 212.364 232.725 211.949 232.728 211.48C232.725 211.034 232.843 210.636 233.082 210.287C233.324 209.935 233.654 209.658 234.075 209.456C234.495 209.254 234.974 209.153 235.511 209.153C236.042 209.153 236.517 209.256 236.934 209.46C237.355 209.662 237.686 209.939 237.927 210.291C238.169 210.641 238.291 211.037 238.294 211.48C238.291 211.949 238.157 212.364 237.893 212.724C237.629 213.085 237.285 213.318 236.862 213.423V213.474C237.189 213.531 237.483 213.665 237.744 213.875C238.008 214.082 238.218 214.342 238.375 214.655C238.534 214.964 238.615 215.304 238.618 215.673C238.615 216.145 238.481 216.565 238.217 216.935C237.953 217.304 237.586 217.594 237.118 217.804C236.652 218.014 236.116 218.119 235.511 218.119ZM235.511 217.041C235.872 217.041 236.184 216.982 236.449 216.862C236.713 216.74 236.917 216.571 237.062 216.355C237.207 216.136 237.281 215.881 237.284 215.588C237.281 215.284 237.201 215.016 237.045 214.783C236.892 214.55 236.683 214.366 236.419 214.233C236.154 214.099 235.852 214.033 235.511 214.033C235.167 214.033 234.862 214.099 234.595 214.233C234.328 214.366 234.118 214.55 233.964 214.783C233.811 215.016 233.735 215.284 233.738 215.588C233.735 215.881 233.805 216.136 233.947 216.355C234.092 216.571 234.298 216.74 234.565 216.862C234.832 216.982 235.147 217.041 235.511 217.041ZM235.511 212.98C235.801 212.98 236.058 212.922 236.282 212.805C236.507 212.689 236.683 212.527 236.811 212.32C236.941 212.112 237.008 211.869 237.011 211.591C237.008 211.318 236.943 211.08 236.815 210.875C236.69 210.67 236.515 210.513 236.291 210.402C236.066 210.288 235.806 210.232 235.511 210.232C235.21 210.232 234.946 210.288 234.718 210.402C234.494 210.513 234.319 210.67 234.194 210.875C234.069 211.08 234.008 211.318 234.011 211.591C234.008 211.869 234.071 212.112 234.199 212.32C234.326 212.527 234.502 212.689 234.727 212.805C234.954 212.922 235.216 212.98 235.511 212.98ZM243.183 218.145C242.509 218.142 241.934 217.964 241.457 217.612C240.979 217.26 240.614 216.747 240.362 216.074C240.109 215.401 239.982 214.589 239.982 213.641C239.982 212.695 240.109 211.886 240.362 211.216C240.617 210.545 240.984 210.034 241.461 209.682C241.941 209.33 242.515 209.153 243.183 209.153C243.85 209.153 244.423 209.331 244.9 209.686C245.377 210.038 245.742 210.55 245.995 211.22C246.251 211.888 246.379 212.695 246.379 213.641C246.379 214.592 246.252 215.405 245.999 216.078C245.746 216.749 245.381 217.261 244.904 217.616C244.427 217.969 243.853 218.145 243.183 218.145ZM243.183 217.007C243.773 217.007 244.235 216.719 244.567 216.142C244.903 215.565 245.07 214.732 245.07 213.641C245.07 212.916 244.994 212.304 244.84 211.804C244.69 211.301 244.472 210.92 244.188 210.662C243.907 210.401 243.572 210.27 243.183 210.27C242.594 210.27 242.133 210.56 241.798 211.139C241.462 211.719 241.293 212.553 241.29 213.641C241.29 214.368 241.366 214.983 241.516 215.486C241.67 215.986 241.887 216.365 242.168 216.624C242.45 216.879 242.788 217.007 243.183 217.007ZM250.929 218.145C250.255 218.142 249.68 217.964 249.203 217.612C248.725 217.26 248.36 216.747 248.108 216.074C247.855 215.401 247.728 214.589 247.728 213.641C247.728 212.695 247.855 211.886 248.108 211.216C248.363 210.545 248.73 210.034 249.207 209.682C249.687 209.33 250.261 209.153 250.929 209.153C251.596 209.153 252.169 209.331 252.646 209.686C253.123 210.038 253.488 210.55 253.741 211.22C253.997 211.888 254.125 212.695 254.125 213.641C254.125 214.592 253.998 215.405 253.745 216.078C253.493 216.749 253.127 217.261 252.65 217.616C252.173 217.969 251.599 218.145 250.929 218.145ZM250.929 217.007C251.52 217.007 251.981 216.719 252.314 216.142C252.649 215.565 252.816 214.732 252.816 213.641C252.816 212.916 252.74 212.304 252.586 211.804C252.436 211.301 252.218 210.92 251.934 210.662C251.653 210.401 251.318 210.27 250.929 210.27C250.341 210.27 249.879 210.56 249.544 211.139C249.208 211.719 249.039 212.553 249.037 213.641C249.037 214.368 249.112 214.983 249.262 215.486C249.416 215.986 249.633 216.365 249.914 216.624C250.196 216.879 250.534 217.007 250.929 217.007Z" fill="black"/>
<path d="M299.54 213.636C299.54 214.568 299.369 215.369 299.028 216.04C298.688 216.707 298.22 217.222 297.626 217.582C297.036 217.94 296.364 218.119 295.611 218.119C294.855 218.119 294.18 217.94 293.587 217.582C292.996 217.222 292.53 216.706 292.189 216.036C291.848 215.365 291.678 214.565 291.678 213.636C291.678 212.705 291.848 211.905 292.189 211.237C292.53 210.567 292.996 210.053 293.587 209.695C294.18 209.334 294.855 209.153 295.611 209.153C296.364 209.153 297.036 209.334 297.626 209.695C298.22 210.053 298.688 210.567 299.028 211.237C299.369 211.905 299.54 212.705 299.54 213.636ZM298.236 213.636C298.236 212.926 298.121 212.328 297.891 211.842C297.663 211.354 297.351 210.984 296.953 210.734C296.558 210.482 296.111 210.355 295.611 210.355C295.108 210.355 294.659 210.482 294.264 210.734C293.869 210.984 293.557 211.354 293.327 211.842C293.099 212.328 292.986 212.926 292.986 213.636C292.986 214.347 293.099 214.946 293.327 215.435C293.557 215.92 293.869 216.29 294.264 216.543C294.659 216.793 295.108 216.918 295.611 216.918C296.111 216.918 296.558 216.793 296.953 216.543C297.351 216.29 297.663 215.92 297.891 215.435C298.121 214.946 298.236 214.347 298.236 213.636ZM304.135 211.455V212.477H300.559V211.455H304.135ZM301.518 209.886H302.792V216.078C302.792 216.325 302.829 216.511 302.903 216.636C302.977 216.759 303.072 216.842 303.189 216.888C303.308 216.93 303.437 216.952 303.576 216.952C303.679 216.952 303.768 216.945 303.845 216.93C303.922 216.916 303.981 216.905 304.024 216.896L304.254 217.949C304.18 217.977 304.075 218.006 303.939 218.034C303.802 218.065 303.632 218.082 303.427 218.085C303.092 218.091 302.779 218.031 302.49 217.906C302.2 217.781 301.966 217.588 301.787 217.327C301.608 217.065 301.518 216.737 301.518 216.342V209.886ZM306.959 214.114V218H305.685V209.273H306.942V212.52H307.023C307.176 212.168 307.411 211.888 307.726 211.68C308.041 211.473 308.453 211.369 308.962 211.369C309.411 211.369 309.803 211.462 310.138 211.646C310.476 211.831 310.737 212.107 310.922 212.473C311.109 212.837 311.203 213.291 311.203 213.837V218H309.929V213.99C309.929 213.51 309.805 213.138 309.558 212.874C309.311 212.607 308.967 212.473 308.527 212.473C308.226 212.473 307.956 212.537 307.717 212.665C307.482 212.793 307.295 212.98 307.159 213.227C307.026 213.472 306.959 213.767 306.959 214.114ZM315.724 218.132C315.08 218.132 314.524 217.994 314.058 217.719C313.595 217.44 313.237 217.05 312.984 216.547C312.734 216.041 312.609 215.449 312.609 214.77C312.609 214.099 312.734 213.509 312.984 212.997C313.237 212.486 313.589 212.087 314.041 211.8C314.496 211.513 315.027 211.369 315.635 211.369C316.004 211.369 316.362 211.43 316.709 211.553C317.055 211.675 317.366 211.866 317.642 212.128C317.918 212.389 318.135 212.729 318.294 213.146C318.453 213.561 318.533 214.065 318.533 214.659V215.111H313.33V214.156H317.284C317.284 213.821 317.216 213.524 317.08 213.266C316.943 213.004 316.751 212.798 316.504 212.648C316.26 212.497 315.973 212.422 315.643 212.422C315.286 212.422 314.973 212.51 314.706 212.686C314.442 212.859 314.237 213.087 314.092 213.368C313.95 213.646 313.879 213.949 313.879 214.276V215.021C313.879 215.459 313.956 215.831 314.109 216.138C314.266 216.445 314.483 216.679 314.761 216.841C315.04 217 315.365 217.08 315.737 217.08C315.979 217.08 316.199 217.045 316.398 216.977C316.597 216.906 316.768 216.801 316.913 216.662C317.058 216.523 317.169 216.351 317.246 216.146L318.452 216.364C318.355 216.719 318.182 217.03 317.932 217.297C317.685 217.561 317.374 217.767 316.999 217.915C316.626 218.06 316.202 218.132 315.724 218.132ZM319.946 218V211.455H321.178V212.494H321.246C321.365 212.142 321.576 211.865 321.877 211.663C322.181 211.459 322.525 211.357 322.908 211.357C322.988 211.357 323.081 211.359 323.189 211.365C323.3 211.371 323.387 211.378 323.449 211.386V212.605C323.398 212.591 323.307 212.575 323.176 212.558C323.046 212.538 322.915 212.528 322.784 212.528C322.483 212.528 322.215 212.592 321.979 212.72C321.746 212.845 321.561 213.02 321.425 213.244C321.289 213.466 321.221 213.719 321.221 214.003V218H319.946Z" fill="black"/>
<path d="M39.8097 263.455C39.8097 264.852 39.554 266.054 39.0426 267.06C38.5313 268.061 37.8303 268.832 36.9396 269.374C36.0533 269.911 35.0455 270.179 33.9162 270.179C32.7827 270.179 31.7706 269.911 30.88 269.374C29.9936 268.832 29.2947 268.059 28.7834 267.053C28.272 266.048 28.0163 264.848 28.0163 263.455C28.0163 262.057 28.272 260.857 28.7834 259.856C29.2947 258.85 29.9936 258.079 30.88 257.542C31.7706 257.001 32.7827 256.73 33.9162 256.73C35.0455 256.73 36.0533 257.001 36.9396 257.542C37.8303 258.079 38.5313 258.85 39.0426 259.856C39.554 260.857 39.8097 262.057 39.8097 263.455ZM37.8537 263.455C37.8537 262.389 37.6811 261.492 37.3359 260.763C36.995 260.031 36.5263 259.477 35.9297 259.102C35.3374 258.722 34.6662 258.533 33.9162 258.533C33.1619 258.533 32.4886 258.722 31.8963 259.102C31.304 259.477 30.8352 260.031 30.4901 260.763C30.1491 261.492 29.9787 262.389 29.9787 263.455C29.9787 264.52 30.1491 265.419 30.4901 266.152C30.8352 266.881 31.304 267.435 31.8963 267.814C32.4886 268.189 33.1619 268.376 33.9162 268.376C34.6662 268.376 35.3374 268.189 35.9297 267.814C36.5263 267.435 36.995 266.881 37.3359 266.152C37.6811 265.419 37.8537 264.52 37.8537 263.455ZM44.03 264.17V270H42.1188V260.182H43.9533V261.78H44.0748C44.3006 261.26 44.6543 260.842 45.1358 260.527C45.6216 260.212 46.2331 260.054 46.9703 260.054C47.6394 260.054 48.2253 260.195 48.7282 260.476C49.231 260.753 49.6209 261.166 49.8979 261.716C50.1749 262.266 50.3134 262.945 50.3134 263.755V270H48.4022V263.985C48.4022 263.273 48.2168 262.717 47.8461 262.317C47.4753 261.912 46.9661 261.71 46.3184 261.71C45.8752 261.71 45.481 261.805 45.1358 261.997C44.7949 262.189 44.5243 262.47 44.324 262.841C44.128 263.207 44.03 263.651 44.03 264.17ZM54.7878 256.909V270H52.8766V256.909H54.7878ZM57.359 270V260.182H59.2702V270H57.359ZM58.3242 258.667C57.9918 258.667 57.7063 258.556 57.4677 258.335C57.2333 258.109 57.1161 257.84 57.1161 257.529C57.1161 257.214 57.2333 256.945 57.4677 256.724C57.7063 256.498 57.9918 256.385 58.3242 256.385C58.6566 256.385 58.94 256.498 59.1744 256.724C59.413 256.945 59.5323 257.214 59.5323 257.529C59.5323 257.84 59.413 258.109 59.1744 258.335C58.94 258.556 58.6566 258.667 58.3242 258.667ZM63.7527 264.17V270H61.8414V260.182H63.676V261.78H63.7974C64.0233 261.26 64.377 260.842 64.8585 260.527C65.3443 260.212 65.9558 260.054 66.693 260.054C67.362 260.054 67.948 260.195 68.4508 260.476C68.9537 260.753 69.3436 261.166 69.6206 261.716C69.8976 262.266 70.036 262.945 70.036 263.755V270H68.1248V263.985C68.1248 263.273 67.9395 262.717 67.5687 262.317C67.198 261.912 66.6887 261.71 66.041 261.71C65.5978 261.71 65.2037 261.805 64.8585 261.997C64.5176 262.189 64.247 262.47 64.0467 262.841C63.8507 263.207 63.7527 263.651 63.7527 264.17ZM76.8308 270.198C75.8635 270.198 75.0304 269.991 74.3315 269.578C73.6369 269.161 73.1 268.575 72.7207 267.82C72.3457 267.062 72.1582 266.173 72.1582 265.155C72.1582 264.149 72.3457 263.263 72.7207 262.496C73.1 261.729 73.6284 261.13 74.3059 260.7C74.9877 260.269 75.7846 260.054 76.6966 260.054C77.2505 260.054 77.7875 260.146 78.3074 260.329C78.8272 260.512 79.2939 260.8 79.7072 261.192C80.1206 261.584 80.4466 262.093 80.6852 262.719C80.9238 263.342 81.0431 264.098 81.0431 264.989V265.666H73.2385V264.234H79.1703C79.1703 263.732 79.068 263.286 78.8635 262.898C78.6589 262.506 78.3713 262.197 78.0005 261.972C77.6341 261.746 77.2037 261.633 76.7093 261.633C76.1724 261.633 75.7037 261.765 75.3031 262.029C74.9068 262.289 74.6 262.63 74.3826 263.052C74.1696 263.469 74.063 263.923 74.063 264.413V265.532C74.063 266.188 74.1781 266.746 74.4082 267.207C74.6426 267.667 74.9686 268.018 75.3862 268.261C75.8038 268.5 76.2917 268.619 76.85 268.619C77.2122 268.619 77.5424 268.568 77.8407 268.466C78.139 268.359 78.3968 268.202 78.6142 267.993C78.8315 267.784 78.9977 267.526 79.1127 267.219L80.9217 267.545C80.7768 268.078 80.5169 268.545 80.1419 268.945C79.7711 269.342 79.3045 269.651 78.742 269.872C78.1838 270.089 77.5467 270.198 76.8308 270.198ZM88.0808 270V256.909H92.747C93.7654 256.909 94.6092 257.094 95.2782 257.465C95.9473 257.836 96.448 258.343 96.7804 258.987C97.1127 259.626 97.2789 260.346 97.2789 261.147C97.2789 261.952 97.1106 262.677 96.774 263.32C96.4416 263.96 95.9387 264.467 95.2654 264.842C94.5964 265.212 93.7548 265.398 92.7406 265.398H89.5318V263.723H92.5616C93.2051 263.723 93.7271 263.612 94.1277 263.391C94.5282 263.165 94.8223 262.858 95.0098 262.47C95.1973 262.082 95.291 261.641 95.291 261.147C95.291 260.653 95.1973 260.214 95.0098 259.83C94.8223 259.447 94.5261 259.146 94.1213 258.929C93.7207 258.712 93.1923 258.603 92.536 258.603H90.0559V270H88.0808ZM102.21 270.217C101.588 270.217 101.026 270.102 100.523 269.872C100.02 269.638 99.6216 269.299 99.3276 268.856C99.0378 268.413 98.8929 267.869 98.8929 267.226C98.8929 266.672 98.9995 266.216 99.2125 265.858C99.4256 265.5 99.7132 265.217 100.075 265.008C100.438 264.799 100.843 264.641 101.29 264.535C101.737 264.428 102.193 264.347 102.658 264.292C103.246 264.224 103.723 264.168 104.09 264.126C104.456 264.079 104.722 264.004 104.889 263.902C105.055 263.8 105.138 263.634 105.138 263.403V263.359C105.138 262.8 104.98 262.368 104.665 262.061C104.354 261.754 103.889 261.601 103.271 261.601C102.628 261.601 102.121 261.744 101.75 262.029C101.384 262.31 101.13 262.624 100.99 262.969L99.1934 262.56C99.4064 261.963 99.7175 261.482 100.127 261.115C100.54 260.744 101.015 260.476 101.552 260.31C102.089 260.139 102.654 260.054 103.246 260.054C103.638 260.054 104.053 260.101 104.492 260.195C104.936 260.284 105.349 260.45 105.732 260.693C106.12 260.936 106.438 261.283 106.685 261.735C106.932 262.183 107.056 262.764 107.056 263.48V270H105.189V268.658H105.112C104.989 268.905 104.803 269.148 104.556 269.386C104.309 269.625 103.992 269.823 103.604 269.981C103.216 270.138 102.752 270.217 102.21 270.217ZM102.626 268.683C103.154 268.683 103.606 268.579 103.981 268.37C104.36 268.161 104.648 267.888 104.844 267.552C105.044 267.211 105.144 266.847 105.144 266.459V265.193C105.076 265.261 104.944 265.325 104.748 265.385C104.556 265.44 104.337 265.489 104.09 265.532C103.843 265.57 103.602 265.607 103.367 265.641C103.133 265.67 102.937 265.696 102.779 265.717C102.409 265.764 102.07 265.843 101.763 265.954C101.46 266.065 101.218 266.224 101.034 266.433C100.855 266.638 100.766 266.911 100.766 267.251C100.766 267.724 100.941 268.082 101.29 268.325C101.639 268.564 102.085 268.683 102.626 268.683ZM110.458 273.682C110.172 273.682 109.912 273.658 109.678 273.612C109.444 273.569 109.269 273.522 109.154 273.471L109.614 271.905C109.963 271.999 110.275 272.039 110.547 272.026C110.82 272.013 111.061 271.911 111.27 271.719C111.483 271.528 111.67 271.214 111.832 270.78L112.069 270.128L108.476 260.182H110.522L113.008 267.801H113.11L115.597 260.182H117.649L113.603 271.31C113.415 271.822 113.176 272.254 112.887 272.608C112.597 272.966 112.252 273.234 111.851 273.413C111.451 273.592 110.986 273.682 110.458 273.682ZM119.445 270V260.182H121.279V261.78H121.401C121.605 261.239 121.94 260.817 122.404 260.514C122.869 260.207 123.425 260.054 124.073 260.054C124.729 260.054 125.279 260.207 125.722 260.514C126.169 260.821 126.5 261.243 126.713 261.78H126.815C127.049 261.256 127.422 260.838 127.934 260.527C128.445 260.212 129.054 260.054 129.762 260.054C130.652 260.054 131.379 260.333 131.941 260.891C132.508 261.45 132.792 262.291 132.792 263.416V270H130.88V263.595C130.88 262.93 130.699 262.449 130.337 262.151C129.975 261.852 129.542 261.703 129.039 261.703C128.417 261.703 127.934 261.895 127.588 262.278C127.243 262.658 127.071 263.146 127.071 263.742V270H125.166V263.474C125.166 262.941 125 262.513 124.667 262.189C124.335 261.865 123.902 261.703 123.37 261.703C123.007 261.703 122.673 261.799 122.366 261.991C122.064 262.178 121.819 262.44 121.631 262.777C121.448 263.114 121.356 263.504 121.356 263.947V270H119.445ZM139.585 270.198C138.617 270.198 137.784 269.991 137.085 269.578C136.391 269.161 135.854 268.575 135.475 267.82C135.1 267.062 134.912 266.173 134.912 265.155C134.912 264.149 135.1 263.263 135.475 262.496C135.854 261.729 136.382 261.13 137.06 260.7C137.742 260.269 138.539 260.054 139.45 260.054C140.004 260.054 140.541 260.146 141.061 260.329C141.581 260.512 142.048 260.8 142.461 261.192C142.874 261.584 143.2 262.093 143.439 262.719C143.678 263.342 143.797 264.098 143.797 264.989V265.666H135.992V264.234H141.924C141.924 263.732 141.822 263.286 141.617 262.898C141.413 262.506 141.125 262.197 140.754 261.972C140.388 261.746 139.958 261.633 139.463 261.633C138.926 261.633 138.458 261.765 138.057 262.029C137.661 262.289 137.354 262.63 137.137 263.052C136.923 263.469 136.817 263.923 136.817 264.413V265.532C136.817 266.188 136.932 266.746 137.162 267.207C137.396 267.667 137.722 268.018 138.14 268.261C138.558 268.5 139.046 268.619 139.604 268.619C139.966 268.619 140.296 268.568 140.595 268.466C140.893 268.359 141.151 268.202 141.368 267.993C141.585 267.784 141.752 267.526 141.867 267.219L143.676 267.545C143.531 268.078 143.271 268.545 142.896 268.945C142.525 269.342 142.058 269.651 141.496 269.872C140.938 270.089 140.301 270.198 139.585 270.198ZM147.829 264.17V270H145.918V260.182H147.752V261.78H147.874C148.099 261.26 148.453 260.842 148.935 260.527C149.42 260.212 150.032 260.054 150.769 260.054C151.438 260.054 152.024 260.195 152.527 260.476C153.03 260.753 153.42 261.166 153.697 261.716C153.974 262.266 154.112 262.945 154.112 263.755V270H152.201V263.985C152.201 263.273 152.016 262.717 151.645 262.317C151.274 261.912 150.765 261.71 150.117 261.71C149.674 261.71 149.28 261.805 148.935 261.997C148.594 262.189 148.323 262.47 148.123 262.841C147.927 263.207 147.829 263.651 147.829 264.17ZM161.259 260.182V261.716H155.896V260.182H161.259ZM157.334 257.83H159.245V267.117C159.245 267.488 159.3 267.767 159.411 267.955C159.522 268.138 159.665 268.263 159.839 268.332C160.018 268.396 160.212 268.428 160.421 268.428C160.575 268.428 160.709 268.417 160.824 268.396C160.939 268.374 161.028 268.357 161.092 268.344L161.438 269.923C161.327 269.966 161.169 270.009 160.964 270.051C160.76 270.098 160.504 270.124 160.197 270.128C159.695 270.136 159.226 270.047 158.791 269.859C158.357 269.672 158.005 269.382 157.737 268.99C157.468 268.598 157.334 268.106 157.334 267.513V257.83Z" fill="black"/>
<rect x="29" y="293" width="182" height="10" rx="5" fill="#EFEFEF"/>
<rect x="29" y="313" width="99" height="10" rx="5" fill="#EFEFEF"/>
<rect x="292" y="260" width="35" height="20" rx="10" fill="#A3DC2F"/>
<circle cx="317" cy="270" r="8" fill="white"/>
<rect width="35" height="20" rx="10" transform="matrix(-1 0 0 1 327 303)" fill="#D8D8D8"/>
<circle cx="8" cy="8" r="8" transform="matrix(-1 0 0 1 310 305)" fill="white"/>
</svg>
