<svg width="86" height="16" viewBox="0 0 86 16" fill="none" xmlns="http://www.w3.org/2000/svg">
<path fill-rule="evenodd" clip-rule="evenodd" d="M8.22335 1.00843C7.72747 0.773233 7.15219 0.773232 6.65631 1.00843C6.31302 1.17124 6.06951 1.47944 5.85373 1.82778C5.63679 2.17801 5.39877 2.65406 5.10237 3.24688L5.10236 3.2469L5.09076 3.27012L4.85186 3.74791C4.64861 4.15441 4.58951 4.26094 4.5153 4.33861C4.43876 4.41872 4.34699 4.48272 4.24536 4.52684C4.14682 4.56962 4.02643 4.58826 3.57473 4.63845L3.35787 4.66255L3.33184 4.66544H3.33184C2.61977 4.74455 2.05094 4.80775 1.62029 4.89534C1.19557 4.98174 0.799742 5.10962 0.522665 5.39232C0.126232 5.79678 -0.0604009 6.36214 0.0173119 6.92314C0.0716268 7.31522 0.313515 7.65366 0.603331 7.97594C0.89719 8.30268 1.31659 8.69218 1.84161 9.1797L1.86079 9.19752L2.08975 9.41009C2.48744 9.77938 2.58941 9.88384 2.64654 9.99508C2.70552 10.11 2.73694 10.237 2.7383 10.3661C2.73961 10.491 2.69726 10.6335 2.51513 11.1526L2.50652 11.1771L2.50651 11.1772C2.23773 11.9431 2.02488 12.5498 1.90403 13.0218C1.78663 13.4802 1.72085 13.9304 1.8739 14.3203C2.08927 14.8689 2.55587 15.28 3.12721 15.4246C3.53207 15.5271 3.96656 15.4077 4.40268 15.2357C4.85039 15.0591 5.41731 14.7757 6.13211 14.4183L6.15551 14.4066L6.7113 14.1286C7.08604 13.9413 7.18837 13.8952 7.28657 13.8767C7.38784 13.8577 7.49183 13.8577 7.59309 13.8767C7.69129 13.8952 7.79362 13.9413 8.16836 14.1286L8.72415 14.4066L8.74762 14.4183C9.46239 14.7757 10.0293 15.0591 10.477 15.2357C10.9131 15.4077 11.3476 15.5271 11.7524 15.4246C12.3238 15.28 12.7904 14.8689 13.0058 14.3203C13.1588 13.9304 13.093 13.4802 12.9756 13.0218C12.8548 12.5498 12.6419 11.9431 12.3731 11.1771V11.177L12.3645 11.1526C12.1824 10.6335 12.1401 10.491 12.1413 10.3661C12.1427 10.237 12.1741 10.11 12.2332 9.99508C12.2903 9.88384 12.3922 9.77938 12.7899 9.41009L13.0189 9.19752L13.0381 9.17963C13.5631 8.69212 13.9825 8.30268 14.2763 7.97594C14.5662 7.65366 14.808 7.31522 14.8624 6.92314C14.9401 6.36214 14.7535 5.79678 14.357 5.39232C14.0799 5.10962 13.6841 4.98174 13.2594 4.89534C12.8287 4.80775 12.2599 4.74455 11.5478 4.66544L11.5218 4.66255L11.305 4.63845C10.8532 4.58826 10.7328 4.56962 10.6343 4.52684C10.5327 4.48272 10.4409 4.41872 10.3644 4.33861C10.2902 4.26094 10.2311 4.15441 10.0278 3.7479L9.78892 3.27012L9.77728 3.24689C9.48087 2.65406 9.2429 2.17801 9.02595 1.82778C8.81019 1.47944 8.5667 1.17125 8.22335 1.00843Z" fill="#FFC250"/>
<path fill-rule="evenodd" clip-rule="evenodd" d="M25.864 1.00843C25.3681 0.773233 24.7928 0.773232 24.2969 1.00843C23.9536 1.17124 23.7101 1.47944 23.4944 1.82778C23.2774 2.17801 23.0394 2.65406 22.743 3.24688L22.743 3.2469L22.7314 3.27012L22.4925 3.74791C22.2892 4.15441 22.2301 4.26094 22.1559 4.33861C22.0794 4.41872 21.9876 4.48272 21.886 4.52684C21.7874 4.56962 21.6671 4.58826 21.2154 4.63845L20.9985 4.66255L20.9725 4.66544H20.9725C20.2604 4.74455 19.6916 4.80775 19.2609 4.89534C18.8362 4.98174 18.4404 5.10962 18.1633 5.39232C17.7669 5.79678 17.5802 6.36214 17.6579 6.92314C17.7123 7.31522 17.9541 7.65366 18.244 7.97594C18.5378 8.30268 18.9572 8.69218 19.4822 9.1797L19.5014 9.19752L19.7304 9.41009C20.1281 9.77938 20.23 9.88384 20.2872 9.99508C20.3461 10.11 20.3776 10.237 20.3789 10.3661C20.3802 10.491 20.3379 10.6335 20.1558 11.1526L20.1471 11.1771L20.1471 11.1772C19.8784 11.9431 19.6655 12.5498 19.5447 13.0218C19.4273 13.4802 19.3615 13.9304 19.5145 14.3203C19.7299 14.8689 20.1965 15.28 20.7678 15.4246C21.1727 15.5271 21.6072 15.4077 22.0433 15.2357C22.491 15.0591 23.0579 14.7757 23.7727 14.4183L23.7961 14.4066L24.3519 14.1286C24.7267 13.9413 24.829 13.8952 24.9272 13.8767C25.0285 13.8577 25.1325 13.8577 25.2337 13.8767C25.3319 13.8952 25.4342 13.9413 25.809 14.1286L26.3648 14.4066L26.3882 14.4183C27.103 14.7757 27.6699 15.0591 28.1176 15.2357C28.5537 15.4077 28.9882 15.5271 29.3931 15.4246C29.9644 15.28 30.431 14.8689 30.6464 14.3203C30.7995 13.9304 30.7336 13.4802 30.6163 13.0218C30.4954 12.5498 30.2826 11.9431 30.0137 11.1771V11.177L30.0052 11.1526C29.823 10.6335 29.7807 10.491 29.782 10.3661C29.7834 10.237 29.8147 10.11 29.8738 9.99508C29.9309 9.88384 30.0328 9.77938 30.4306 9.41009L30.6595 9.19752L30.6787 9.17963C31.2037 8.69212 31.6231 8.30268 31.9169 7.97594C32.2068 7.65366 32.4487 7.31522 32.503 6.92314C32.5807 6.36214 32.3941 5.79678 31.9976 5.39232C31.7205 5.10962 31.3247 4.98174 30.9 4.89534C30.4693 4.80775 29.9005 4.74455 29.1885 4.66544L29.1624 4.66255L28.9456 4.63845C28.4938 4.58826 28.3734 4.56962 28.275 4.52684C28.1733 4.48272 28.0815 4.41872 28.005 4.33861C27.9308 4.26094 27.8717 4.15441 27.6684 3.7479L27.4295 3.27012L27.4179 3.24689C27.1215 2.65406 26.8835 2.17801 26.6666 1.82778C26.4508 1.47944 26.2073 1.17125 25.864 1.00843Z" fill="#FFC250"/>
<path fill-rule="evenodd" clip-rule="evenodd" d="M43.5046 1.00843C43.0087 0.773233 42.4334 0.773232 41.9376 1.00843C41.5943 1.17124 41.3508 1.47944 41.135 1.82778C40.918 2.17801 40.68 2.65406 40.3836 3.24688L40.3836 3.2469L40.372 3.27012L40.1331 3.74791C39.9299 4.15441 39.8708 4.26094 39.7966 4.33861C39.72 4.41872 39.6282 4.48272 39.5266 4.52684C39.4281 4.56962 39.3077 4.58826 38.856 4.63845L38.6391 4.66255L38.6131 4.66544H38.6131C37.901 4.74455 37.3322 4.80775 36.9015 4.89534C36.4768 4.98174 36.081 5.10962 35.8039 5.39232C35.4075 5.79678 35.2208 6.36214 35.2986 6.92314C35.3529 7.31522 35.5948 7.65366 35.8846 7.97594C36.1784 8.30268 36.5978 8.69218 37.1229 9.1797L37.142 9.19752L37.371 9.41009C37.7687 9.77938 37.8707 9.88384 37.9278 9.99508C37.9868 10.11 38.0182 10.237 38.0195 10.3661C38.0209 10.491 37.9785 10.6335 37.7964 11.1526L37.7878 11.1771L37.7878 11.1772C37.519 11.9431 37.3061 12.5498 37.1853 13.0218C37.0679 13.4802 37.0021 13.9304 37.1551 14.3203C37.3705 14.8689 37.8371 15.28 38.4085 15.4246C38.8133 15.5271 39.2478 15.4077 39.6839 15.2357C40.1316 15.0591 40.6986 14.7757 41.4134 14.4183L41.4368 14.4066L41.9925 14.1286C42.3673 13.9413 42.4696 13.8952 42.5678 13.8767C42.6691 13.8577 42.7731 13.8577 42.8743 13.8767C42.9725 13.8952 43.0749 13.9413 43.4496 14.1286L44.0054 14.4066L44.0289 14.4183C44.7436 14.7757 45.3105 15.0591 45.7582 15.2357C46.1943 15.4077 46.6288 15.5271 47.0337 15.4246C47.605 15.28 48.0717 14.8689 48.287 14.3203C48.4401 13.9304 48.3743 13.4802 48.2569 13.0218C48.136 12.5498 47.9232 11.9431 47.6544 11.1771V11.177L47.6458 11.1526C47.4637 10.6335 47.4213 10.491 47.4226 10.3661C47.424 10.237 47.4554 10.11 47.5144 9.99508C47.5715 9.88384 47.6734 9.77938 48.0712 9.41009L48.3001 9.19752L48.3193 9.17963C48.8443 8.69212 49.2638 8.30268 49.5576 7.97594C49.8474 7.65366 50.0893 7.31522 50.1436 6.92314C50.2213 6.36214 50.0347 5.79678 49.6382 5.39232C49.3612 5.10962 48.9653 4.98174 48.5406 4.89534C48.11 4.80775 47.5411 4.74455 46.8291 4.66544L46.803 4.66255L46.5862 4.63845C46.1345 4.58826 46.0141 4.56962 45.9156 4.52684C45.8139 4.48272 45.7222 4.41872 45.6456 4.33861C45.5714 4.26094 45.5123 4.15441 45.3091 3.7479L45.0702 3.27012L45.0585 3.24689C44.7621 2.65406 44.5242 2.17801 44.3072 1.82778C44.0914 1.47944 43.848 1.17125 43.5046 1.00843Z" fill="#FFC250"/>
<path fill-rule="evenodd" clip-rule="evenodd" d="M61.1452 1.00843C60.6493 0.773233 60.0741 0.773232 59.5782 1.00843C59.2349 1.17124 58.9914 1.47944 58.7756 1.82778C58.5587 2.17801 58.3206 2.65406 58.0242 3.24688L58.0242 3.2469L58.0126 3.27012L57.7737 3.74791C57.5705 4.15441 57.5114 4.26094 57.4372 4.33861C57.3606 4.41872 57.2689 4.48272 57.1672 4.52684C57.0687 4.56962 56.9483 4.58826 56.4966 4.63845L56.2797 4.66255L56.2537 4.66544H56.2537C55.5416 4.74455 54.9728 4.80775 54.5422 4.89534C54.1174 4.98174 53.7216 5.10962 53.4445 5.39232C53.0481 5.79678 52.8615 6.36214 52.9392 6.92314C52.9935 7.31522 53.2354 7.65366 53.5252 7.97594C53.8191 8.30268 54.2385 8.69218 54.7635 9.1797L54.7827 9.19752L55.0116 9.41009C55.4093 9.77938 55.5113 9.88384 55.5684 9.99508C55.6274 10.11 55.6588 10.237 55.6602 10.3661C55.6615 10.491 55.6191 10.6335 55.437 11.1526L55.4284 11.1771L55.4284 11.1772C55.1596 11.9431 54.9468 12.5498 54.8259 13.0218C54.7085 13.4802 54.6427 13.9304 54.7958 14.3203C55.0111 14.8689 55.4777 15.28 56.0491 15.4246C56.4539 15.5271 56.8884 15.4077 57.3246 15.2357C57.7723 15.0591 58.3392 14.7757 59.054 14.4183L59.0774 14.4066L59.6332 14.1286C60.0079 13.9413 60.1102 13.8952 60.2084 13.8767C60.3097 13.8577 60.4137 13.8577 60.515 13.8767C60.6132 13.8952 60.7155 13.9413 61.0902 14.1286L61.646 14.4066L61.6695 14.4183C62.3843 14.7757 62.9512 15.0591 63.3988 15.2357C63.8349 15.4077 64.2695 15.5271 64.6743 15.4246C65.2457 15.28 65.7123 14.8689 65.9276 14.3203C66.0807 13.9304 66.0149 13.4802 65.8975 13.0218C65.7766 12.5498 65.5638 11.9431 65.295 11.1771V11.177L65.2864 11.1526C65.1043 10.6335 65.0619 10.491 65.0632 10.3661C65.0646 10.237 65.096 10.11 65.155 9.99508C65.2121 9.88384 65.3141 9.77938 65.7118 9.41009L65.9407 9.19752L65.96 9.17963C66.485 8.69212 66.9044 8.30268 67.1982 7.97594C67.488 7.65366 67.7299 7.31522 67.7842 6.92314C67.862 6.36214 67.6753 5.79678 67.2789 5.39232C67.0018 5.10962 66.606 4.98174 66.1812 4.89534C65.7506 4.80775 65.1818 4.74455 64.4697 4.66544L64.4437 4.66255L64.2268 4.63845C63.7751 4.58826 63.6547 4.56962 63.5562 4.52684C63.4546 4.48272 63.3628 4.41872 63.2863 4.33861C63.2121 4.26094 63.153 4.15441 62.9497 3.7479L62.7108 3.27012L62.6992 3.24689C62.4027 2.65406 62.1648 2.17801 61.9478 1.82778C61.7321 1.47944 61.4886 1.17125 61.1452 1.00843Z" fill="#FFC250"/>
<path fill-rule="evenodd" clip-rule="evenodd" d="M78.778 1.00843C78.2822 0.773233 77.7069 0.773232 77.211 1.00843C76.8677 1.17124 76.6242 1.47944 76.4084 1.82778C76.1915 2.17801 75.9535 2.65406 75.6571 3.24688L75.6571 3.2469L75.6454 3.27012L75.4066 3.74791C75.2033 4.15441 75.1442 4.26094 75.07 4.33861C74.9934 4.41872 74.9017 4.48272 74.8 4.52684C74.7015 4.56962 74.5811 4.58826 74.1294 4.63845L73.9126 4.66255L73.8865 4.66544H73.8865C73.1745 4.74455 72.6056 4.80775 72.175 4.89534C71.7503 4.98174 71.3544 5.10962 71.0774 5.39232C70.6809 5.79678 70.4943 6.36214 70.572 6.92314C70.6263 7.31522 70.8682 7.65366 71.158 7.97594C71.4519 8.30268 71.8713 8.69218 72.3963 9.1797L72.4155 9.19752L72.6444 9.41009C73.0421 9.77938 73.1441 9.88384 73.2012 9.99508C73.2602 10.11 73.2916 10.237 73.293 10.3661C73.2943 10.491 73.2519 10.6335 73.0698 11.1526L73.0612 11.1771L73.0612 11.1772C72.7924 11.9431 72.5796 12.5498 72.4587 13.0218C72.3413 13.4802 72.2755 13.9304 72.4286 14.3203C72.644 14.8689 73.1106 15.28 73.6819 15.4246C74.0868 15.5271 74.5213 15.4077 74.9574 15.2357C75.4051 15.0591 75.972 14.7757 76.6868 14.4183L76.7102 14.4066L77.266 14.1286C77.6407 13.9413 77.7431 13.8952 77.8413 13.8767C77.9425 13.8577 78.0465 13.8577 78.1478 13.8767C78.246 13.8952 78.3483 13.9413 78.723 14.1286L79.2788 14.4066L79.3023 14.4183C80.0171 14.7757 80.584 15.0591 81.0316 15.2357C81.4678 15.4077 81.9023 15.5271 82.3071 15.4246C82.8785 15.28 83.3451 14.8689 83.5605 14.3203C83.7135 13.9304 83.6477 13.4802 83.5303 13.0218C83.4095 12.5498 83.1966 11.9431 82.9278 11.1771V11.177L82.9192 11.1526C82.7371 10.6335 82.6948 10.491 82.696 10.3661C82.6974 10.237 82.7288 10.11 82.7878 9.99508C82.845 9.88384 82.9469 9.77938 83.3446 9.41009L83.5736 9.19752L83.5928 9.17963C84.1178 8.69212 84.5372 8.30268 84.831 7.97594C85.1208 7.65366 85.3627 7.31522 85.4171 6.92314C85.4948 6.36214 85.3081 5.79678 84.9117 5.39232C84.6346 5.10962 84.2388 4.98174 83.814 4.89534C83.3834 4.80775 82.8146 4.74455 82.1025 4.66544L82.0765 4.66255L81.8596 4.63845C81.4079 4.58826 81.2875 4.56962 81.189 4.52684C81.0874 4.48272 80.9956 4.41872 80.9191 4.33861C80.8449 4.26094 80.7858 4.15441 80.5825 3.7479L80.3436 3.27012L80.332 3.24689C80.0356 2.65406 79.7976 2.17801 79.5806 1.82778C79.3649 1.47944 79.1214 1.17125 78.778 1.00843Z" fill="#FFC250"/>
</svg>
