<svg width="272" height="40" viewBox="0 0 272 40" fill="none" xmlns="http://www.w3.org/2000/svg">
<path d="M23.4478 0.00885771C23.4168 0.610594 23.9257 0.404827 24.2044 0.480045C31.7682 2.47108 36.7966 7.16772 38.9182 14.685C42.0751 25.8813 34.9361 37.2877 23.5098 39.5398C23.2288 39.5951 22.9125 39.5399 22.6868 39.7766C22.6625 39.8032 22.6226 39.8584 22.6293 39.8651C22.6778 39.9135 22.7295 39.9586 22.7841 40H17.0322C17.059 39.9758 17.0841 39.95 17.1075 39.9226C17.1252 39.8978 17.14 39.8711 17.1517 39.8429C16.9636 39.7414 16.7657 39.6592 16.561 39.5974C7.93318 37.8276 2.58171 32.6397 0.411478 24.1336C0.362808 23.9433 0.511034 23.4855 0 23.6514V16.1297C0.0243349 16.1562 0.0442605 16.1872 0.0708077 16.2115C0.0973548 16.2359 0.132741 16.2668 0.143803 16.2602C0.365029 16.1318 0.365036 15.9062 0.426979 15.6938C2.47406 7.55119 7.57334 2.45706 15.7248 0.411451C15.8907 0.369418 16.3885 0.515458 16.1473 0L23.4478 0.00885771ZM27.744 26.7087C28.2599 26.6778 28.7773 26.6816 29.2926 26.7198C30.266 26.8525 30.3656 26.3768 30.2859 25.5716C30.0315 23.0208 28.7374 21.1846 26.5384 19.948C25.0208 19.0963 23.3814 18.5609 21.7045 18.1273C19.8551 17.6517 17.9769 17.2734 16.2535 16.4018C15.1695 15.8553 14.3642 15.1098 14.3554 13.8001C14.3554 13.3576 14.1585 13.2228 13.7559 13.225C12.5037 13.225 11.2516 13.2471 9.99503 13.225C9.44639 13.2139 9.31808 13.4616 9.33135 13.9572C9.35347 16.3331 10.1079 18.353 12.1033 19.7843C13.747 20.9635 15.6429 21.5541 17.5588 22.0872C19.3618 22.585 21.2201 22.897 22.9434 23.6691C23.8682 24.0828 24.8858 24.554 25.0694 25.596C25.2752 26.7419 25.8968 26.7883 26.7596 26.7175C27.0804 26.6755 27.4122 26.7087 27.744 26.7087Z" fill="white"/>
<path d="M271.183 34.9179C269.526 34.9179 267.865 34.8803 266.21 34.9356C265.851 34.9724 265.488 34.9092 265.163 34.7531C264.837 34.5969 264.561 34.3538 264.365 34.0507C261.589 30.3363 258.744 26.6707 255.958 22.9673C255.45 22.3037 255.113 22.1067 254.478 22.8545C253.592 23.8903 252.642 24.8687 251.631 25.7835C250.994 26.3654 250.808 26.9959 250.826 27.821C250.872 29.8453 250.799 31.8716 250.861 33.8936C250.886 34.7454 250.594 34.9843 249.786 34.929C248.867 34.8593 247.944 34.8593 247.025 34.929C246.032 35.0153 245.722 34.7077 245.727 33.668C245.773 25.6065 245.753 17.545 245.753 9.48353C245.753 8.71144 245.791 7.93494 245.742 7.16507C245.698 6.47706 245.981 6.25805 246.627 6.28017C247.658 6.31335 248.693 6.33105 249.724 6.28017C250.567 6.23371 250.868 6.48591 250.857 7.3863C250.808 11.3241 250.837 15.2642 250.837 19.2021V20.5647L256.553 14.565C259.015 11.9796 261.476 9.39206 263.936 6.80223C264.139 6.58101 264.33 6.32656 264.65 6.32435C266.553 6.31329 268.455 6.32435 270.663 6.32435C269.475 7.56322 268.504 8.592 267.517 9.60743C264.823 12.3801 262.123 15.1469 259.418 17.9079C258.987 18.3503 258.755 18.6401 259.237 19.2639C263.049 24.1796 266.818 29.1306 270.606 34.0684C270.75 34.2565 270.847 34.5507 271.185 34.4843L271.183 34.9179Z" fill="white"/>
<path d="M174.523 20.8044C174.523 12.3602 181.019 6.00879 189.655 6.00879C198.197 6.00879 204.639 12.2628 204.723 20.6341C204.807 29.0053 198.173 35.4894 189.492 35.485C180.952 35.4805 174.523 29.1756 174.523 20.8044ZM199.327 20.8044C199.327 15.0945 195.064 10.6545 189.578 10.6501C184.092 10.6457 179.87 14.9928 179.87 20.6805C179.87 26.4191 184.089 30.8016 189.62 30.8149C195.151 30.8282 199.327 26.521 199.327 20.8067V20.8044Z" fill="white"/>
<path d="M84.2364 20.7331C84.2364 16.3882 84.2586 12.0433 84.2188 7.69841C84.2188 6.7759 84.4046 6.41972 85.4266 6.42636C91.8024 6.47208 98.1781 6.47208 104.554 6.42636C105.503 6.42636 105.802 6.74486 105.702 7.63198C105.58 8.71599 106.171 10.1053 105.434 10.811C104.753 11.4637 103.392 11.0013 102.337 11.008C98.4303 11.0301 94.5213 11.0543 90.6122 10.9924C89.5702 10.9769 89.2981 11.311 89.3446 12.2999C89.4198 13.9547 89.4176 15.6183 89.3446 17.2686C89.3047 18.1801 89.6476 18.3747 90.4794 18.357C94.4969 18.3194 98.5144 18.3571 102.532 18.3217C103.448 18.3217 103.915 18.4743 103.795 19.5141C103.676 20.5538 104.222 21.9475 103.587 22.6112C102.892 23.3568 101.492 22.8546 100.404 22.8679C97.1981 22.9033 93.9881 22.879 90.7847 22.8812C89.3689 22.8812 89.3689 22.8812 89.3667 24.3457C89.3667 25.9297 89.4308 27.5158 89.3446 29.0954C89.2848 30.1706 89.5437 30.5378 90.714 30.5179C95.3597 30.4427 100.005 30.5179 104.651 30.4626C105.638 30.4516 105.979 30.7369 105.879 31.6992C105.815 32.4353 105.815 33.1755 105.879 33.9115C105.943 34.7654 105.645 35.0641 104.76 35.0552C101.076 35.0132 97.3884 35.0375 93.6983 35.0375C90.8976 35.0375 88.0968 35.0132 85.2917 35.0508C84.4776 35.0508 84.2143 34.8097 84.221 33.9801C84.2564 29.5688 84.2364 25.151 84.2364 20.7331Z" fill="white"/>
<path d="M63.1307 6.00392C66.5066 5.97731 69.8055 7.01198 72.5616 8.96174C73.1965 9.4042 73.4155 9.76473 72.8492 10.4395C72.2639 11.1497 71.7301 11.9008 71.2519 12.6872C70.8449 13.3508 70.4887 13.3664 69.856 12.9305C67.4601 11.2868 64.8585 10.2625 61.8763 10.601C60.7857 10.7248 59.7968 11.1031 59.0424 11.9283C57.6841 13.4304 58.0867 15.6583 59.9273 16.7091C61.3808 17.5365 63.0046 17.9125 64.6129 18.3152C66.2287 18.6787 67.8098 19.182 69.3383 19.8195C72.7607 21.3393 74.3513 23.6799 74.2407 27.0646C74.1212 30.6994 72.2496 33.4803 68.845 34.6373C63.8541 36.3363 59.111 35.4956 54.6422 32.8564C51.7773 31.1596 51.8039 31.1154 53.8834 28.6288L54.0228 28.4584C55.0249 27.2572 55.0271 27.255 56.2793 28.1996C58.8721 30.1575 61.7524 31.1972 65.0354 30.9162C67.3296 30.7171 68.8405 29.5557 69.0861 27.8323C69.2741 26.505 68.8649 25.4409 67.6924 24.7174C66.4203 23.9299 64.9978 23.5494 63.5687 23.191C61.5255 22.7182 59.5212 22.0902 57.5735 21.3127C51.6003 18.8195 52.0693 10.7337 56.5271 7.81791C58.3301 6.65426 60.4671 6.00834 63.1307 6.00392Z" fill="white"/>
<path d="M128.657 6.0084C132.639 5.97743 136.178 7.16542 139.209 9.82899C139.727 10.2869 139.844 10.6054 139.318 11.1408C138.568 11.9014 137.862 12.7027 137.2 13.5411C136.758 14.1185 136.422 14.0942 135.889 13.6274C134.256 12.2049 132.413 11.1785 130.234 10.8024C123.911 9.71614 118.586 14.7335 119.111 21.492C119.485 26.297 122.312 29.6951 126.486 30.5933C130.061 31.3632 133.203 30.3256 135.871 27.8943C136.561 27.2638 136.992 27.1599 137.619 27.9364C138.215 28.638 138.865 29.2919 139.563 29.892C140.006 30.2947 139.922 30.5557 139.55 30.9517C135.391 35.4559 127.758 36.8408 121.987 34.113C119.172 32.7723 116.86 30.5649 115.392 27.8146C113.923 25.0643 113.374 21.9157 113.826 18.8307C114.98 11.0479 120.808 6.0084 128.657 6.0084Z" fill="white"/>
<path d="M211.125 20.8525C211.125 11.718 218.746 5.02805 227.794 6.05233C231.124 6.43063 234.062 7.57886 236.597 9.77343C237.143 10.2446 237.307 10.592 236.723 11.1738C235.971 11.9317 235.265 12.7347 234.61 13.5785C234.183 14.1249 233.891 14.1116 233.383 13.6648C231.336 11.8573 228.989 10.7069 226.204 10.6561C221.222 10.5632 217.202 14.1957 216.583 19.3371C215.937 24.7106 219.074 29.5621 223.978 30.6041C227.518 31.3562 230.615 30.3232 233.27 27.9362C234.029 27.2526 234.524 27.1021 235.166 28.0268C235.54 28.5622 236.084 28.9781 236.553 29.4493C237.546 30.4448 237.559 30.4603 236.486 31.4404C231.982 35.5375 226.713 36.4732 221.054 34.7012C215.534 32.9734 212.408 28.9493 211.342 23.3036C211.295 23.0505 211.262 22.7949 211.244 22.5381C211.198 21.9497 211.16 21.3657 211.125 20.8525Z" fill="white"/>
<path d="M149.752 20.6028C149.752 16.1782 149.774 11.767 149.734 7.35132C149.734 6.52393 149.969 6.24517 150.79 6.28278C151.783 6.34473 152.779 6.34473 153.772 6.28278C154.681 6.22083 154.86 6.60797 154.856 7.43536C154.827 14.5389 154.836 21.6448 154.842 28.7506C154.842 30.4828 154.641 30.2749 156.373 30.2793C160.539 30.2793 164.703 30.3036 168.866 30.266C169.687 30.266 170.014 30.4872 169.926 31.3212C169.802 32.4783 170.426 33.9759 169.662 34.7148C168.957 35.3962 167.483 34.9118 166.344 34.9162C161.33 34.9339 156.315 34.9339 151.301 34.9162C149.518 34.9162 149.752 35.1374 149.752 33.3034C149.745 29.0714 149.752 24.8371 149.752 20.6028Z" fill="white"/>
</svg>
