<svg width="262" height="40" viewBox="0 0 262 40" fill="none" xmlns="http://www.w3.org/2000/svg">
<path d="M164.019 25.4809C164.019 27.9362 164.031 30.3916 164.019 32.845C163.995 37.215 162.056 39.3663 157.699 39.7905C153.894 40.1659 150.156 39.9782 146.646 38.2306C146.304 38.0597 145.983 37.9321 145.591 38.1724C141.621 40.5995 137.347 40.0627 133.078 39.3944C131.826 39.169 130.588 38.8751 129.369 38.514C127.997 38.1386 127.428 37.2282 127.445 35.7827C127.493 31.3451 127.42 26.9057 127.49 22.4699C127.508 21.3192 127.144 21.062 126.063 21.0883C123.043 21.1578 120.019 21.139 116.998 21.0883C116.131 21.0771 115.756 21.2366 115.776 22.2278C115.842 25.3889 115.776 28.5538 115.808 31.7168C115.821 33.4926 116.478 34.1815 118.282 34.2829C119.076 34.3279 119.878 34.2097 120.677 34.1665C121.008 34.1478 121.46 33.9788 121.646 34.1402C122.816 35.1126 122.448 36.6162 122.81 37.8739C123.011 38.5722 122.434 38.8332 121.83 39.0002C119.014 39.7699 116.146 39.9726 113.285 39.4C109.871 38.7149 108.177 36.5261 108.114 32.8037C108.054 29.3585 108.054 25.912 108.114 22.4643C108.136 21.3568 107.834 21.002 106.702 21.0376C104.157 21.1202 101.602 21.124 99.0545 21.0376C97.8136 20.9963 97.365 21.276 97.3838 22.6407C97.4739 27.6903 97.3838 32.7436 97.4438 37.7951C97.457 38.9551 97.1473 39.3888 95.9421 39.3156C94.3393 39.218 92.7319 39.218 91.1291 39.3156C89.9052 39.3925 89.6273 38.9157 89.6424 37.7763C89.6949 32.7249 89.6255 27.6734 89.693 22.622C89.7099 21.4093 89.4471 20.9945 88.1538 21.0283C85.338 21.1034 85.6159 21.4788 85.6046 18.4847C85.5933 15.7159 85.6046 15.669 88.3509 15.7027C89.4302 15.7196 89.7738 15.3874 89.6837 14.338C89.6286 13.443 89.6412 12.545 89.7212 11.6518C89.9577 8.19033 91.9043 6.04662 95.3076 5.55856C97.9038 5.18313 100.477 5.43842 103.043 5.93399C104.091 6.13673 104.376 6.66984 104.17 7.62344C104.154 7.7167 104.144 7.81068 104.138 7.90501C103.762 10.9742 103.762 10.9742 100.688 10.7395C98.0276 10.5349 96.3701 12.8927 97.4476 15.3048C97.6353 15.7178 97.9563 15.6709 98.2698 15.6709C101.245 15.6802 104.22 15.6709 107.194 15.6859C107.877 15.6859 108.1 15.4212 108.089 14.7642C108.061 13.2061 108.104 11.6481 108.072 10.0901C108.054 9.174 108.406 8.71597 109.347 8.58833C111.027 8.35368 112.703 8.06269 114.365 7.71542C115.476 7.48265 115.818 7.90316 115.793 8.95812C115.754 10.6476 115.857 12.3614 115.757 14.0565C115.684 15.301 115.996 15.7459 117.351 15.7178C122.733 15.6314 128.117 15.7328 133.495 15.6502C134.972 15.6277 135.331 16.1326 135.314 17.5273C135.244 22.8604 135.314 28.1971 135.261 33.532C135.252 34.5739 135.588 34.9868 136.594 35.0075C137.251 35.0206 137.908 35.1633 138.563 35.2121C140.741 35.3698 141.797 34.4913 141.839 32.3288C141.904 28.8823 141.882 25.4358 141.893 21.9894C141.893 20.3375 141.951 18.6818 141.873 17.0337C141.82 15.943 142.248 15.6333 143.275 15.6709C144.925 15.729 146.582 15.7459 148.23 15.6709C149.385 15.6164 149.67 16.0951 149.663 17.1613C149.625 22.5431 149.685 27.9268 149.616 33.3049C149.601 34.5401 150.014 35.03 151.191 35.0413C151.66 35.0413 152.129 35.1914 152.595 35.2177C154.994 35.3491 156.24 34.1928 156.246 31.7975C156.259 26.9357 156.282 22.072 156.229 17.2101C156.216 16.0463 156.561 15.607 157.751 15.669C159.4 15.7534 161.057 15.7309 162.707 15.669C163.689 15.6352 164.036 15.9881 164.021 16.983C163.987 19.8137 164.019 22.6483 164.019 25.4809Z" fill="white"/>
<path d="M225.862 30.6165C223.786 30.6165 221.708 30.6447 219.632 30.6034C218.77 30.5865 218.567 30.9131 218.729 31.7053C219.055 33.3008 220.127 34.3577 221.894 34.72C224.591 35.27 227.243 34.9828 229.872 34.2788C231.674 33.7964 231.792 33.8659 232.207 35.5928C232.845 38.2509 232.845 38.2453 230.155 39.0056C226.359 40.0793 222.509 40.1732 218.659 39.473C214 38.6245 211.49 35.835 210.83 30.7179C210.447 27.951 210.547 25.1386 211.124 22.4058C212.046 18.2066 214.315 16.0798 218.594 15.4171C221.702 14.9347 224.788 14.9704 227.833 15.8921C230.666 16.7462 232.374 18.6065 233.089 21.456C233.744 24.0502 233.725 26.6876 233.712 29.3401C233.712 30.35 233.098 30.6184 232.233 30.6165H225.851H225.862ZM222.425 26.2164C223.414 26.2164 224.403 26.2164 225.393 26.2164C225.749 26.2164 226.237 26.3065 226.237 25.7434C226.237 24.1065 226.485 22.3476 225.203 21.0599C223.921 19.7722 222.241 19.9505 220.672 20.3597C219.072 20.7746 218.104 23.1586 218.665 25.5745C218.986 26.9561 220.322 25.9405 221.16 26.2014C221.546 26.3159 222.001 26.2183 222.425 26.2164Z" fill="white"/>
<path d="M59.9799 27.6116C59.9609 26.2552 60.0431 24.8993 60.2259 23.5551C60.8247 18.8172 63.3401 16.1722 68.0536 15.4214C70.9688 14.9558 73.8728 14.9746 76.7543 15.7161C80.1331 16.5871 82.2262 18.7196 82.9583 22.1472C83.6833 25.5234 83.7216 29.0109 83.0709 32.4022C82.2675 36.6502 79.9379 38.8127 75.6036 39.5711C72.9509 40.0434 70.2347 40.0319 67.5862 39.5372C63.2481 38.7226 60.8284 36.1227 60.2484 31.732C60.0472 30.3682 59.9574 28.9901 59.9799 27.6116ZM67.9128 27.4071C67.8978 29.012 67.8678 30.6189 68.185 32.2032C68.5605 34.1029 69.5966 34.865 71.7516 34.8575C73.9066 34.85 74.9691 34.0916 75.2657 32.1563C75.7415 29.0722 75.7415 25.9334 75.2657 22.8493C74.9747 20.9721 73.9385 20.2401 71.8549 20.2213C69.5873 20.2025 68.6318 20.8595 68.2169 22.7554C67.8734 24.2891 67.8997 25.849 67.9128 27.4071Z" fill="white"/>
<path d="M189.757 28.4862C189.757 30.6562 189.778 32.828 189.757 34.998C189.736 37.168 188.903 38.3488 186.81 38.9401C182.335 40.1908 177.623 40.3371 173.079 39.3662C168.166 38.3394 165.895 32.6722 168.429 28.306C169.503 26.457 171.269 25.7436 173.214 25.3851C175.624 24.9421 178.059 24.6342 180.469 24.1912C181.055 24.0842 182.042 24.4108 182.055 23.2658C182.068 22.1207 182.171 20.8987 180.717 20.4932C178.954 20.0014 177.15 20.1534 175.38 20.4012C173.889 20.6115 172.422 20.9813 170.955 21.3398C170.268 21.505 169.861 21.3736 169.743 20.6377C169.698 20.358 169.641 20.0746 169.578 19.8043C168.898 16.8402 168.891 16.8008 171.888 16.1156C175.83 15.2015 179.791 14.7622 183.814 15.4605C187.944 16.1757 189.763 18.3551 189.763 22.5487C189.761 24.5247 189.76 26.5039 189.757 28.4862ZM182.061 31.6867C182.061 30.7932 182.061 29.9015 182.061 29.008C182.061 28.5049 181.957 28.2102 181.332 28.3303C179.859 28.6175 178.368 28.8146 176.897 29.1169C175.958 29.3046 175.273 29.9297 175.1 30.8926C174.866 32.2067 174.762 33.6014 176.013 34.5025C177.743 35.747 179.756 35.5067 181.567 34.906C182.693 34.5306 181.835 33.1472 182.055 32.248C182.079 32.0617 182.08 31.8733 182.059 31.6867H182.061Z" fill="white"/>
<path d="M47.9721 15.1265C50.1868 15.1449 52.3917 15.4215 54.5422 15.9506C55.554 16.1965 55.8018 16.6714 55.5953 17.67C54.9852 20.6359 55.0134 20.6735 52.0174 20.2117C50.763 19.9921 49.4862 19.9291 48.2162 20.024C47.0373 20.1385 45.9336 20.5177 45.8322 21.965C45.7364 23.341 46.583 24.0149 47.8088 24.3152C49.2693 24.6719 50.7541 24.944 52.1958 25.3645C54.6905 26.0891 55.9782 27.8686 56.3105 30.3916C57.0426 35.9498 54.3432 39.2724 48.6141 39.7886C45.346 40.0833 42.1267 39.6722 38.9449 38.8895C37.9275 38.6379 37.6309 38.1724 37.8186 37.0837C38.3461 33.8925 38.2898 33.8925 41.3852 34.5157C42.9113 34.8235 44.4468 35.0939 46.0124 34.9737C47.6718 34.8461 48.5559 34.0595 48.6179 32.7361C48.6798 31.4127 48.0942 30.7426 46.3803 30.3315C45.1433 30.0368 43.8743 29.851 42.6617 29.4812C39.5625 28.5426 38.1283 26.4908 38.0213 23.0181C37.9106 19.4421 39.3241 17.105 42.29 15.9543C44.109 15.241 46.033 15.1283 47.9721 15.1265Z" fill="white"/>
<path d="M0.0364852 17.8782C-0.0592501 15.1545 0.0364886 11.8957 1.40682 8.84532C4.04423 2.97356 8.72774 0.210378 15.0575 0.0226621C16.4729 -0.0186355 17.892 0.048968 19.3074 0.00203894C20.109 -0.0261185 20.4074 0.232906 20.3098 1.05698C20.007 3.58489 19.7329 6.11718 19.4876 8.65385C19.4332 9.19822 19.2098 9.38408 18.6917 9.37281C17.7944 9.35404 16.8972 9.37281 15.9999 9.37281C11.7368 9.4066 9.56496 11.5447 9.49926 15.8302C9.45984 18.2856 9.45232 20.7428 9.50864 23.1962C9.53117 24.1498 9.29652 24.5346 8.26221 24.5102C5.95142 24.437 3.635 24.4464 1.31671 24.5102C0.353727 24.5365 -0.0367228 24.2812 0.00269763 23.26C0.0909242 21.6419 0.0364852 20.0332 0.0364852 17.8782Z" fill="white"/>
<path d="M25.3994 21.4358C25.5364 24.3454 25.3299 27.7618 23.8057 30.9623C21.3654 36.0757 17.2506 38.8708 11.6905 39.5016C9.77953 39.7174 7.8254 39.5429 5.8938 39.6029C5.09038 39.6292 4.95522 39.2932 5.03594 38.5892C5.3269 36.1489 5.61223 33.7236 5.82623 31.2833C5.89193 30.5437 6.17162 30.2903 6.8718 30.3279C7.48188 30.3617 8.09759 30.3279 8.70954 30.3279C13.6559 30.2979 15.9404 28.019 15.9948 23.037C16.0192 20.9627 16.0342 18.8866 15.9835 16.8123C15.9629 15.977 16.1713 15.6485 17.0779 15.671C19.5295 15.7311 21.983 15.7123 24.4345 15.671C25.1535 15.671 25.4426 15.8587 25.4144 16.6227C25.3581 18.0381 25.3994 19.4554 25.3994 21.4358Z" fill="white"/>
<path d="M195.433 28.3812C195.433 25.3627 195.489 22.3424 195.408 19.3258C195.367 17.856 195.958 17.0056 197.306 16.587C200.809 15.502 204.417 15.2148 208.058 15.1772C208.809 15.1772 209.175 15.5715 209.243 16.2904C209.252 16.3843 209.26 16.4782 209.267 16.572C209.611 20.6379 209.611 20.6379 205.545 20.8407C205.451 20.8407 205.357 20.8538 205.263 20.8594C203.133 20.9983 203.133 20.9983 203.133 23.112C203.133 28.017 203.095 32.9221 203.159 37.8271C203.176 39.0266 202.784 39.3795 201.633 39.3176C199.987 39.2293 198.329 39.2425 196.681 39.3176C195.66 39.3607 195.399 38.9665 195.414 38.0035C195.457 34.7955 195.433 31.5874 195.433 28.3812Z" fill="white"/>
<path d="M261.615 22.7725C261.615 25.7872 261.572 25.8341 258.585 25.973C253.612 26.2058 251.904 24.3474 252.578 19.4293C252.907 16.989 253.93 15.9753 256.374 15.5961C257.898 15.3596 259.377 15.6111 260.86 15.9302C261.585 16.086 261.59 16.4934 261.5 17.0753C261.397 17.7492 260.961 17.5709 260.545 17.5127C259.418 17.3513 258.303 17.2199 257.166 17.3663C256.094 17.5033 255.476 18.0852 255.21 19.1176C255.017 19.8978 254.953 20.7046 255.022 21.5054C255.18 23.7355 256.1 24.5089 258.332 24.3662C258.852 24.3324 259.36 24.2836 259.214 23.6153C259.084 23.0316 259.777 22.093 258.596 21.9259C257.954 21.8302 257.397 21.787 257.481 20.8728C257.581 19.7803 258.388 20.3941 258.865 20.2214C258.911 20.2139 258.959 20.2139 259.005 20.2214C261.615 20.2008 261.615 20.2008 261.615 22.7725Z" fill="white"/>
<path d="M249.447 25.8672C248.305 26.192 248.014 25.3566 247.964 24.5532C247.827 22.3889 246.259 23.0177 244.998 22.8506C243.627 22.6629 243.329 23.4401 243.091 24.4969C242.79 25.8109 241.93 26.2445 240.637 25.8972C240.153 25.7677 240.183 25.5218 240.297 25.1745C241.288 22.233 242.293 19.2953 243.263 16.3519C243.432 15.8356 243.749 15.7699 244.211 15.7343C247.521 15.4771 247.519 15.4696 248.529 18.6739C249.156 20.645 249.734 22.6347 250.443 24.5757C250.851 25.6551 250.661 26.0794 249.447 25.8672ZM245.439 21.2775C246.959 21.2775 247.021 21.2607 246.882 20.6431C246.665 19.6876 246.362 18.7528 246.079 17.8142C245.995 17.5364 245.826 17.3017 245.486 17.3224C245.146 17.343 245.048 17.5946 244.971 17.8855C244.828 18.5238 244.64 19.1511 244.408 19.7627C243.864 21.0598 244.299 21.4859 245.439 21.2775Z" fill="white"/>
</svg>
