<svg width="31" height="25" viewBox="0 0 31 25" fill="none" xmlns="http://www.w3.org/2000/svg">
<path d="M27.1751 6.4354C27.1944 6.70445 27.1944 6.97356 27.1944 7.2426C27.1944 15.4489 20.9483 24.9045 9.53244 24.9045C6.01542 24.9045 2.74827 23.8859 0 22.1178C0.499702 22.1755 0.980119 22.1947 1.49905 22.1947C4.40101 22.1947 7.07244 21.2146 9.20572 19.5425C6.47667 19.4849 4.18964 17.6975 3.40167 15.2375C3.78607 15.2952 4.17042 15.3336 4.57405 15.3336C5.13137 15.3336 5.68875 15.2567 6.20762 15.1223C3.36327 14.5456 1.22994 12.0472 1.22994 9.02993V8.95308C2.05631 9.41433 3.01732 9.70261 4.03583 9.741C2.36381 8.6263 1.26839 6.72368 1.26839 4.57118C1.26839 3.41808 1.57583 2.36106 2.11399 1.43856C5.16976 5.2054 9.76304 7.66535 14.9136 7.93445C14.8175 7.4732 14.7598 6.99278 14.7598 6.51231C14.7598 3.09135 17.5273 0.304688 20.9674 0.304688C22.7548 0.304688 24.3691 1.05421 25.503 2.26499C26.906 1.99594 28.2513 1.47701 29.4429 0.765937C28.9816 2.20737 28.0014 3.41814 26.7138 4.18683C27.963 4.05237 29.1738 3.70636 30.2885 3.22594C29.443 4.45588 28.3859 5.5513 27.1751 6.4354V6.4354Z" fill="white"/>
</svg>
