<svg width="34" height="23" viewBox="0 0 34 23" fill="none" xmlns="http://www.w3.org/2000/svg">
<path d="M32.539 3.80045C32.1674 2.40137 31.0727 1.29951 29.6826 0.925576C27.1631 0.246094 17.0602 0.246094 17.0602 0.246094C17.0602 0.246094 6.95728 0.246094 4.43771 0.925576C3.04769 1.29957 1.95292 2.40137 1.58135 3.80045C0.90625 6.33635 0.90625 11.6273 0.90625 11.6273C0.90625 11.6273 0.90625 16.9182 1.58135 19.4541C1.95292 20.8532 3.04769 21.9091 4.43771 22.283C6.95728 22.9625 17.0602 22.9625 17.0602 22.9625C17.0602 22.9625 27.1631 22.9625 29.6826 22.283C31.0727 21.9091 32.1674 20.8532 32.539 19.4541C33.2141 16.9182 33.2141 11.6273 33.2141 11.6273C33.2141 11.6273 33.2141 6.33635 32.539 3.80045V3.80045ZM13.7559 16.431V6.82351L22.2 11.6274L13.7559 16.431V16.431Z" fill="white"/>
</svg>
